<?xml version="1.0" standalone="no"?><!DOCTYPE svg PUBLIC "-//W3C//DTD SVG 1.1//EN" "http://www.w3.org/Graphics/SVG/1.1/DTD/svg11.dtd" ><svg xmlns="http://www.w3.org/2000/svg"><metadata></metadata><defs><font id="KaiGen Gothic SC Light:Version 1.001" horiz-adv-x="1000"><font-face font-family="KaiGen Gothic SC Light" font-weight="300" font-stretch="normal" units-per-em="1000" panose-1="2 11 1 3 2 2 3 2 2 7" ascent="880" descent="-120" x-height="7" bbox="-38 -254 972 880" underline-thickness="50" underline-position="-125" unicode-range="U+0028-ff1b" /><missing-glyph horiz-adv-x="1000" d="M100 880 l800 0 l0 -1000 l-800 0 l0 1000 ZM818 830 l-636 0 l318 -409 l318 409 ZM850 -29 l0 818 l-318 -409 l318 -409 ZM818 -70 l-318 409 l-318 -409 l636 0 ZM150 -29 l318 409 l-318 409 l0 -818 Z" /><glyph glyph-name="" unicode="(" d="M242 -193 q-146 236 -146 501 q0 266 146 502 l36 -19 q-132 -214 -132 -483 q0 -271 132 -483 l-36 -18 Z" /><glyph glyph-name="" unicode=")" d="M37 -175 q132 212 132 483 q0 269 -132 483 l36 19 q146 -236 146 -502 q0 -265 -146 -501 l-36 18 Z" /><glyph glyph-name="" unicode="*" d="M115 525 l61 100 l-102 40 l12 38 l107 -29 l9 115 l40 0 l7 -114 l107 28 l12 -38 l-102 -40 l62 -100 l-33 -23 l-73 92 l-74 -92 l-33 23 Z" /><glyph glyph-name="" unicode="-&#x2011;" d="M45 301 l246 0 l0 -49 l-246 0 l0 49 Z" /><glyph glyph-name="" unicode="." d="M125 -13 q-21 0 -36 15 q-15 15 -15 39 q0 25 15 40 q15 15 36 15 q21 0 36 -15 q15 -15 15 -40 q0 -24 -15 -39 q-15 -15 -36 -15 Z" /><glyph glyph-name="" unicode="/" d="M339 786 l48 0 l-330 -963 l-47 0 l329 963 Z" /><glyph glyph-name="" unicode="0" d="M268 -13 q-102 0 -157 94 q-58 98 -58 286 q0 186 58 282 q55 93 157 93 q101 0 157 -93 q57 -96 57 -282 q0 -188 -57 -286 q-56 -94 -157 -94 ZM268 36 q72 0 113 83 q43 86 43 248 q0 159 -43 244 q-41 82 -113 82 q-73 0 -114 -82 q-43 -85 -43 -244 q0 -162 43 -248 q41 -83 114 -83 Z" /><glyph glyph-name="" unicode="1" d="M92 51 l165 0 l0 593 l-127 0 l0 39 q83 14 139 46 l47 0 l0 -678 l152 0 l0 -51 l-376 0 l0 51 Z" /><glyph glyph-name="" unicode="2" d="M45 36 q345 298 345 495 q0 72 -36 115 q-39 47 -113 47 q-88 0 -162 -91 l-37 35 q95 105 205 105 q94 0 149 -57 q53 -57 53 -152 q0 -196 -312 -487 q80 6 120 6 l227 0 l0 -52 l-439 0 l0 36 Z" /><glyph glyph-name="" unicode="3" d="M258 -13 q-133 0 -227 100 l33 39 q83 -89 192 -89 q71 0 116 43 q46 43 46 113 q0 164 -242 164 l0 49 q216 0 216 156 q0 59 -37 95 q-38 36 -101 37 q-90 -1 -160 -77 l-34 40 q90 85 195 86 q87 -1 141 -46 q56 -49 56 -131 q0 -135 -134 -180 l0 -5 q70 -15 113 -62 q47 -52 47 -126 q0 -93 -63 -151 q-62 -55 -157 -55 Z" /><glyph glyph-name="" unicode="4" d="M341 257 l0 269 q0 53 6 121 l-5 0 q-27 -52 -58 -101 l-198 -289 l255 0 ZM501 208 l-103 0 l0 -208 l-57 0 l0 208 l-322 0 l0 37 l322 484 l57 0 l0 -472 l103 0 l0 -49 Z" /><glyph glyph-name="" unicode="5" d="M253 -13 q-128 0 -225 95 l32 41 q82 -86 191 -86 q71 0 120 53 q50 56 50 142 q0 87 -45 137 q-45 50 -122 50 q-62 0 -129 -46 l-38 23 l25 333 l333 0 l0 -51 l-281 0 l-21 -245 q58 35 122 35 q96 0 153 -56 q63 -62 63 -178 q0 -113 -70 -183 q-66 -64 -158 -64 Z" /><glyph glyph-name="" unicode="6" d="M294 36 q59 0 99 52 q39 53 39 132 q0 182 -148 182 q-90 0 -167 -104 q15 -262 177 -262 ZM441 634 q-47 58 -119 58 q-90 0 -143 -75 q-61 -86 -63 -263 q77 95 176 95 q94 0 146 -58 q52 -60 52 -171 q0 -101 -59 -168 q-57 -65 -138 -65 q-108 0 -170 92 q-64 94 -64 265 q0 206 80 309 q68 89 182 89 q92 0 155 -70 l-35 -38 Z" /><glyph glyph-name="" unicode="7" d="M205 0 q17 406 212 678 l-369 0 l0 51 l440 0 l0 -35 q-123 -161 -171 -325 q-40 -138 -49 -369 l-63 0 Z" /><glyph glyph-name="" unicode="8" d="M271 -13 q-98 0 -162 55 q-64 55 -64 139 q0 131 139 208 l0 4 q-100 67 -100 166 q0 79 54 130 q54 50 134 50 q89 0 142 -54 q51 -53 51 -137 q0 -101 -100 -181 l0 -5 q124 -74 124 -190 q0 -79 -60 -131 q-62 -54 -158 -54 ZM322 383 q89 74 89 163 q0 62 -37 103 q-39 43 -103 43 q-57 0 -94 -38 q-37 -37 -37 -95 q0 -66 57 -112 q37 -29 125 -64 ZM271 34 q71 0 116 40 q44 39 44 99 q0 74 -65 123 q-39 29 -147 71 q-119 -71 -119 -183 q0 -64 48 -107 q49 -43 123 -43 Z" /><glyph glyph-name="" unicode="9" d="M250 327 q93 0 170 107 q-10 260 -178 260 q-59 0 -99 -53 q-39 -53 -39 -132 q0 -83 35 -130 q38 -52 111 -52 ZM96 95 q50 -58 127 -58 q84 0 135 76 q59 87 63 264 q-80 -97 -178 -97 q-92 0 -144 59 q-53 60 -53 170 q0 101 59 168 q57 65 138 65 q108 0 170 -86 q65 -90 65 -252 q0 -215 -78 -324 q-67 -93 -178 -93 q-94 0 -161 70 l35 38 Z" /><glyph glyph-name="" unicode="a" d="M419 293 l-44 132 q-38 107 -80 250 l-4 0 q-31 -110 -79 -250 l-45 -132 l252 0 ZM435 245 l-284 0 l-83 -245 l-60 0 l255 729 l62 0 l255 -729 l-64 0 l-81 245 Z" /><glyph glyph-name="" unicode="b" d="M106 729 l201 0 q243 0 243 -177 q0 -125 -112 -159 l0 -5 q156 -27 156 -175 q0 -103 -74 -159 q-72 -54 -198 -54 l-216 0 l0 729 ZM288 411 q202 0 202 134 q0 72 -50 105 q-46 30 -146 30 l-128 0 l0 -269 l122 0 ZM308 50 q227 0 227 163 q0 150 -227 150 l-142 0 l0 -313 l142 0 Z" /><glyph glyph-name="" unicode="c" d="M368 -13 q-137 0 -221 102 q-87 103 -87 276 q0 173 88 276 q86 101 226 101 q117 0 192 -88 l-34 -39 q-65 73 -158 73 q-116 0 -183 -87 q-68 -86 -68 -234 q0 -150 67 -238 q67 -88 181 -88 q101 0 181 88 l34 -38 q-90 -104 -218 -104 Z" /><glyph glyph-name="" unicode="d" d="M106 729 l172 0 q165 0 251 -97 q83 -94 83 -265 q0 -172 -83 -267 q-86 -100 -250 -100 l-173 0 l0 729 ZM272 51 q139 0 211 87 q66 82 66 229 q0 147 -66 227 q-71 85 -211 85 l-106 0 l0 -628 l106 0 Z" /><glyph glyph-name="" unicode="e" d="M106 729 l403 0 l0 -51 l-343 0 l0 -266 l289 0 l0 -51 l-289 0 l0 -309 l354 0 l0 -52 l-414 0 l0 729 Z" /><glyph glyph-name="" unicode="f" d="M106 729 l402 0 l0 -51 l-342 0 l0 -281 l289 0 l0 -51 l-289 0 l0 -346 l-60 0 l0 729 Z" /><glyph glyph-name="" unicode="g" d="M376 -13 q-142 0 -228 102 q-88 103 -88 276 q0 173 91 276 q88 101 234 101 q118 0 202 -88 l-35 -39 q-68 73 -166 73 q-121 0 -192 -87 q-71 -86 -71 -234 q0 -151 68 -238 q69 -88 191 -88 q103 0 155 52 l0 219 l-169 0 l0 51 l227 0 l0 -293 q-78 -83 -219 -83 Z" /><glyph glyph-name="" unicode="h" d="M106 729 l60 0 l0 -316 l379 0 l0 316 l59 0 l0 -729 l-59 0 l0 361 l-379 0 l0 -361 l-60 0 l0 729 Z" /><glyph glyph-name="" unicode="i" d="M106 729 l60 0 l0 -729 l-60 0 l0 729 Z" /><glyph glyph-name="" unicode="j" d="M227 -13 q-125 0 -185 109 l45 30 q50 -85 138 -85 q128 0 128 167 l0 521 l60 0 l0 -527 q0 -215 -186 -215 Z" /><glyph glyph-name="" unicode="k" d="M106 729 l60 0 l0 -396 l2 0 l342 396 l71 0 l-232 -271 l265 -458 l-69 0 l-236 411 l-143 -165 l0 -246 l-60 0 l0 729 Z" /><glyph glyph-name="" unicode="l" d="M106 729 l60 0 l0 -677 l332 0 l0 -52 l-392 0 l0 729 Z" /><glyph glyph-name="" unicode="m" d="M106 729 l80 0 l207 -579 l4 0 l54 160 l150 419 l80 0 l0 -729 l-57 0 l0 462 q0 59 7 201 l-4 0 l-57 -163 l-153 -422 l-48 0 l-154 422 l-57 163 l-4 0 q7 -142 7 -201 l0 -462 l-55 0 l0 729 Z" /><glyph glyph-name="" unicode="n" d="M106 729 l62 0 l298 -501 l81 -147 l5 0 q-8 144 -8 216 l0 432 l57 0 l0 -729 l-62 0 l-297 502 l-82 146 l-5 0 q8 -187 8 -211 l0 -437 l-57 0 l0 729 Z" /><glyph glyph-name="" unicode="o" d="M362 -13 q-134 0 -217 103 q-85 105 -85 277 q0 171 85 274 q83 101 217 101 q135 0 218 -101 q85 -103 85 -274 q0 -172 -85 -277 q-83 -103 -218 -103 ZM362 41 q109 0 175 89 q66 89 66 237 q0 148 -66 235 q-66 86 -175 86 q-109 0 -173 -86 q-66 -87 -66 -235 q0 -148 66 -237 q65 -89 173 -89 Z" /><glyph glyph-name="" unicode="p" d="M106 729 l189 0 q266 0 266 -205 q0 -107 -70 -163 q-68 -53 -192 -53 l-133 0 l0 -308 l-60 0 l0 729 ZM287 358 q109 0 161 39 q52 40 52 127 q0 86 -54 122 q-50 33 -163 33 l-117 0 l0 -321 l121 0 Z" /><glyph glyph-name="" unicode="q" d="M123 367 q0 -150 66 -239 q65 -90 173 -90 q109 0 175 90 q66 89 66 239 q0 148 -66 235 q-66 86 -175 86 q-109 0 -173 -86 q-66 -87 -66 -235 ZM671 -161 q-37 -13 -93 -13 q-183 0 -247 163 q-122 12 -195 113 q-76 103 -76 265 q0 171 85 274 q83 101 217 101 q135 0 218 -101 q85 -103 85 -274 q0 -160 -74 -263 q-73 -101 -194 -115 q50 -110 187 -110 q44 0 74 10 l13 -50 Z" /><glyph glyph-name="" unicode="r" d="M166 379 l139 0 q196 0 196 155 q0 145 -196 145 l-139 0 l0 -300 ZM509 0 l-194 329 l-149 0 l0 -329 l-60 0 l0 729 l213 0 q243 0 243 -195 q0 -172 -182 -200 l197 -334 l-68 0 Z" /><glyph glyph-name="" unicode="s" d="M299 -13 q-151 0 -248 109 l37 42 q86 -97 211 -97 q80 0 128 39 q47 38 47 101 q0 60 -37 95 q-25 23 -92 53 l-109 48 q-148 66 -148 182 q0 80 62 132 q60 51 154 51 q125 0 206 -88 l-34 -39 q-71 73 -172 73 q-70 0 -112 -34 q-43 -34 -43 -90 q0 -83 124 -137 l109 -48 q74 -33 108 -69 q45 -49 45 -125 q0 -85 -64 -141 q-66 -57 -172 -57 Z" /><glyph glyph-name="" unicode="t" d="M261 678 l-229 0 l0 51 l520 0 l0 -51 l-230 0 l0 -678 l-61 0 l0 678 Z" /><glyph glyph-name="" unicode="u" d="M352 -13 q-249 0 -249 298 l0 444 l60 0 l0 -441 q0 -247 189 -247 q193 0 193 247 l0 441 l57 0 l0 -444 q0 -298 -250 -298 Z" /><glyph glyph-name="" unicode="v" d="M4 729 l64 0 l206 -663 l4 0 q18 52 39 122 l168 541 l61 0 l-237 -729 l-66 0 l-239 729 Z" /><glyph glyph-name="" unicode="w" d="M30 729 l62 0 l88 -422 q20 -92 49 -238 l4 0 q18 80 56 238 l111 422 l59 0 l112 -422 l56 -238 l5 0 q27 147 46 238 l88 422 l59 0 l-160 -729 l-68 0 l-129 487 l-38 164 l-4 0 q-6 -29 -20 -81 q-14 -56 -20 -83 l-125 -487 l-68 0 l-163 729 Z" /><glyph glyph-name="" unicode="x" d="M236 377 l-203 352 l66 0 l115 -208 l59 -101 l4 0 q10 17 28 53 l141 256 l62 0 l-203 -355 l218 -374 l-65 0 l-123 218 q-45 79 -67 116 l-4 0 q-51 -98 -61 -116 l-122 -218 l-62 0 l217 377 Z" /><glyph glyph-name="" unicode="y" d="M221 293 l-219 436 l64 0 l145 -302 q23 -49 38 -79 l4 0 q58 112 78 158 l107 223 l62 0 l-219 -436 l0 -293 l-60 0 l0 293 Z" /><glyph glyph-name="" unicode="z" d="M54 35 l412 643 l-375 0 l0 51 l449 0 l0 -35 l-411 -642 l416 0 l0 -52 l-491 0 l0 35 Z" /><glyph glyph-name="" unicode="a" d="M218 -13 q-68 0 -110 36 q-45 40 -45 111 q0 87 82 135 q79 45 258 66 q4 161 -122 161 q-87 0 -168 -61 l-26 42 q103 70 202 70 q172 0 172 -209 l0 -338 l-49 0 l-6 68 l-2 0 q-99 -81 -186 -81 ZM230 36 q78 0 173 83 l0 173 q-153 -18 -220 -56 q-62 -36 -62 -99 q0 -101 109 -101 Z" /><glyph glyph-name="" unicode="b" d="M314 -13 q-78 0 -158 67 l-2 0 l-7 -54 l-47 0 l0 795 l58 0 l0 -228 l-3 -102 q97 82 180 82 q104 0 160 -74 q54 -72 54 -198 q0 -132 -71 -212 q-66 -76 -164 -76 ZM309 38 q79 0 128 65 q50 66 50 172 q0 221 -163 221 q-73 0 -166 -85 l0 -308 q74 -65 151 -65 Z" /><glyph glyph-name="" unicode="c" d="M300 -13 q-107 0 -174 73 q-70 76 -70 206 q0 129 74 207 q70 74 173 74 q83 0 156 -65 l-33 -40 q-57 54 -122 54 q-80 0 -133 -64 q-54 -65 -54 -166 q0 -102 51 -165 q51 -64 135 -64 q73 0 139 59 l28 -40 q-79 -69 -170 -69 Z" /><glyph glyph-name="" unicode="d" d="M277 -13 q-102 0 -161 72 q-60 75 -60 207 q0 125 71 205 q67 76 165 76 q77 0 159 -65 l-4 96 l0 217 l58 0 l0 -795 l-48 0 l-7 67 l-2 0 q-80 -80 -171 -80 ZM287 38 q79 0 160 84 l0 308 q-74 66 -149 66 q-77 0 -128 -66 q-52 -66 -52 -164 q0 -105 44 -166 q45 -62 125 -62 Z" /><glyph glyph-name="" unicode="e" d="M304 -13 q-106 0 -175 74 q-73 77 -73 205 q0 125 72 205 q67 76 162 76 q97 0 151 -65 q55 -66 55 -183 q0 -22 -3 -42 l-378 0 q2 -98 56 -159 q53 -62 139 -62 q76 0 142 46 l22 -43 q-83 -52 -170 -52 ZM443 303 q0 95 -41 145 q-40 49 -111 49 q-68 0 -116 -51 q-52 -54 -60 -143 l328 0 Z" /><glyph glyph-name="" unicode="f" d="M312 744 q-33 15 -63 15 q-82 0 -82 -117 l0 -109 l121 0 l0 -49 l-121 0 l0 -484 l-58 0 l0 484 l-74 0 l0 44 l74 5 l0 112 q0 163 137 163 q39 0 80 -18 l-14 -46 Z" /><glyph glyph-name="" unicode="g" d="M275 -254 q-100 0 -160 39 q-60 40 -60 107 q0 73 80 127 l0 5 q-48 28 -48 86 q0 55 59 99 l0 4 q-68 56 -68 145 q0 82 56 136 q55 53 135 53 q37 0 71 -14 l182 0 l0 -48 l-120 0 q55 -48 55 -128 q0 -82 -55 -135 q-53 -53 -133 -53 q-48 0 -86 22 q-42 -33 -42 -74 q0 -67 100 -67 l112 0 q178 0 178 -123 q0 -73 -69 -125 q-74 -56 -187 -56 ZM269 213 q54 0 92 40 q40 41 40 105 q0 64 -39 104 q-37 38 -93 38 q-56 0 -94 -38 q-39 -40 -39 -104 q0 -64 40 -105 q38 -40 93 -40 ZM282 -210 q83 0 139 41 q52 37 52 88 q0 78 -121 78 l-109 0 q-26 0 -67 9 q-66 -46 -66 -107 q0 -49 45 -79 q46 -30 127 -30 Z" /><glyph glyph-name="" unicode="h" d="M100 795 l58 0 l-1 -344 q96 96 182 96 q162 0 162 -206 l0 -341 l-58 0 l0 333 q0 162 -117 162 q-75 0 -168 -96 l0 -399 l-58 0 l0 795 Z" /><glyph glyph-name="" unicode="i" d="M100 533 l58 0 l0 -533 l-58 0 l0 533 ZM130 658 q-21 0 -35 13 q-14 13 -14 33 q0 48 49 48 q49 0 49 -48 q0 -20 -15 -33 q-14 -13 -34 -13 Z" /><glyph glyph-name="" unicode="j" d="M33 -251 q-41 0 -71 14 l13 46 q31 -11 55 -11 q41 0 57 32 q13 25 13 82 l0 621 l59 0 l0 -623 q0 -161 -126 -161 ZM130 658 q-48 0 -48 46 q0 48 48 48 q49 0 49 -48 q0 -20 -14 -33 q-14 -13 -35 -13 Z" /><glyph glyph-name="" unicode="k" d="M100 795 l58 0 l0 -576 l2 0 l255 314 l66 0 l-174 -211 l202 -322 l-64 0 l-172 280 l-115 -136 l0 -144 l-58 0 l0 795 Z" /><glyph glyph-name="" unicode="l" d="M171 -13 q-71 0 -71 92 l0 716 l58 0 l0 -722 q0 -36 24 -36 q8 0 19 2 l9 -46 q-20 -6 -39 -6 Z" /><glyph glyph-name="" unicode="m" d="M100 533 l48 0 l7 -81 l2 0 q86 95 168 95 q115 0 147 -108 q100 108 180 108 q160 0 160 -206 l0 -341 l-58 0 l0 333 q0 162 -115 162 q-68 0 -154 -96 l0 -399 l-58 0 l0 333 q0 162 -115 162 q-70 0 -154 -96 l0 -399 l-58 0 l0 533 Z" /><glyph glyph-name="" unicode="n" d="M100 533 l48 0 l7 -81 l2 0 q97 95 182 95 q162 0 162 -206 l0 -341 l-58 0 l0 333 q0 162 -117 162 q-75 0 -168 -96 l0 -399 l-58 0 l0 533 Z" /><glyph glyph-name="" unicode="o" d="M297 -13 q-101 0 -169 73 q-72 78 -72 206 q0 129 72 207 q68 74 169 74 q101 0 169 -74 q72 -78 72 -207 q0 -128 -72 -206 q-68 -73 -169 -73 ZM297 37 q79 0 130 64 q51 64 51 165 q0 101 -51 166 q-51 64 -130 64 q-78 0 -129 -64 q-51 -65 -51 -166 q0 -101 51 -165 q50 -64 129 -64 Z" /><glyph glyph-name="" unicode="p" d="M100 533 l48 0 l7 -65 l2 0 q103 79 178 79 q104 0 160 -74 q54 -72 54 -198 q0 -132 -71 -212 q-66 -76 -164 -76 q-73 0 -157 65 l1 -290 l-58 0 l0 771 ZM309 38 q79 0 128 65 q50 66 50 172 q0 221 -163 221 q-70 0 -166 -85 l0 -308 q77 -65 151 -65 Z" /><glyph glyph-name="" unicode="q" d="M447 -35 l4 104 q-84 -82 -174 -82 q-102 0 -161 72 q-60 75 -60 207 q0 125 71 205 q67 76 165 76 q79 0 157 -64 l2 0 l7 50 l47 0 l0 -771 l-58 0 l0 203 ZM287 38 q79 0 160 84 l0 308 q-74 66 -149 66 q-77 0 -128 -66 q-52 -66 -52 -164 q0 -105 44 -166 q45 -62 125 -62 Z" /><glyph glyph-name="" unicode="r" d="M100 533 l48 0 l7 -99 l2 0 q61 113 151 113 q31 0 54 -12 l-12 -52 q-23 9 -49 9 q-90 0 -143 -134 l0 -358 l-58 0 l0 533 Z" /><glyph glyph-name="" unicode="s" d="M231 -13 q-108 0 -196 73 l31 42 q79 -67 168 -67 q58 0 91 30 q31 27 31 71 q0 68 -129 114 q-80 28 -113 53 q-54 39 -54 100 q0 61 46 101 q48 43 129 43 q84 0 155 -57 l-30 -40 q-64 48 -127 48 q-56 0 -87 -28 q-28 -25 -28 -64 q0 -39 39 -65 q22 -16 85 -39 q88 -33 117 -54 q55 -41 55 -109 q0 -64 -47 -107 q-51 -45 -136 -45 Z" /><glyph glyph-name="" unicode="t" d="M250 -13 q-137 0 -137 165 l0 332 l-83 0 l0 44 l85 5 l7 154 l49 0 l0 -154 l153 0 l0 -49 l-153 0 l0 -336 q0 -111 89 -111 q29 0 65 15 l14 -45 q-56 -20 -89 -20 Z" /><glyph glyph-name="" unicode="u" d="M253 -13 q-161 0 -161 205 l0 341 l58 0 l0 -334 q0 -160 116 -160 q79 0 166 104 l0 390 l58 0 l0 -533 l-49 0 l-5 88 l-3 0 q-88 -101 -180 -101 Z" /><glyph glyph-name="" unicode="v" d="M13 533 l63 0 l115 -327 q32 -99 53 -154 l4 0 q35 97 53 154 l116 327 l59 0 l-196 -533 l-69 0 l-198 533 Z" /><glyph glyph-name="" unicode="w" d="M26 533 l62 0 l93 -336 l34 -145 l5 0 q8 28 38 145 l95 336 l64 0 l95 -336 q23 -90 39 -145 l4 0 l37 145 l91 336 l57 0 l-150 -533 l-75 0 l-90 321 q-8 27 -20 76 q-13 52 -20 77 l-5 0 q-22 -96 -41 -155 l-87 -319 l-70 0 l-156 533 Z" /><glyph glyph-name="" unicode="x" d="M195 279 l-165 254 l64 0 l82 -131 q25 -41 57 -88 l4 0 l132 219 l61 0 l-165 -260 l180 -273 l-65 0 l-91 141 q-26 48 -61 97 l-5 0 l-146 -238 l-62 0 l180 279 Z" /><glyph glyph-name="" unicode="y" d="M85 -240 q-33 0 -57 11 l13 49 q22 -8 43 -8 q87 0 133 135 l14 45 l-218 541 l63 0 l180 -476 l5 0 l48 150 l109 326 l59 0 l-208 -595 q-62 -178 -184 -178 Z" /><glyph glyph-name="" unicode="z" d="M32 31 l307 453 l-274 0 l0 49 l349 0 l0 -31 l-307 -452 l317 0 l0 -50 l-392 0 l0 31 Z" /><glyph glyph-name="" unicode="&#x3001;" d="M284 -48 q-106 130 -225 224 l41 37 q106 -84 229 -223 l-45 -38 Z" /><glyph glyph-name="" unicode="&#x3002;" d="M195 242 q61 0 103 -43 q43 -43 43 -104 q0 -61 -43 -104 q-42 -43 -103 -43 q-61 0 -104 43 q-43 43 -43 104 q0 61 43 104 q43 43 104 43 ZM195 -13 q45 0 77 32 q31 31 31 76 q0 44 -31 76 q-32 32 -77 32 q-45 0 -76 -32 q-32 -32 -32 -76 q0 -45 32 -76 q31 -32 76 -32 Z" /><glyph glyph-name="" unicode="&#x2f00;&#x4e00;" d="M955 417 l0 -53 l-906 0 l0 53 l906 0 Z" /><glyph glyph-name="" unicode="&#x4e09;" d="M877 735 l0 -48 l-750 0 l0 48 l750 0 ZM799 407 l0 -48 l-612 0 l0 48 l612 0 ZM932 55 l0 -48 l-864 0 l0 48 l864 0 Z" /><glyph glyph-name="" unicode="&#x4e0a;" d="M944 22 l0 -48 l-887 0 l0 48 l384 0 l0 794 l50 0 l0 -320 l385 0 l0 -47 l-385 0 l0 -427 l453 0 Z" /><glyph glyph-name="" unicode="&#x4e0b;" d="M506 711 l0 -192 l10 12 q217 -104 365 -212 l-31 -42 q-142 105 -344 207 l0 -556 l-50 0 l0 783 l-397 0 l0 48 l883 0 l0 -48 l-436 0 Z" /><glyph glyph-name="" unicode="&#x4e0d;&#xf967;" d="M603 712 q-28 -50 -79 -122 l0 -662 l-50 0 l0 600 q-167 -200 -389 -319 q-19 26 -32 39 q323 169 491 464 l-470 0 l0 48 l853 0 l0 -48 l-324 0 ZM600 526 q232 -142 350 -261 l-36 -36 q-123 126 -348 266 l34 31 Z" /><glyph glyph-name="" unicode="&#x4e0e;" d="M684 178 l-620 0 l0 46 l620 0 l0 -46 ZM875 432 q-1 -18 -2 -25 q-41 -384 -103 -442 q-25 -24 -79 -27 q-68 -2 -174 7 q-2 26 -17 46 q77 -7 179 -7 q38 0 51 11 q55 46 92 392 l-652 0 q47 160 99 421 l47 -6 q-4 -23 -25 -117 l576 0 l0 -47 l-586 0 q-27 -125 -49 -206 l643 0 Z" /><glyph glyph-name="" unicode="&#x4e14;" d="M267 18 l472 0 l0 205 l-472 0 l0 -205 ZM267 725 l0 -202 l472 0 l0 202 l-472 0 ZM739 478 l-472 0 l0 -209 l472 0 l0 209 ZM943 18 l0 -47 l-885 0 l0 47 l162 0 l0 754 l568 0 l0 -754 l155 0 Z" /><glyph glyph-name="" unicode="&#x4e24;" d="M602 552 l0 161 l-211 0 l0 -161 l211 0 ZM649 552 l245 0 l0 -553 q0 -52 -39 -64 q-35 -9 -181 -9 q-3 20 -18 51 q53 -2 166 -2 q25 1 25 24 l0 507 l-200 0 q-4 -63 -12 -105 q121 -142 178 -248 l-32 -36 q-45 90 -156 232 q-40 -161 -146 -267 q-17 21 -35 33 q143 139 156 391 l-211 0 q-3 -53 -12 -106 q78 -100 111 -165 l-31 -39 q-25 55 -91 149 q-42 -159 -145 -263 q-13 18 -35 33 q143 139 155 391 l-185 0 l0 -580 l-47 0 l0 626 l234 0 l0 161 l-280 0 l0 47 l874 0 l0 -47 l-288 0 l0 -161 Z" /><glyph glyph-name="" unicode="&#x4e2a;" d="M476 556 l48 0 l0 -629 l-48 0 l0 629 ZM553 813 q-10 -19 -26 -41 q151 -205 433 -351 q-19 -13 -35 -41 q-270 149 -425 355 q-167 -227 -420 -354 q-21 30 -36 41 q306 143 467 411 l42 -20 Z" /><glyph glyph-name="" unicode="&#x4e2d;" d="M845 309 l0 295 l-323 0 l0 -295 l323 0 ZM473 309 l0 295 l-323 0 l0 -295 l323 0 ZM894 651 l0 -450 l-49 0 l0 61 l-323 0 l0 -334 l-49 0 l0 334 l-323 0 l0 -66 l-47 0 l0 455 l370 0 l0 181 l49 0 l0 -181 l372 0 Z" /><glyph glyph-name="" unicode="&#x4e32;&#xf905;" d="M840 143 l0 174 l-318 0 l0 -174 l318 0 ZM473 143 l0 174 l-311 0 l0 -174 l311 0 ZM473 503 l0 167 l-272 0 l0 -167 l272 0 ZM522 670 l0 -167 l273 0 l0 167 l-273 0 ZM890 362 l0 -305 l-50 0 l0 42 l-318 0 l0 -171 l-49 0 l0 171 l-311 0 l0 -44 l-48 0 l0 307 l359 0 l0 97 l-321 0 l0 255 l321 0 l0 119 l49 0 l0 -119 l323 0 l0 -255 l-323 0 l0 -97 l368 0 Z" /><glyph glyph-name="" unicode="&#x4e34;" d="M99 706 l46 0 l0 -639 l-46 0 l0 639 ZM261 819 l47 0 l0 -886 l-47 0 l0 886 ZM475 332 l0 -302 l172 0 l0 302 l-172 0 ZM866 332 l-173 0 l0 -302 l173 0 l0 302 ZM428 378 l487 0 l0 -446 l-49 0 l0 52 l-391 0 l0 -57 l-47 0 l0 451 ZM750 427 q-64 70 -167 156 l31 28 q117 -94 169 -150 l-33 -34 ZM947 711 l0 -46 l-429 0 q-56 -125 -123 -206 q-16 14 -44 27 q118 124 180 351 l47 -9 q-15 -50 -40 -117 l409 0 Z" /><glyph glyph-name="" unicode="&#x4e3a;" d="M291 634 q-38 69 -112 150 l40 20 q76 -79 114 -146 l-42 -24 ZM891 561 q-22 -540 -71 -593 q-24 -28 -72 -31 q-55 -2 -159 5 q0 25 -16 49 q70 -7 159 -7 q32 -1 44 14 q45 44 65 543 l-375 0 q-43 -385 -369 -603 q-11 17 -37 34 q313 209 358 569 l-329 0 l0 48 l333 0 q5 59 5 134 l0 108 l48 0 l0 -108 q0 -71 -4 -134 l420 0 l0 -28 ZM657 179 q-46 89 -149 201 l39 21 q107 -113 151 -197 l-41 -25 Z" /><glyph glyph-name="" unicode="&#x4e48;" d="M505 799 q-161 -248 -398 -432 q-22 24 -35 35 q244 180 385 416 l48 -19 ZM892 -64 q-38 68 -69 113 q-668 -58 -695 -67 q-8 24 -21 50 q34 8 132 99 q212 185 424 477 l49 -23 q-259 -340 -501 -541 l582 49 q-80 112 -159 202 l41 21 q180 -199 260 -354 l-43 -26 Z" /><glyph glyph-name="" unicode="&#x4e49;" d="M527 580 q-27 97 -96 239 l40 18 q69 -141 98 -237 l-42 -20 ZM848 743 q-114 -319 -312 -520 q187 -178 416 -255 q-19 -17 -33 -42 q-234 84 -419 263 q-175 -164 -430 -259 q-9 21 -27 39 q252 91 425 253 q-197 204 -311 493 l43 13 q107 -273 303 -472 q194 197 297 503 l48 -16 Z" /><glyph glyph-name="" unicode="&#x4e4b;" d="M532 646 q-30 68 -103 167 l41 20 q78 -101 107 -164 l-45 -23 ZM846 607 q-207 -312 -560 -518 q19 -16 44 -32 q74 -47 256 -47 q197 0 369 16 q-13 -29 -15 -54 q-152 -10 -354 -10 q-190 0 -270 53 q-88 58 -91 58 q-40 0 -133 -121 l-37 43 q113 124 171 124 q8 0 17 -3 q312 175 523 464 l-659 0 l0 47 l694 0 l10 4 l35 -24 Z" /><glyph glyph-name="" unicode="&#x4e5f;" d="M777 -8 q70 0 93 38 q20 33 30 151 q21 -15 46 -20 q-11 -127 -40 -167 q-34 -47 -133 -47 l-373 0 q-101 0 -136 27 q-38 29 -38 111 l0 341 l-176 -54 l-13 43 l189 57 l0 293 l47 0 l0 -279 l239 74 l0 271 l47 0 l0 -257 l260 79 l16 13 l34 -16 l-3 -10 q-5 -291 -35 -371 q-24 -62 -79 -67 q-61 -4 -114 -1 q-2 26 -13 46 q39 -3 109 -3 q40 0 57 48 q24 65 27 315 l-259 -80 l0 -393 l-47 0 l0 379 l-239 -73 l0 -358 q0 -53 24 -71 q24 -19 97 -19 l383 0 Z" /><glyph glyph-name="" unicode="&#x4e60;" d="M724 274 q-258 -89 -594 -202 l-17 49 q177 56 602 198 l9 -45 ZM271 603 q182 -119 277 -206 l-35 -38 q-87 87 -274 213 l32 31 ZM876 721 q-9 -695 -51 -751 q-25 -33 -70 -36 q-47 -3 -149 3 q-2 28 -15 47 q67 -5 151 -5 q26 -2 39 15 q39 45 48 712 l-703 0 l0 45 l750 0 l0 -30 Z" /><glyph glyph-name="" unicode="&#x4e66;" d="M912 623 q-62 62 -177 140 l30 31 q114 -76 178 -135 l-31 -36 ZM486 384 l258 0 l0 222 l-258 0 l0 -222 ZM936 384 l-2 -25 q-21 -268 -58 -303 q-20 -22 -65 -23 q-37 -3 -148 3 q-3 26 -17 47 q65 -7 150 -7 q30 0 41 9 q29 26 47 253 l-398 0 l0 -412 l-48 0 l0 412 l-374 0 l0 46 l374 0 l0 222 l-302 0 l0 47 l302 0 l0 176 l48 0 l0 -176 l305 0 l0 -269 l145 0 Z" /><glyph glyph-name="" unicode="&#x4e86;" d="M880 726 q-135 -149 -353 -264 l0 -462 q0 -53 -44 -64 q-32 -9 -201 -9 q-4 18 -20 49 q121 -4 188 -1 q28 1 28 25 l0 486 q171 82 308 216 l-686 0 l0 47 l732 0 l11 3 l37 -26 Z" /><glyph glyph-name="" unicode="&#x4e88;" d="M945 450 q-120 -170 -190 -234 l-39 25 q75 71 147 178 l-333 0 l0 -420 q0 -48 -39 -59 q-29 -8 -173 -8 q-4 18 -18 46 q105 -3 158 0 q23 1 23 21 l0 420 l-422 0 l0 46 l549 0 q-151 83 -323 161 l27 34 q58 -25 194 -90 q126 69 231 164 l-586 0 l0 46 l633 0 l12 3 l35 -26 q-107 -109 -277 -211 q36 -17 121 -62 l-13 -19 l235 0 l10 3 l38 -18 Z" /><glyph glyph-name="" unicode="&#x2f06;&#x4e8c;" d="M856 687 l0 -50 l-711 0 l0 50 l711 0 ZM942 87 l0 -51 l-883 0 l0 51 l883 0 Z" /><glyph glyph-name="" unicode="&#x4e8e;" d="M942 380 l-409 0 l0 -370 q0 -56 -45 -69 q-36 -11 -196 -9 q-7 23 -21 50 q138 -3 183 -1 q30 1 30 28 l0 371 l-425 0 l0 47 l425 0 l0 283 l-356 0 l0 47 l744 0 l0 -47 l-339 0 l0 -283 l409 0 l0 -47 Z" /><glyph glyph-name="" unicode="&#x4e9b;" d="M662 341 q-62 0 -84 18 q-22 18 -22 69 l0 404 l48 0 l0 -211 q168 58 247 112 l41 -36 q-105 -59 -288 -121 l0 -149 q0 -24 11 -32 q11 -8 48 -8 l186 0 q33 0 43 26 q9 24 13 112 q16 -13 45 -21 q-5 -98 -23 -129 q-20 -34 -76 -34 l-189 0 ZM174 224 l667 0 l0 -47 l-667 0 l0 47 ZM501 372 q-315 -43 -445 -60 l-7 48 l72 8 l0 351 l46 0 l0 -345 l107 13 l0 445 l48 0 l0 -183 l172 0 l0 -45 l-172 0 l0 -210 l178 23 l1 -45 ZM63 1 l875 0 l0 -47 l-875 0 l0 47 Z" /><glyph glyph-name="" unicode="&#x4ec0;&#xf9fd;" d="M357 816 q-41 -104 -106 -215 l0 -673 l-47 0 l0 599 q-66 -97 -129 -161 q-16 29 -31 44 q169 163 268 419 l45 -13 ZM950 432 l-283 0 l0 -505 l-49 0 l0 505 l-293 0 l0 47 l293 0 l0 346 l49 0 l0 -346 l283 0 l0 -47 Z" /><glyph glyph-name="" unicode="&#x4ecd;" d="M287 814 q-33 -105 -80 -202 l0 -686 l-46 0 l0 598 q-44 -78 -99 -146 q-7 16 -29 45 q133 155 209 403 l45 -12 ZM910 466 q0 -20 -1 -26 q-24 -433 -70 -480 q-20 -24 -67 -27 q-65 -2 -153 5 q-4 29 -16 46 q79 -7 154 -7 q30 0 42 13 q41 38 62 430 l-189 0 q30 119 60 293 l-232 0 q-5 -271 -39 -430 q-51 -242 -180 -359 q-11 13 -39 31 q200 173 211 758 l-133 0 l0 45 l467 0 q-25 -142 -57 -292 l180 0 Z" /><glyph glyph-name="" unicode="&#x4ece;" d="M465 162 q-48 105 -170 273 q-51 -336 -197 -509 q-14 14 -45 32 q116 125 169 352 q41 177 57 495 l51 -3 q-10 -176 -26 -304 q143 -181 198 -303 l-37 -33 ZM711 804 q-15 -203 -37 -331 q72 -359 274 -496 q-23 -23 -34 -41 q-177 132 -260 439 q-68 -293 -238 -444 q-16 14 -45 32 q146 120 213 341 q55 180 76 503 l51 -3 Z" /><glyph glyph-name="" unicode="&#x4ed6;" d="M327 816 q-45 -113 -107 -218 l0 -670 l-47 0 l0 597 q-58 -86 -121 -150 q-7 18 -29 42 q163 158 260 412 l44 -13 ZM827 -17 q46 0 61 30 q14 27 21 120 q21 -16 46 -21 q-9 -103 -30 -136 q-26 -37 -99 -37 l-286 0 q-81 0 -109 23 q-29 24 -29 94 l0 354 l-111 -43 l-18 43 l129 50 l0 280 l47 0 l0 -262 l177 68 l0 286 l46 0 l0 -268 l187 73 l18 15 l33 -14 l-3 -10 q0 -332 -15 -386 q-12 -56 -61 -61 q-34 -5 -95 -3 q-4 27 -14 45 q16 -1 86 -1 q31 0 40 34 q14 48 14 332 l-190 -73 l0 -374 l-46 0 l0 355 l-177 -68 l0 -373 q0 -43 17 -57 q18 -15 72 -15 l289 0 Z" /><glyph glyph-name="" unicode="&#x4ee3;" d="M889 616 q-69 82 -176 164 l33 23 q116 -86 180 -161 l-37 -26 ZM376 806 q-51 -113 -116 -212 l0 -666 l-49 0 l0 598 q-77 -101 -152 -166 q-15 29 -30 43 q193 161 302 418 l45 -15 ZM634 480 q64 -485 235 -499 q44 -1 62 182 q18 -15 41 -23 q-27 -217 -101 -214 q-215 13 -284 548 l-265 -32 l-7 45 l268 32 q-16 147 -23 300 l48 0 q6 -158 21 -294 l310 37 l8 -44 l-313 -38 Z" /><glyph glyph-name="" unicode="&#x4ee5;" d="M538 484 q-48 108 -154 240 l41 21 q106 -128 156 -236 l-43 -25 ZM477 247 q0 2 13 -43 q-313 -141 -344 -167 q-7 18 -27 41 q52 29 52 77 l0 595 l50 0 l0 -617 l256 114 ZM822 793 q-24 -389 -111 -568 q165 -150 244 -266 l-41 -31 q-72 111 -224 256 q-98 -171 -312 -265 q-11 20 -35 42 q236 92 330 295 q79 171 99 540 l50 -3 Z" /><glyph glyph-name="" unicode="&#x4eec;" d="M284 814 q-30 -107 -76 -214 l0 -673 l-46 0 l0 575 q-40 -76 -87 -141 q-17 28 -31 45 q123 156 195 420 l45 -12 ZM352 643 l47 0 l0 -717 l-47 0 l0 717 ZM432 831 q80 -107 118 -193 l-41 -22 q-36 82 -115 197 l38 18 ZM914 0 q0 -50 -36 -62 q-27 -9 -155 -9 q-3 23 -18 48 q92 -3 138 0 q23 1 23 24 l0 748 l-288 0 l0 45 l336 0 l0 -794 Z" /><glyph glyph-name="" unicode="&#x4ef6;" d="M330 816 q-46 -120 -101 -219 l0 -669 l-47 0 l0 590 q-50 -79 -110 -144 q-18 29 -30 43 q153 159 242 412 l46 -13 ZM943 279 l-281 0 l0 -353 l-48 0 l0 353 l-297 0 l0 47 l297 0 l0 249 l-179 0 q-39 -107 -79 -166 q-15 13 -41 27 q87 117 126 350 l46 -9 q-15 -80 -38 -155 l165 0 l0 199 l48 0 l0 -199 l240 0 l0 -47 l-240 0 l0 -249 l281 0 l0 -47 Z" /><glyph glyph-name="" unicode="&#x4f1a;" d="M91 327 l824 0 l0 -47 l-450 0 q-119 -162 -230 -266 l516 45 q-66 79 -132 139 l40 21 q155 -138 230 -264 l-43 -27 q-22 37 -60 87 q-599 -53 -629 -64 q-9 34 -17 52 q23 4 73 54 q82 73 187 223 l-309 0 l0 47 ZM743 518 l0 -45 l-481 0 l0 45 l481 0 ZM558 810 l-27 -37 q168 -191 423 -283 q-16 -16 -34 -43 q-245 98 -417 291 q-153 -182 -415 -303 q-16 24 -36 39 q326 146 457 356 l49 -20 Z" /><glyph glyph-name="" unicode="&#x4f20;" d="M328 816 q-43 -111 -108 -220 l0 -668 l-47 0 l0 595 q-62 -91 -121 -149 q-9 22 -30 43 q165 158 260 412 l46 -13 ZM536 475 q-14 -47 -43 -139 l340 0 l8 3 l35 -21 q-112 -133 -220 -254 q69 -54 115 -100 l-37 -36 q-96 103 -253 204 l36 30 q79 -53 103 -71 q85 94 172 199 l-366 0 q30 84 62 185 l-197 0 l0 46 l210 0 q33 111 42 144 l-196 0 l0 45 l208 0 q22 79 32 121 l47 -7 q-3 -14 -31 -114 l301 0 l0 -45 l-314 0 q-18 -72 -41 -144 l397 0 l0 -46 l-410 0 Z" /><glyph glyph-name="" unicode="&#x4f46;" d="M819 711 l-375 0 l0 -226 l375 0 l0 226 ZM819 440 l-375 0 l0 -231 l375 0 l0 231 ZM869 163 l-473 0 l0 594 l473 0 l0 -594 ZM341 815 q-40 -106 -108 -218 l0 -669 l-48 0 l0 594 q-60 -88 -122 -149 q-9 25 -30 44 q165 159 262 412 l46 -14 ZM961 17 l0 -46 l-658 0 l0 46 l658 0 Z" /><glyph glyph-name="" unicode="&#x4f4d;" d="M629 664 q-13 59 -48 159 l44 13 q41 -116 50 -158 l-46 -14 ZM907 597 l-534 0 l0 47 l534 0 l0 -47 ZM517 73 q-20 211 -74 436 l44 9 q57 -233 78 -431 l-48 -14 ZM349 816 q-41 -106 -107 -217 l0 -671 l-48 0 l0 595 q-62 -91 -121 -149 q-10 25 -30 43 q166 161 260 412 l46 -13 ZM952 15 l0 -46 l-626 0 l0 46 l353 0 q59 206 105 514 l50 -10 q-51 -295 -109 -504 l227 0 Z" /><glyph glyph-name="" unicode="&#x4f53;" d="M314 817 q-38 -111 -95 -223 l0 -666 l-46 0 l0 585 q-43 -71 -100 -139 q-8 16 -30 43 q141 156 226 412 l45 -12 ZM676 571 q104 -300 286 -434 q-14 -12 -37 -39 q-181 148 -289 463 l0 -393 l176 0 l0 -45 l-176 0 l0 -192 l-47 0 l0 192 l-184 0 l0 45 l184 0 l0 392 q-112 -314 -294 -464 q-13 20 -35 35 q179 137 291 440 l-261 0 l0 46 l299 0 l0 214 l47 0 l0 -214 l312 0 l0 -46 l-272 0 Z" /><glyph glyph-name="" unicode="&#x4f5c;" d="M352 815 q-46 -116 -107 -218 l0 -669 l-49 0 l0 592 q-62 -88 -120 -146 q-14 28 -30 44 q163 156 260 411 l46 -14 ZM629 617 l0 -168 l304 0 l0 -45 l-304 0 l0 -175 l318 0 l0 -46 l-318 0 l0 -256 l-48 0 l0 690 l-87 0 q-69 -129 -149 -218 q-25 22 -38 31 q139 146 225 389 l45 -12 q-30 -83 -61 -144 l437 0 l0 -46 l-324 0 Z" /><glyph glyph-name="" unicode="&#x4f60;" d="M327 816 q-45 -114 -108 -220 l0 -668 l-46 0 l0 596 q-56 -84 -122 -150 q-9 23 -29 43 q163 158 260 412 l45 -13 ZM511 408 q-54 -213 -152 -345 q-13 10 -42 27 q94 116 147 327 l47 -9 ZM672 587 l0 -595 q0 -45 -30 -57 q-26 -9 -124 -9 q-5 23 -17 49 q70 -3 107 0 q17 0 17 17 l0 595 l-175 0 q-40 -102 -98 -184 q-34 26 -40 29 q106 139 162 396 l47 -10 q-20 -89 -54 -185 l442 0 l10 2 l31 -10 q-23 -122 -44 -200 l-41 8 q18 77 29 154 l-222 0 ZM809 423 q103 -183 134 -341 l-46 -15 q-29 158 -130 342 l42 14 Z" /><glyph glyph-name="" unicode="&#x4f7f;" d="M336 821 q-42 -107 -107 -216 l0 -683 l-46 0 l0 612 q-60 -86 -125 -151 q-14 23 -31 44 q167 156 265 408 l44 -14 ZM606 332 q1 22 1 66 l0 114 l-213 0 l0 -180 l212 0 ZM654 512 l0 -114 q0 -44 -1 -66 l220 0 l0 180 l-219 0 ZM649 289 q-12 -124 -72 -203 q155 -90 385 -118 q-13 -13 -30 -45 q-228 34 -384 129 q-82 -84 -238 -130 q-16 28 -28 39 q151 41 227 117 q-102 71 -158 170 l41 16 q50 -87 146 -152 q53 70 65 177 l-254 0 l0 266 l258 0 l0 114 l-292 0 l0 45 l292 0 l0 116 l47 0 l0 -116 l301 0 l0 -45 l-301 0 l0 -114 l265 0 l0 -266 l-270 0 Z" /><glyph glyph-name="" unicode="&#x4f8b;" d="M277 820 q-31 -108 -72 -201 l0 -690 l-46 0 l0 595 q-39 -74 -88 -137 q-12 27 -28 46 q120 144 189 399 l45 -12 ZM299 772 l350 0 l0 -46 l-177 0 q-16 -82 -43 -176 l152 0 l9 2 l29 -8 q-53 -459 -299 -620 q-14 25 -33 37 q120 72 197 240 q-47 49 -121 101 l27 35 q73 -52 115 -90 q45 121 65 258 l-156 0 q-48 -142 -113 -236 q-11 13 -39 29 q106 143 164 428 l-127 0 l0 46 ZM747 163 l-44 0 l0 548 l44 0 l0 -548 ZM914 831 l0 -827 q0 -49 -34 -60 q-28 -11 -142 -9 q-6 24 -17 47 q30 -1 126 -1 q22 1 22 22 l0 828 l45 0 Z" /><glyph glyph-name="" unicode="&#x4f9b;" d="M331 816 q-46 -116 -107 -219 l0 -669 l-48 0 l0 594 q-63 -91 -120 -148 q-12 26 -30 44 q164 159 260 411 l45 -13 ZM535 161 q-74 -133 -187 -233 q-12 13 -40 32 q113 88 181 215 l46 -14 ZM757 171 q124 -118 183 -219 l-40 -27 q-61 107 -180 224 l37 22 ZM519 288 l224 0 l0 273 l-224 0 l0 -273 ZM954 288 l0 -47 l-648 0 l0 47 l166 0 l0 273 l-140 0 l0 47 l140 0 l0 212 l47 0 l0 -212 l224 0 l0 212 l47 0 l0 -212 l151 0 l0 -47 l-151 0 l0 -273 l164 0 Z" /><glyph glyph-name="" unicode="&#x4fbf;&#xf965;" d="M317 817 q-40 -116 -98 -227 l0 -662 l-46 0 l0 581 q-48 -78 -98 -135 q-8 16 -30 43 q142 158 227 412 l45 -12 ZM611 304 q1 21 1 63 l0 60 l-208 0 l0 -123 l207 0 ZM404 466 l208 0 l0 121 l-208 0 l0 -121 ZM659 587 l0 -121 l195 0 l0 121 l-195 0 ZM854 427 l-195 0 l0 -59 q0 -42 -2 -64 l197 0 l0 123 ZM653 263 q-15 -120 -85 -196 q151 -72 391 -91 q-18 -18 -29 -44 q-242 24 -396 103 q-87 -72 -240 -113 q-10 24 -28 40 q146 35 225 97 q-102 63 -156 156 l41 16 q50 -85 151 -142 q64 66 80 174 l-249 0 l0 365 l254 0 l0 99 l-289 0 l0 44 l619 0 l0 -44 l-283 0 l0 -99 l242 0 l0 -365 l-248 0 Z" /><glyph glyph-name="" unicode="&#x5019;" d="M945 550 l-554 0 l0 44 l380 0 q15 85 23 144 l-341 0 l0 43 l352 0 l9 3 l32 -5 q-11 -95 -27 -185 l126 0 l0 -44 ZM289 813 q-35 -118 -87 -230 l0 -658 l-46 0 l0 567 q-34 -64 -85 -131 q-11 23 -30 45 q128 156 204 420 l44 -13 ZM300 608 l43 0 l0 -488 l-43 0 l0 488 ZM699 195 q54 -169 256 -222 q-19 -17 -31 -41 q-184 53 -253 218 q-51 -146 -270 -225 q-11 21 -31 37 q233 77 266 233 l-243 0 l0 44 l249 0 q1 11 1 31 l0 120 l-130 0 q-40 -73 -81 -120 q-15 13 -39 27 q87 91 129 241 l46 -10 q-16 -51 -35 -95 l375 0 l0 -43 l-219 0 l0 -120 q0 -20 -1 -31 l256 0 l0 -44 l-245 0 Z" /><glyph glyph-name="" unicode="&#x503c;" d="M325 819 q-45 -124 -107 -233 l0 -659 l-46 0 l0 583 q-47 -73 -102 -133 q-5 11 -29 44 q152 159 240 412 l44 -14 ZM430 6 l379 0 l0 98 l-379 0 l0 -98 ZM430 530 l0 -101 l379 0 l0 101 l-379 0 ZM809 389 l-379 0 l0 -103 l379 0 l0 103 ZM430 144 l379 0 l0 103 l-379 0 l0 -103 ZM951 6 l0 -44 l-667 0 l0 44 l101 0 l0 565 l172 0 q9 33 24 109 l-255 0 l0 44 l263 0 q11 63 17 110 l52 -6 q-11 -61 -21 -104 l280 0 l0 -44 l-289 0 q-19 -86 -26 -109 l252 0 l0 -565 l97 0 Z" /><glyph glyph-name="" unicode="&#x505a;" d="M292 814 q-31 -93 -80 -197 l0 -691 l-46 0 l0 604 q-54 -95 -114 -166 q-21 35 -29 44 q140 159 224 418 l45 -12 ZM346 336 l0 -255 l196 0 l0 255 l-196 0 ZM346 37 l0 -63 l-44 0 l0 406 l120 0 l0 206 l-153 0 l0 45 l153 0 l0 191 l46 0 l0 -191 l145 0 l0 -45 l-145 0 l0 -206 l119 0 l0 -343 l-241 0 ZM688 577 q23 -222 81 -362 q66 140 93 375 l-170 0 l-4 -13 ZM907 590 q-33 -271 -114 -426 q68 -134 175 -201 q-21 -19 -32 -39 q-103 71 -170 195 q-75 -119 -200 -196 q-16 22 -33 35 q136 78 211 208 q-60 136 -85 328 q-27 -68 -56 -116 q-18 21 -37 31 q90 141 134 424 l44 -7 q-14 -88 -40 -192 l249 0 l0 -44 l-46 0 Z" /><glyph glyph-name="" unicode="&#x50a8;" d="M409 613 q-38 67 -111 140 l34 24 q83 -81 113 -135 l-36 -29 ZM277 822 q-27 -95 -79 -214 l0 -679 l-44 0 l0 590 q-42 -82 -94 -149 q-11 22 -29 42 q129 159 203 421 l43 -11 ZM508 122 q6 -24 13 -41 q-157 -100 -171 -117 q-7 19 -25 44 q30 16 30 66 l0 389 l-107 0 l0 46 l152 0 l0 -452 l108 65 ZM860 315 l-249 0 l0 -119 l249 0 l0 119 ZM860 30 l0 125 l-249 0 l0 -125 l249 0 ZM741 475 q-62 -70 -118 -117 l281 0 l0 -423 l-44 0 l0 53 l-249 0 l0 -57 l-43 0 l0 382 q-53 -39 -92 -64 q-16 23 -32 39 q126 71 237 187 l-203 0 l0 45 l171 0 l0 147 l-146 0 l0 43 l146 0 l0 123 l45 0 l0 -123 l132 0 l0 -43 l-132 0 l0 -147 l28 0 q107 122 174 270 l44 -13 q-64 -138 -161 -257 l172 0 l0 -45 l-210 0 Z" /><glyph glyph-name="" unicode="&#x5141;" d="M852 -9 q36 0 46 34 q10 33 14 157 q20 -15 46 -21 q-5 -132 -24 -173 q-20 -44 -80 -44 l-167 0 q-59 0 -80 18 q-21 18 -21 71 l0 409 l-177 -15 q-12 -224 -72 -326 q-73 -124 -266 -178 q-11 22 -29 40 q184 48 252 161 q55 91 66 299 q-180 -15 -203 -24 q-9 31 -17 49 q23 5 78 68 q126 136 229 322 l49 -21 q-134 -215 -268 -357 l520 38 q-70 93 -143 179 l38 22 q156 -182 241 -303 l-43 -29 q-21 34 -62 89 l-145 -11 l0 -413 q0 -26 10 -33 q11 -8 45 -8 l163 0 Z" /><glyph glyph-name="" unicode="&#x5143;" d="M856 703 l-706 0 l0 47 l706 0 l0 -47 ZM849 -9 q33 0 43 33 q9 32 12 153 q22 -17 46 -22 q-5 -127 -22 -167 q-20 -43 -77 -43 l-158 0 q-57 0 -77 18 q-20 17 -20 68 l0 388 l-211 0 q-17 -191 -70 -294 q-69 -135 -225 -196 q-12 22 -31 36 q148 56 213 182 q48 95 63 272 l-270 0 l0 46 l872 0 l0 -46 l-293 0 l0 -388 q0 -24 10 -32 q10 -8 42 -8 l153 0 Z" /><glyph glyph-name="" unicode="&#x5145;" d="M524 675 q-24 58 -85 142 l44 17 q62 -85 88 -139 l-47 -20 ZM846 0 q32 0 41 29 q10 28 13 131 q18 -15 46 -23 q-5 -112 -23 -146 q-19 -37 -74 -37 l-166 0 q-58 0 -78 17 q-21 17 -21 65 l0 313 l-172 -10 q-16 -174 -77 -262 q-72 -103 -239 -151 q-11 22 -30 41 q159 42 225 134 q55 78 69 235 q-186 -11 -209 -20 q-10 34 -17 51 q21 2 69 49 q87 84 172 204 l-305 0 l0 47 l862 0 l0 -47 l-493 0 q-110 -150 -213 -244 l536 28 q-76 73 -160 136 l37 24 q170 -124 266 -242 l-40 -28 q-21 27 -61 68 l-171 -10 l0 -316 q0 -22 10 -29 q10 -7 43 -7 l160 0 Z" /><glyph glyph-name="" unicode="&#x2f0a;&#x5165;" d="M339 802 q153 -108 300 -417 q140 -294 315 -395 q-20 -28 -24 -52 q-152 85 -256 269 q-31 53 -82 161 q-52 110 -81 162 q-113 -423 -419 -599 q-18 18 -44 38 q321 171 425 623 q-73 107 -163 170 l29 40 Z" /><glyph glyph-name="" unicode="&#x5168;" d="M524 2 l402 0 l0 -45 l-850 0 l0 45 l399 0 l0 190 l-274 0 l0 44 l274 0 l0 180 l-276 0 l0 45 l608 0 l0 -45 l-283 0 l0 -180 l288 0 l0 -44 l-288 0 l0 -190 ZM543 825 q-9 -14 -17 -25 q163 -200 443 -361 q-25 -19 -34 -40 q-265 164 -435 364 q-174 -230 -433 -360 q-13 23 -34 37 q308 147 467 404 l43 -19 Z" /><glyph glyph-name="" unicode="&#x516d;" d="M939 560 l0 -49 l-875 0 l0 49 l875 0 ZM371 362 q-118 -251 -274 -431 q-15 15 -46 35 q158 167 269 413 l51 -17 ZM667 388 q194 -269 281 -423 l-47 -26 q-91 169 -278 428 l44 21 ZM468 827 q69 -141 96 -210 l-50 -20 q-35 98 -94 214 l48 16 Z" /><glyph glyph-name="" unicode="&#x5171;" d="M393 166 q-110 -139 -287 -240 q-26 26 -36 35 q185 102 274 223 l49 -18 ZM636 184 q180 -126 287 -225 l-43 -31 q-105 102 -283 231 l39 25 ZM342 301 l317 0 l0 262 l-317 0 l0 -262 ZM953 301 l0 -47 l-901 0 l0 47 l241 0 l0 262 l-197 0 l0 47 l197 0 l0 213 l49 0 l0 -213 l317 0 l0 213 l49 0 l0 -213 l206 0 l0 -47 l-206 0 l0 -262 l245 0 Z" /><glyph glyph-name="" unicode="&#x5173;" d="M337 627 q-30 80 -100 171 l39 21 q71 -86 103 -168 l-42 -24 ZM544 315 q116 -260 403 -337 q-18 -18 -33 -44 q-283 88 -407 354 q-64 -229 -413 -361 q-14 23 -34 42 q348 126 401 346 l-387 0 l0 47 l396 0 q5 36 5 85 l0 119 l-345 0 l0 48 l475 0 q70 100 118 214 l50 -20 q-70 -129 -116 -194 l218 0 l0 -48 l-349 0 l0 -120 q0 -45 -4 -84 l408 0 l0 -47 l-386 0 Z" /><glyph glyph-name="" unicode="&#x5176;" d="M298 185 l405 0 l0 132 l-405 0 l0 -132 ZM298 660 l0 -122 l405 0 l0 122 l-405 0 ZM298 361 l405 0 l0 133 l-405 0 l0 -133 ZM942 140 l-883 0 l0 45 l191 0 l0 475 l-165 0 l0 45 l165 0 l0 126 l48 0 l0 -126 l405 0 l0 126 l48 0 l0 -126 l169 0 l0 -45 l-169 0 l0 -475 l191 0 l0 -45 ZM416 83 q-126 -82 -334 -154 q-11 20 -32 39 q206 62 319 144 l47 -29 ZM617 108 q180 -62 326 -142 l-39 -35 q-120 72 -318 145 l31 32 Z" /><glyph glyph-name="" unicode="&#x5177;" d="M262 196 l485 0 l0 110 l-485 0 l0 -110 ZM262 741 l0 -104 l485 0 l0 104 l-485 0 ZM262 452 l0 -106 l485 0 l0 106 l-485 0 ZM747 596 l-485 0 l0 -103 l485 0 l0 103 ZM945 151 l-887 0 l0 45 l157 0 l0 588 l581 0 l0 -588 l149 0 l0 -45 ZM384 103 q-117 -102 -301 -175 q-11 15 -34 35 q194 75 288 166 l47 -26 ZM650 130 q181 -81 298 -160 l-37 -37 q-113 79 -291 164 l30 33 Z" /><glyph glyph-name="" unicode="&#x5185;" d="M895 3 q0 -54 -39 -66 q-31 -9 -182 -9 q-4 22 -18 51 q106 -4 167 -1 q25 1 25 25 l0 609 l-324 0 q-4 -81 -21 -142 q200 -172 304 -297 l-40 -31 q-88 114 -277 283 q-65 -178 -261 -290 q-12 20 -33 35 q268 147 279 442 l-321 0 l0 -687 l-48 0 l0 734 l370 0 l0 173 l49 0 l0 -173 l370 0 l0 -656 Z" /><glyph glyph-name="" unicode="&#x518d;" d="M784 221 l0 150 l-264 0 l0 -150 l264 0 ZM215 221 l258 0 l0 150 l-258 0 l0 -150 ZM215 560 l0 -145 l258 0 l0 145 l-258 0 ZM520 560 l0 -145 l264 0 l0 145 l-264 0 ZM955 176 l-124 0 l0 -180 q0 -50 -37 -62 q-33 -9 -168 -9 q-7 26 -20 48 q103 -3 154 0 q24 1 24 23 l0 180 l-569 0 l0 -252 l-47 0 l0 252 l-121 0 l0 45 l121 0 l0 384 l305 0 l0 117 l-392 0 l0 46 l840 0 l0 -46 l-401 0 l0 -117 l311 0 l0 -384 l124 0 l0 -45 Z" /><glyph glyph-name="" unicode="&#x5199;" d="M813 378 q-1 -18 -3 -25 q-33 -334 -85 -387 q-26 -23 -73 -23 q-51 -3 -160 5 q-4 28 -17 45 q84 -7 164 -7 q35 0 45 10 q47 39 76 337 l-538 0 q33 108 89 370 l48 -4 l-13 -60 q-10 -43 -14 -64 l464 0 l0 -44 l-475 0 q-14 -72 -36 -153 l528 0 ZM668 157 l-573 0 l0 46 l573 0 l0 -46 ZM914 774 l0 -176 l-49 0 l0 130 l-731 0 l0 -130 l-47 0 l0 176 l827 0 Z" /><glyph glyph-name="" unicode="&#x51b3;" d="M214 576 q-47 86 -154 193 l38 23 q106 -104 156 -188 l-40 -28 ZM257 301 q-88 -193 -168 -329 l-41 30 q87 139 174 330 l35 -31 ZM619 508 q0 -86 -7 -143 l187 0 l0 258 l-180 0 l0 -115 ZM651 319 q78 -273 306 -350 q-21 -21 -33 -42 q-239 95 -319 392 q-48 -262 -322 -395 q-10 17 -32 38 q260 119 306 357 l-254 0 l0 46 l261 0 q7 57 7 142 l0 116 l-212 0 l0 46 l212 0 l0 161 l48 0 l0 -161 l226 0 l0 -304 l111 0 l0 -46 l-305 0 Z" /><glyph glyph-name="" unicode="&#x51fa;" d="M886 336 l0 -407 l-51 0 l0 59 l-718 0 l0 349 l52 0 l0 -302 l306 0 l0 371 l-317 0 l0 332 l49 0 l0 -285 l268 0 l0 378 l50 0 l0 -378 l271 0 l0 285 l50 0 l0 -332 l-321 0 l0 -371 l310 0 l0 301 l51 0 Z" /><glyph glyph-name="" unicode="&#x51fd;" d="M478 602 q121 54 226 139 l-520 0 l0 45 l571 0 l11 3 l33 -25 q-111 -103 -274 -183 l0 -153 q44 -33 59 -45 q102 103 166 200 l41 -21 q-96 -124 -178 -203 q132 -109 190 -176 l-31 -35 q-89 104 -247 228 l0 -225 q0 -41 -30 -52 q-23 -8 -132 -8 q-3 21 -16 45 q54 -2 113 -2 q18 1 18 18 l0 194 q-106 -78 -267 -187 l-26 40 q89 54 293 192 l0 211 ZM352 389 q-59 87 -141 158 l32 24 q95 -78 143 -152 l-34 -30 ZM905 615 l0 -687 l-47 0 l0 62 l-759 0 l0 625 l48 0 l0 -579 l711 0 l0 579 l47 0 Z" /><glyph glyph-name="" unicode="&#x5206;" d="M385 795 q-102 -251 -291 -400 q-19 22 -42 34 q190 138 284 380 l49 -14 ZM805 449 q0 -19 -1 -26 q-23 -413 -66 -460 q-23 -25 -70 -26 q-60 -4 -161 4 q-4 30 -17 48 q81 -8 161 -8 q32 0 44 12 q40 39 60 409 l-310 0 q-24 -177 -88 -282 q-84 -136 -257 -196 q-13 24 -30 38 q165 55 244 182 q60 95 81 258 l-211 0 l0 47 l621 0 ZM664 811 q107 -239 289 -368 q-19 -13 -39 -39 q-176 140 -293 389 l43 18 Z" /><glyph glyph-name="" unicode="&#x5212;" d="M464 635 q-54 68 -147 142 l33 25 q99 -73 148 -137 l-34 -30 ZM272 506 q22 -156 62 -283 q90 109 147 253 l45 -14 q-67 -162 -174 -289 q73 -197 148 -197 q36 0 44 161 q17 -17 41 -25 q-8 -105 -26 -144 q-19 -40 -61 -40 q-100 0 -180 206 q-106 -112 -238 -187 q-9 17 -34 38 q144 76 253 197 q-48 143 -74 319 l-176 -20 l-6 45 l177 20 q-18 136 -21 286 l49 0 q0 -138 18 -280 l328 38 l5 -46 l-327 -38 ZM709 175 l-47 0 l0 546 l47 0 l0 -546 ZM903 823 l0 -824 q0 -49 -37 -61 q-30 -10 -160 -10 q-2 16 -18 47 q98 -3 143 0 q25 1 25 24 l0 824 l47 0 Z" /><glyph glyph-name="" unicode="&#x5219;" d="M363 151 q123 -97 177 -160 l-32 -36 q-65 75 -176 165 l31 31 ZM531 775 l0 -599 l-47 0 l0 555 l-316 0 l0 -556 l-46 0 l0 600 l409 0 ZM896 828 l0 -822 q0 -51 -39 -65 q-31 -9 -169 -9 q-5 24 -19 48 q37 -1 154 -1 q26 1 26 26 l0 823 l47 0 ZM710 744 l0 -588 l-46 0 l0 588 l46 0 ZM347 656 l0 -281 q0 -316 -257 -450 q-11 21 -32 35 q146 76 203 196 q40 86 40 220 l0 280 l46 0 Z" /><glyph glyph-name="" unicode="&#x521b;" d="M458 -16 q36 0 47 27 q10 27 13 122 q20 -14 45 -19 q-5 -105 -24 -138 q-21 -36 -80 -36 l-200 0 q-65 0 -87 17 q-23 17 -23 70 l0 439 l346 0 q0 -16 -1 -23 q-14 -232 -43 -265 q-17 -17 -51 -20 q-69 0 -94 2 q-2 23 -13 44 q50 -5 91 -5 q21 0 29 9 q21 24 34 214 l-252 0 l0 -395 q0 -26 12 -35 q12 -8 52 -8 l199 0 ZM369 816 l-21 -43 q161 -159 242 -276 l-35 -30 q-67 99 -227 268 q-101 -179 -256 -302 q-18 18 -37 30 q198 148 289 366 l45 -13 ZM704 169 l-46 0 l0 546 l46 0 l0 -546 ZM903 819 l0 -816 q0 -50 -39 -64 q-33 -9 -170 -8 q-5 20 -18 46 q115 -3 153 -1 q27 1 27 26 l0 817 l47 0 Z" /><glyph glyph-name="" unicode="&#x521d;" d="M256 671 q-28 62 -85 139 l36 20 q63 -76 87 -135 l-38 -24 ZM379 199 q-38 56 -116 152 l0 -423 l-49 0 l0 414 q-70 -84 -140 -143 q-13 29 -31 45 q186 142 285 362 l-270 0 l0 45 l295 0 l0 -1 l9 3 l29 -20 q-42 -108 -126 -225 l41 -46 q54 56 84 100 l38 -28 q-44 -52 -98 -98 q49 -59 81 -96 l-32 -41 ZM916 713 q-21 -684 -72 -745 q-24 -31 -72 -34 q-55 -3 -148 3 q-2 27 -14 47 q65 -6 149 -6 q28 0 41 16 q48 52 68 702 l-225 0 q-16 -301 -65 -463 q-59 -195 -195 -309 q-11 16 -38 36 q133 102 190 292 q46 154 58 444 l-186 0 l0 47 l509 0 l0 -30 Z" /><glyph glyph-name="" unicode="&#x5224;" d="M562 765 q-64 -140 -112 -211 q-33 19 -41 22 q64 92 108 202 l45 -13 ZM189 559 q-37 88 -108 196 l42 16 q77 -118 108 -191 l-42 -21 ZM344 429 q0 -77 -7 -141 l230 0 l0 -46 l-237 0 q-37 -208 -210 -321 q-21 24 -38 33 q161 104 199 288 l-231 0 l0 46 l239 0 q8 61 8 141 l0 54 l-208 0 l0 46 l208 0 l0 299 l47 0 l0 -299 l201 0 l0 -46 l-201 0 l0 -54 ZM691 167 l-47 0 l0 546 l47 0 l0 -546 ZM903 814 l0 -815 q0 -51 -39 -65 q-28 -9 -169 -9 q-9 28 -20 48 q37 -1 154 -1 q27 1 27 26 l0 816 l47 0 Z" /><glyph glyph-name="" unicode="&#x5229;" d="M330 530 l223 0 l0 -46 l-223 0 l0 -22 q45 -43 205 -213 l-29 -38 q-63 76 -176 195 l0 -478 l-48 0 l0 479 q-96 -222 -213 -334 q-15 27 -29 43 q146 139 231 368 l-211 0 l0 46 l222 0 l0 196 q-106 -20 -209 -32 q-2 14 -14 39 q294 38 421 93 l37 -37 q-73 -29 -187 -53 l0 -206 ZM689 171 l-47 0 l0 545 l47 0 l0 -545 ZM903 824 l0 -819 q0 -50 -39 -64 q-31 -9 -169 -9 q-6 25 -19 48 q37 -1 153 -1 q27 3 27 26 l0 819 l47 0 Z" /><glyph glyph-name="" unicode="&#x522b;" d="M442 744 l-295 0 l0 -226 l295 0 l0 226 ZM488 473 l-386 0 l0 315 l386 0 l0 -315 ZM501 345 l-1 -25 q-16 -325 -48 -362 q-19 -22 -55 -23 q-49 -2 -110 2 q-2 25 -14 47 q47 -5 106 -5 q24 0 33 10 q26 30 39 311 l-164 0 q-34 -279 -212 -377 q-13 23 -34 35 q170 89 200 342 l-182 0 l0 45 l187 0 q3 35 7 100 l47 0 q-4 -65 -7 -100 l208 0 ZM688 167 l-47 0 l0 547 l47 0 l0 -547 ZM903 814 l0 -815 q0 -51 -38 -65 q-33 -9 -167 -8 q-6 24 -19 47 q102 -3 150 0 q27 0 27 25 l0 816 l47 0 Z" /><glyph glyph-name="" unicode="&#x5230;" d="M355 85 l222 42 l2 -43 q-257 -50 -497 -99 l-12 47 l239 44 l0 189 l-204 0 l0 44 l204 0 l0 119 l46 0 l0 -119 l212 0 l0 -44 l-212 0 l0 -180 ZM430 665 q112 -133 157 -215 l-37 -24 q-23 39 -44 70 q-363 -38 -385 -49 q-8 33 -17 48 q17 2 49 45 q55 72 105 179 l-180 0 l0 44 l508 0 l0 -44 l-274 0 q-65 -129 -132 -214 l299 29 q-49 69 -85 110 l36 21 ZM697 147 l-45 0 l0 603 l45 0 l0 -603 ZM900 813 l0 -788 q0 -51 -36 -64 q-30 -9 -147 -9 q-5 23 -20 51 q99 -3 135 -1 q21 1 21 22 l0 789 l47 0 Z" /><glyph glyph-name="" unicode="&#x5236;" d="M351 514 l256 0 l0 -45 l-256 0 l0 -118 l214 0 l0 -285 q0 -39 -26 -49 q-21 -8 -118 -8 q-6 25 -17 43 q81 -2 101 0 q15 0 15 15 l0 239 l-169 0 l0 -379 l-46 0 l0 379 l-159 0 l0 -296 l-45 0 l0 341 l204 0 l0 118 l-254 0 l0 45 l254 0 l0 123 l-149 0 q-32 -77 -58 -115 q-7 5 -44 19 q68 97 106 265 l47 -9 q-18 -68 -34 -114 l132 0 l0 147 l46 0 l0 -147 l217 0 l0 -46 l-217 0 l0 -123 ZM741 191 l-45 0 l0 545 l45 0 l0 -545 ZM919 827 l0 -818 q0 -53 -38 -67 q-29 -10 -151 -10 q-10 34 -18 54 q100 -3 139 -1 q21 0 21 22 l0 820 l47 0 Z" /><glyph glyph-name="" unicode="&#x524d;" d="M427 197 l0 121 l-254 0 l0 -121 l254 0 ZM173 479 l0 -120 l254 0 l0 120 l-254 0 ZM473 -6 q0 -43 -31 -53 q-24 -9 -138 -9 q-11 33 -17 45 q92 -3 120 -1 q20 0 20 19 l0 161 l-254 0 l0 -225 l-46 0 l0 592 l346 0 l0 -529 ZM819 546 l47 0 l0 -548 q0 -47 -34 -59 q-31 -9 -153 -9 q-4 19 -19 47 q111 -2 138 0 q21 1 21 20 l0 549 ZM662 105 l-45 0 l0 408 l45 0 l0 -408 ZM267 834 q69 -76 104 -146 l-46 -19 q-31 68 -100 148 l42 17 ZM940 669 l0 -45 l-881 0 l0 45 l578 0 q59 81 100 170 l50 -19 q-51 -87 -97 -151 l250 0 Z" /><glyph glyph-name="" unicode="&#x529e;" d="M742 641 q0 -22 -1 -29 q-22 -579 -73 -635 q-22 -30 -72 -33 q-36 -2 -159 4 q-4 29 -17 50 q70 -7 160 -7 q31 0 43 15 q47 47 67 588 l-230 0 q-8 -198 -75 -342 q-90 -195 -298 -328 q-15 23 -38 38 q342 215 361 632 l-317 0 l0 47 l319 0 l0 192 l50 0 l0 -192 l280 0 ZM241 473 q-57 -187 -137 -282 l-42 26 q86 97 137 274 l42 -18 ZM833 497 q89 -174 114 -309 l-48 -16 q-21 133 -111 312 l45 13 Z" /><glyph glyph-name="" unicode="&#x529f;" d="M443 228 q-170 -49 -384 -109 l-13 49 l171 44 l0 450 l-158 0 l0 46 l361 0 l0 -46 l-156 0 l0 -437 l174 48 l5 -45 ZM938 596 q0 -21 -1 -28 q-25 -549 -73 -603 q-25 -27 -71 -30 q-59 -4 -149 4 q-5 32 -15 47 q77 -7 148 -7 q32 0 44 15 q46 47 67 555 l-236 0 q-15 -226 -73 -363 q-74 -172 -236 -260 q-8 17 -35 36 q156 81 226 244 q56 128 70 343 l-181 0 l0 47 l183 0 q4 96 4 220 l48 0 q0 -124 -4 -220 l284 0 Z" /><glyph glyph-name="" unicode="&#x52a0;" d="M484 618 q-27 -576 -76 -634 q-22 -29 -61 -30 q-32 -3 -107 1 q-2 29 -14 49 q61 -4 105 -4 q25 0 35 14 q45 51 69 586 l-166 0 q-23 -484 -178 -666 q-20 20 -40 29 q150 169 171 637 l-152 0 l0 47 l153 0 q3 96 3 184 l48 0 q0 -88 -3 -184 l213 0 l0 -29 ZM854 61 l0 594 l-231 0 l0 -594 l231 0 ZM903 702 l0 -756 l-49 0 l0 68 l-231 0 l0 -74 l-47 0 l0 762 l327 0 Z" /><glyph glyph-name="" unicode="&#x52a1;" d="M855 251 q-31 -251 -75 -291 q-23 -21 -66 -22 q-55 -2 -139 4 q-1 20 -16 44 q71 -7 142 -7 q31 0 41 9 q37 31 63 243 l-326 0 q-44 -126 -142 -199 q-91 -68 -251 -104 q-8 23 -25 44 q289 52 368 259 l-296 0 l0 44 l309 0 q14 50 21 109 l50 -5 q-8 -56 -21 -104 l366 0 l-3 -24 ZM337 683 l-19 -20 q66 -91 195 -148 q165 68 251 168 l-427 0 ZM838 707 q-84 -128 -271 -214 q155 -58 386 -74 q-19 -21 -27 -43 q-249 23 -414 93 q-187 -76 -443 -107 q-6 24 -20 44 q230 22 410 88 q-111 58 -173 140 q-75 -66 -151 -109 q-14 20 -34 34 q195 108 294 275 l52 -9 q-26 -45 -71 -99 l424 0 l9 3 l29 -22 Z" /><glyph glyph-name="" unicode="&#x5305;" d="M262 650 q-82 -118 -179 -197 q-17 17 -41 33 q174 130 270 352 l47 -14 q-33 -73 -68 -128 l572 0 l0 -27 q-17 -452 -51 -494 q-21 -23 -59 -26 q-47 -4 -116 2 q-2 25 -13 46 q49 -5 111 -5 q24 0 35 13 q29 35 44 445 l-552 0 ZM247 483 l0 -193 l305 0 l0 193 l-305 0 ZM795 -5 q65 0 85 26 q19 25 26 109 q21 -14 48 -19 q-10 -98 -38 -128 q-31 -34 -123 -34 l-410 0 q-107 0 -144 23 q-39 24 -39 94 l0 461 l399 0 l0 -281 l-352 0 l0 -180 q0 -42 24 -56 q26 -15 105 -15 l419 0 Z" /><glyph glyph-name="" unicode="&#x5316;" d="M377 817 q-46 -108 -103 -200 l0 -691 l-49 0 l0 617 q-68 -98 -139 -167 q-17 28 -33 43 q178 163 278 412 l46 -14 ZM833 -6 q43 0 56 44 q12 38 18 175 q26 -18 48 -24 q-8 -145 -28 -190 q-23 -53 -93 -53 l-195 0 q-67 0 -90 23 q-24 24 -24 92 l0 214 q-73 -47 -153 -92 q-16 23 -35 35 q97 51 188 114 l0 481 l50 0 l0 -445 q200 153 304 311 l47 -29 q-128 -180 -351 -339 l0 -252 q0 -40 13 -52 q12 -13 52 -13 l193 0 Z" /><glyph glyph-name="" unicode="&#x5339;" d="M933 42 l0 -46 l-829 0 l0 767 l819 0 l0 -48 l-254 0 l0 -451 q0 -23 7 -29 q8 -7 34 -7 l118 0 q25 0 33 30 q7 29 10 136 q18 -15 45 -22 q-5 -116 -20 -151 q-17 -39 -65 -39 l-125 0 q-49 0 -66 17 q-18 17 -18 65 l0 451 l-195 0 q-6 -251 -36 -362 q-42 -149 -157 -222 q-12 22 -32 35 q108 65 145 207 q28 103 33 342 l-229 0 l0 -673 l782 0 Z" /><glyph glyph-name="" unicode="&#x2f17;&#x5341;" d="M946 404 l-420 0 l0 -476 l-50 0 l0 476 l-416 0 l0 48 l416 0 l0 380 l50 0 l0 -380 l420 0 l0 -48 Z" /><glyph glyph-name="" unicode="&#x5373;" d="M167 735 l0 -157 l265 0 l0 157 l-265 0 ZM432 366 l0 167 l-265 0 l0 -167 l265 0 ZM364 255 q94 -147 141 -252 l-42 -24 q-16 40 -53 109 q-291 -111 -309 -126 q-10 32 -22 48 q40 19 40 61 l0 708 l360 0 l0 -457 l-312 0 l0 -275 l224 77 q-42 74 -67 113 l40 18 ZM903 199 q0 -46 -31 -58 q-30 -10 -148 -8 q-4 25 -16 46 q97 -3 127 -1 q21 1 21 20 l0 529 l-218 0 l0 -801 l-47 0 l0 847 l312 0 l0 -574 Z" /><glyph glyph-name="" unicode="&#x5386;" d="M881 470 q-25 -451 -73 -503 q-23 -25 -69 -28 q-50 -2 -153 5 q-2 24 -15 47 q67 -6 153 -6 q31 -1 42 12 q43 39 65 454 l-294 0 q-16 -193 -74 -309 q-70 -139 -219 -211 q-11 21 -34 34 q144 67 210 197 q55 107 70 289 l-237 0 l0 46 l240 0 q4 85 6 178 l49 0 q-2 -102 -7 -178 l340 0 l0 -27 ZM942 732 l-766 0 l0 -250 q0 -364 -91 -551 q-14 16 -41 28 q84 171 84 523 l0 296 l814 0 l0 -46 Z" /><glyph glyph-name="" unicode="&#x539f;" d="M424 181 q-92 -123 -180 -208 q-32 22 -42 27 q98 86 177 197 l45 -16 ZM343 300 l460 0 l0 111 l-460 0 l0 -111 ZM343 451 l460 0 l0 109 l-460 0 l0 -109 ZM595 259 l0 -270 q0 -42 -32 -53 q-26 -8 -154 -8 q-3 12 -17 43 q104 -3 135 -1 q21 1 21 18 l0 271 l-252 0 l0 343 l207 0 q21 44 42 106 l53 -11 l-45 -95 l299 0 l0 -343 l-257 0 ZM739 193 q116 -113 188 -198 l-40 -28 q-68 88 -186 206 l38 20 ZM937 725 l-746 0 l0 -233 q0 -364 -107 -546 q-20 18 -40 26 q100 169 100 520 l0 278 l793 0 l0 -45 Z" /><glyph glyph-name="" unicode="&#x53bb;" d="M453 354 q-116 -194 -236 -325 l549 41 q-68 98 -154 192 l41 20 q163 -173 239 -316 l-45 -26 q-18 38 -53 90 q-617 -51 -644 -63 q-4 24 -17 49 q21 3 72 66 q97 107 191 272 l-337 0 l0 47 l416 0 l0 215 l-338 0 l0 48 l338 0 l0 170 l49 0 l0 -170 l346 0 l0 -48 l-346 0 l0 -215 l421 0 l0 -47 l-492 0 Z" /><glyph glyph-name="" unicode="&#x53c2;" d="M820 153 q-166 -170 -607 -229 q-9 24 -24 42 q430 52 589 209 l42 -22 ZM689 266 q-141 -115 -414 -177 q-21 30 -28 37 q269 57 400 161 l42 -21 ZM597 384 q-117 -93 -304 -149 q-24 27 -33 34 q198 57 296 135 l41 -20 ZM662 464 q120 -141 295 -207 q-17 -14 -33 -38 q-199 85 -317 245 l-209 0 q-116 -160 -312 -255 q-16 23 -36 37 q176 77 289 218 l-281 0 l0 45 l313 0 q33 49 60 112 q-221 -12 -246 -21 q-4 24 -16 49 q27 1 69 29 q103 58 202 156 l45 -26 q-106 -92 -207 -152 l450 21 q-74 57 -137 95 l35 27 q172 -102 258 -199 l-40 -30 q-23 29 -69 68 l-316 -16 l23 -6 q-28 -65 -54 -107 l515 0 l0 -45 l-281 0 Z" /><glyph glyph-name="" unicode="&#x2f1c;&#x53c8;" d="M230 705 q94 -286 272 -467 q202 189 283 467 l-555 0 ZM844 740 q-85 -320 -309 -535 q175 -162 425 -227 q-20 -20 -30 -42 q-253 68 -431 237 q-177 -154 -426 -239 q-10 25 -29 42 q249 80 422 229 q-184 193 -282 500 l-85 0 l0 47 l705 0 l10 3 l30 -15 Z" /><glyph glyph-name="" unicode="&#x53d1;" d="M809 638 q-45 61 -133 151 l37 23 q83 -83 134 -146 l-38 -28 ZM405 382 q65 -143 181 -242 q118 105 171 242 l-352 0 ZM820 416 q-57 -179 -198 -305 q139 -107 332 -146 q-18 -18 -29 -42 q-197 46 -338 157 q-130 -101 -318 -156 q-10 25 -25 41 q175 45 306 146 q-109 98 -173 231 q-109 -211 -302 -335 q-13 19 -36 34 q263 171 364 509 l-144 0 q-92 0 -106 -14 q-9 34 -17 48 q15 3 32 38 q45 78 66 179 l52 -12 q-32 -111 -75 -192 l205 0 q27 99 45 238 l54 -9 q-21 -142 -44 -229 l450 0 l0 -47 l-464 0 q-16 -63 -41 -121 l364 0 l8 3 l32 -16 Z" /><glyph glyph-name="" unicode="&#x53d6;" d="M172 140 q137 22 202 34 l0 148 l-202 0 l0 -182 ZM172 737 l0 -162 l202 0 l0 162 l-202 0 ZM172 366 l202 0 l0 166 l-202 0 l0 -166 ZM421 138 l0 -210 l-47 0 l0 201 l-319 -57 l-11 47 l81 13 l0 605 l-74 0 l0 45 l450 0 l0 -45 l-80 0 l0 -555 l88 16 l3 -43 l-91 -17 ZM606 669 q40 -261 119 -427 q102 186 142 427 l-261 0 ZM918 709 q-44 -308 -167 -517 q84 -149 208 -220 q-23 -17 -35 -37 q-120 74 -201 213 q-92 -139 -209 -221 q-18 27 -32 37 q120 78 215 231 q-90 180 -135 474 l-59 0 l0 46 l377 0 l8 3 l30 -9 Z" /><glyph glyph-name="" unicode="&#x53d7;" d="M852 795 q-258 -56 -750 -79 q-1 16 -12 42 q499 26 727 76 l35 -39 ZM492 559 q-12 71 -55 157 l44 10 q46 -91 57 -156 l-46 -11 ZM247 550 q-21 62 -76 144 l41 13 q58 -82 78 -141 l-43 -16 ZM125 349 l-46 0 l0 195 l602 0 q69 96 110 184 l47 -19 q-58 -97 -107 -165 l190 0 l0 -195 l-47 0 l0 151 l-749 0 l0 -151 ZM284 320 q76 -121 219 -208 q149 86 223 208 l-442 0 ZM799 346 q-80 -157 -250 -259 q165 -85 392 -118 q-18 -20 -30 -44 q-237 37 -409 135 q-166 -88 -414 -135 q-9 23 -28 44 q236 38 397 119 q-144 92 -225 232 l-45 0 l0 45 l570 0 l10 3 l32 -22 Z" /><glyph glyph-name="" unicode="&#x53d8;" d="M364 684 l-289 0 l0 44 l427 0 q-31 61 -59 100 l45 13 q43 -61 67 -113 l371 0 l0 -44 l-291 0 l0 -318 l-48 0 l0 318 l-175 0 l0 -320 l-48 0 l0 320 ZM737 622 q112 -105 172 -202 l-40 -23 q-53 89 -169 207 l37 18 ZM289 620 q-55 -130 -145 -220 q-17 15 -39 26 q88 80 139 205 l45 -11 ZM274 289 q83 -114 225 -190 q153 78 232 190 l-457 0 ZM806 314 q-83 -143 -259 -240 q173 -80 402 -106 q-17 -18 -28 -43 q-246 34 -421 125 q-167 -82 -413 -126 q-9 23 -26 44 q225 33 391 108 q-146 85 -231 213 l-81 0 l0 45 l625 0 l10 2 l31 -22 Z" /><glyph glyph-name="" unicode="&#x53e6;" d="M784 737 l-569 0 l0 -209 l569 0 l0 209 ZM833 482 l-666 0 l0 301 l666 0 l0 -301 ZM872 323 q-1 -18 -2 -25 q-21 -302 -61 -339 q-20 -23 -66 -24 q-44 -3 -154 4 q-4 28 -16 47 q66 -7 153 -7 q32 0 42 10 q33 29 52 289 l-338 0 q-38 -134 -121 -214 q-98 -94 -279 -139 q-8 24 -28 42 q305 70 377 311 l-325 0 l0 45 l335 0 q9 37 19 117 l50 0 q-10 -80 -18 -117 l380 0 Z" /><glyph glyph-name="" unicode="&#x53ea;" d="M643 217 q192 -140 295 -262 l-42 -30 q-101 123 -293 266 l40 26 ZM391 196 q-111 -156 -303 -273 q-22 24 -37 34 q199 115 291 257 l49 -18 ZM214 367 l572 0 l0 344 l-572 0 l0 -344 ZM835 757 l0 -436 l-669 0 l0 436 l669 0 Z" /><glyph glyph-name="" unicode="&#x53ef;" d="M217 498 l0 -270 l304 0 l0 270 l-304 0 ZM217 181 l0 -81 l-47 0 l0 445 l399 0 l0 -364 l-352 0 ZM942 712 l-126 0 l0 -704 q0 -59 -44 -71 q-34 -9 -199 -9 q-7 27 -21 53 q115 -4 188 -1 q27 3 27 29 l0 703 l-706 0 l0 47 l881 0 l0 -47 Z" /><glyph glyph-name="" unicode="&#x53f0;" d="M239 289 l0 -258 l521 0 l0 258 l-521 0 ZM191 336 l618 0 l0 -406 l-49 0 l0 54 l-521 0 l0 -57 l-48 0 l0 409 ZM647 707 q186 -157 268 -290 l-41 -30 q-31 50 -68 93 q-649 -38 -682 -50 q-5 26 -15 48 q23 5 81 61 q125 115 242 290 l47 -22 q-145 -194 -281 -317 l574 30 q-80 91 -163 162 l38 25 Z" /><glyph glyph-name="" unicode="&#x53f7;" d="M757 744 l-516 0 l0 -160 l516 0 l0 160 ZM806 539 l-612 0 l0 249 l612 0 l0 -249 ZM339 388 q-30 -91 -46 -132 l512 0 q-1 -18 -3 -25 q-37 -239 -89 -281 q-24 -21 -73 -22 q-68 -2 -167 5 q-2 26 -17 47 q82 -9 172 -9 q35 0 47 9 q42 33 74 230 l-499 0 l0 1 l-30 0 q31 66 66 177 l-216 0 l0 45 l857 0 l0 -45 l-588 0 Z" /><glyph glyph-name="" unicode="&#x5404;" d="M255 228 l0 -211 l481 0 l0 211 l-481 0 ZM207 274 l578 0 l0 -350 l-49 0 l0 49 l-481 0 l0 -52 l-48 0 l0 353 ZM304 664 q80 -97 200 -175 q137 86 217 190 l-403 0 l-14 -15 ZM798 703 q-85 -131 -251 -242 q193 -116 411 -162 q-15 -18 -31 -44 q-232 57 -422 180 q-203 -123 -448 -183 q-7 24 -23 44 q224 48 429 167 q-112 78 -189 170 q-79 -78 -172 -136 q-18 21 -38 34 q209 121 317 309 l45 -17 q-30 -50 -70 -100 l401 0 l8 2 l33 -22 Z" /><glyph glyph-name="" unicode="&#x5408;" d="M252 275 l0 -237 l506 0 l0 237 l-506 0 ZM203 319 l604 0 l0 -386 l-49 0 l0 59 l-506 0 l0 -63 l-49 0 l0 390 ZM753 504 l0 -45 l-505 0 l0 45 l505 0 ZM563 814 q-19 -28 -32 -45 q149 -171 430 -296 q-24 -18 -34 -42 q-268 130 -423 303 q-170 -205 -422 -309 q-16 25 -34 39 q317 125 474 369 l41 -19 Z" /><glyph glyph-name="" unicode="&#x5409;" d="M240 244 l0 -229 l528 0 l0 229 l-528 0 ZM191 289 l627 0 l0 -375 l-50 0 l0 55 l-528 0 l0 -55 l-49 0 l0 375 ZM522 636 l0 -170 l363 0 l0 -46 l-759 0 l0 46 l348 0 l0 170 l-407 0 l0 46 l407 0 l0 151 l48 0 l0 -151 l409 0 l0 -46 l-409 0 Z" /><glyph glyph-name="" unicode="&#x540c;" d="M346 399 l0 -220 l308 0 l0 220 l-308 0 ZM346 136 l0 -77 l-45 0 l0 383 l399 0 l0 -306 l-354 0 ZM759 564 l-512 0 l0 44 l512 0 l0 -44 ZM906 -3 q0 -50 -37 -63 q-31 -9 -161 -8 q-6 24 -19 46 q99 -3 144 0 q26 1 26 24 l0 736 l-716 0 l0 -808 l-47 0 l0 854 l810 0 l0 -781 Z" /><glyph glyph-name="" unicode="&#x540d;" d="M794 30 l0 252 l-485 0 l0 -252 l485 0 ZM843 -73 l-49 0 l0 58 l-485 0 l0 -58 l-48 0 l0 344 q-97 -34 -176 -52 q-8 25 -25 44 q212 45 392 146 q-83 76 -171 136 l36 27 q93 -60 178 -137 q182 112 270 252 l-399 0 q-106 -107 -248 -182 q-9 15 -33 36 q227 113 337 294 l55 -11 q-32 -49 -70 -92 l390 0 l9 2 l30 -20 q-125 -236 -442 -387 l449 0 l0 -400 Z" /><glyph glyph-name="" unicode="&#x540e;" d="M357 301 l0 -275 l461 0 l0 275 l-461 0 ZM310 347 l557 0 l0 -421 l-49 0 l0 54 l-461 0 l0 -55 l-47 0 l0 422 ZM944 554 l0 -46 l-736 0 l0 -18 q0 -374 -128 -565 q-20 25 -39 33 q118 174 118 532 l0 249 q456 31 669 82 l42 -38 q-227 -53 -662 -83 l0 -146 l736 0 Z" /><glyph glyph-name="" unicode="&#x5411;" d="M350 413 l0 -234 l300 0 l0 234 l-300 0 ZM350 134 l0 -72 l-45 0 l0 395 l390 0 l0 -323 l-345 0 ZM899 3 q0 -56 -41 -67 q-36 -9 -185 -9 q-4 25 -18 52 q107 -4 171 -1 q25 1 25 25 l0 608 l-696 0 l0 -684 l-48 0 l0 731 l274 0 q43 87 71 179 l57 -12 q-60 -135 -76 -167 l466 0 l0 -655 Z" /><glyph glyph-name="" unicode="&#x5426;" d="M476 601 q-161 -129 -397 -222 q-20 31 -33 43 q323 112 496 304 l-471 0 l0 46 l859 0 l0 -46 l-326 0 q-34 -41 -80 -84 l0 -320 l-48 0 l0 279 ZM233 249 l0 -223 l538 0 l0 223 l-538 0 ZM185 293 l636 0 l0 -364 l-50 0 l0 53 l-538 0 l0 -56 l-48 0 l0 367 ZM613 613 q200 -82 335 -186 l-33 -36 q-134 107 -336 190 l34 32 Z" /><glyph glyph-name="" unicode="&#x542b;" d="M763 212 l-524 0 l0 -187 l524 0 l0 187 ZM786 433 q-114 -122 -168 -177 l194 0 l0 -327 l-49 0 l0 52 l-524 0 l0 -53 l-48 0 l0 328 l362 0 q78 76 144 149 l-508 0 l0 45 l552 0 l9 3 l36 -20 ZM435 620 q116 -59 170 -107 l-33 -32 q-61 55 -170 111 l33 28 ZM551 815 l-24 -36 q168 -196 434 -273 q-9 -8 -35 -43 q-255 86 -425 284 q-159 -194 -422 -291 q-15 25 -32 41 q318 110 461 338 l43 -20 Z" /><glyph glyph-name="" unicode="&#x548c;" d="M309 540 l191 0 l0 -46 l-191 0 l0 -30 q115 -126 176 -208 l-32 -38 q-34 52 -144 188 l0 -477 l-48 0 l0 488 q-92 -216 -202 -331 q-13 27 -29 42 q136 138 219 366 l-193 0 l0 46 l205 0 l0 188 q-90 -15 -178 -26 q-4 18 -15 39 q274 37 385 82 l34 -38 q-60 -24 -178 -48 l0 -197 ZM845 100 l0 594 l-259 0 l0 -594 l259 0 ZM894 741 l0 -765 l-49 0 l0 78 l-259 0 l0 -85 l-47 0 l0 772 l355 0 Z" /><glyph glyph-name="" unicode="&#x5668;" d="M820 743 l-219 0 l0 -172 l219 0 l0 172 ZM866 528 l-311 0 l0 258 l311 0 l0 -258 ZM387 743 l-210 0 l0 -172 l210 0 l0 172 ZM433 528 l-300 0 l0 258 l300 0 l0 -258 ZM810 3 l0 184 l-214 0 l0 -184 l214 0 ZM397 187 l-202 0 l0 -184 l202 0 l0 184 ZM648 369 q121 -107 312 -155 q-19 -14 -31 -38 q-39 11 -73 25 l0 -267 l-46 0 l0 25 l-214 0 l0 -31 l-45 0 l0 303 l234 0 q-126 62 -196 138 l-197 0 q-75 -78 -176 -138 l227 0 l0 -297 l-46 0 l0 25 l-202 0 l0 -31 l-46 0 l0 268 q-37 -19 -81 -35 q-13 22 -29 36 q174 63 289 172 l-270 0 l0 45 l314 0 q51 59 79 120 l51 -10 q-31 -60 -71 -110 l323 0 q-51 39 -136 70 l26 29 q99 -36 146 -74 l-21 -25 l174 0 l0 -45 l-295 0 Z" /><glyph glyph-name="" unicode="&#x56de;" d="M639 517 l-282 0 l0 -262 l282 0 l0 262 ZM686 562 l0 -351 l-375 0 l0 351 l375 0 ZM862 28 l0 712 l-724 0 l0 -712 l724 0 ZM911 788 l0 -860 l-49 0 l0 54 l-724 0 l0 -54 l-48 0 l0 860 l821 0 Z" /><glyph glyph-name="" unicode="&#x56e0;" d="M515 469 l-9 -55 q195 -177 287 -316 l-35 -28 q-96 139 -264 299 q-60 -217 -253 -306 q-14 22 -33 37 q216 96 260 369 l-266 0 l0 45 l273 0 q10 81 13 182 l47 0 q-6 -123 -14 -182 l277 0 l0 -45 l-283 0 ZM865 23 l0 720 l-729 0 l0 -720 l729 0 ZM912 788 l0 -860 l-47 0 l0 52 l-729 0 l0 -52 l-46 0 l0 860 l822 0 Z" /><glyph glyph-name="" unicode="&#x56fa;" d="M669 344 l-326 0 l0 -178 l326 0 l0 178 ZM524 520 l0 -135 l191 0 l0 -260 l-417 0 l0 260 l180 0 l0 135 l-256 0 l0 42 l256 0 l0 126 l46 0 l0 -126 l268 0 l0 -42 l-268 0 ZM856 19 l0 719 l-710 0 l0 -719 l710 0 ZM904 783 l0 -859 l-48 0 l0 50 l-710 0 l0 -50 l-47 0 l0 859 l805 0 Z" /><glyph glyph-name="" unicode="&#x5728;" d="M378 622 q-57 -118 -123 -208 l0 -483 l-47 0 l0 425 q-63 -72 -132 -123 q-16 27 -28 40 q168 124 277 349 l-257 0 l0 47 l278 0 q34 77 58 164 l49 -13 q-28 -91 -55 -151 l534 0 l0 -47 l-554 0 ZM934 -4 l0 -46 l-606 0 l0 46 l277 0 l0 315 l-237 0 l0 46 l237 0 l0 208 l48 0 l0 -208 l242 0 l0 -46 l-242 0 l0 -315 l281 0 Z" /><glyph glyph-name="" unicode="&#x5730;" d="M229 220 l127 53 l9 -43 q-178 -80 -305 -133 l-19 47 q84 32 142 57 l0 341 l-136 0 l0 46 l136 0 l0 235 l46 0 l0 -235 l128 0 l0 -46 l-128 0 l0 -322 ZM832 -5 q45 0 59 30 q14 28 20 123 q20 -15 44 -20 q-7 -106 -28 -139 q-25 -38 -95 -38 l-267 0 q-77 0 -103 22 q-28 24 -28 91 l0 348 l-94 -39 l-20 42 l114 49 l0 278 l46 0 l0 -260 l165 70 l0 281 l46 0 l0 -263 l163 69 l25 23 l33 -14 l-2 -11 q0 -341 -12 -390 q-9 -50 -56 -55 q-25 -4 -87 -4 q-7 32 -14 44 q28 -2 79 -2 q27 0 34 31 q10 41 10 333 l-173 -73 l0 -377 l-46 0 l0 358 l-165 -70 l0 -370 q0 -40 16 -53 q17 -14 67 -14 l269 0 Z" /><glyph glyph-name="" unicode="&#x57fa;" d="M522 -3 l355 0 l0 -43 l-751 0 l0 43 l349 0 l0 130 l-221 0 l0 43 l221 0 l0 97 l47 0 l0 -97 l226 0 l0 -43 l-226 0 l0 -130 ZM306 348 l392 0 l0 87 l-392 0 l0 -87 ZM306 681 l0 -81 l392 0 l0 81 l-392 0 ZM306 475 l392 0 l0 85 l-392 0 l0 -85 ZM721 305 q89 -125 238 -178 q-18 -15 -33 -37 q-161 66 -256 215 l-334 0 q-94 -151 -258 -229 q-15 23 -34 37 q143 58 240 192 l-229 0 l0 43 l203 0 l0 333 l-160 0 l0 43 l160 0 l0 109 l48 0 l0 -109 l392 0 l0 108 l48 0 l0 -108 l159 0 l0 -43 l-159 0 l0 -333 l200 0 l0 -43 l-225 0 Z" /><glyph glyph-name="" unicode="&#x586b;" d="M334 198 q-143 -66 -274 -120 l-17 47 q77 30 123 49 l0 368 l-121 0 l0 46 l121 0 l0 235 l47 0 l0 -235 l120 0 l0 -46 l-120 0 l0 -348 l113 47 l8 -43 ZM578 76 q-94 -83 -224 -151 q-12 19 -30 35 q143 73 208 143 l46 -27 ZM737 105 q129 -81 192 -144 l-33 -33 q-68 68 -190 148 l31 29 ZM468 161 l340 0 l0 82 l-340 0 l0 -82 ZM468 574 l0 -77 l340 0 l0 77 l-340 0 ZM808 462 l-340 0 l0 -72 l340 0 l0 72 ZM468 279 l340 0 l0 75 l-340 0 l0 -75 ZM952 161 l0 -43 l-624 0 l0 43 l96 0 l0 452 l149 0 q11 42 17 76 l-220 0 l0 43 l229 0 q11 46 18 100 l52 -5 l-22 -95 l277 0 l0 -43 l-286 0 q-12 -47 -21 -76 l236 0 l0 -452 l99 0 Z" /><glyph glyph-name="" unicode="&#x589e;" d="M522 698 q-24 51 -71 112 l40 18 q53 -62 74 -109 l-43 -21 ZM223 179 q81 33 109 43 l9 -45 l-274 -108 l-16 49 q70 24 126 45 l0 378 l-117 0 l0 45 l117 0 l0 237 l46 0 l0 -237 l106 0 l0 -45 l-106 0 l0 -362 ZM475 252 l0 -101 l324 0 l0 101 l-324 0 ZM799 19 l0 92 l-324 0 l0 -92 l324 0 ZM430 292 l415 0 l0 -361 l-46 0 l0 47 l-324 0 l0 -47 l-45 0 l0 361 ZM494 612 q58 -79 78 -143 l-35 -16 q-19 72 -75 146 l32 13 ZM689 463 q54 70 90 149 l37 -16 q-60 -101 -97 -147 l-30 14 ZM852 648 l-194 0 l0 -243 l194 0 l0 243 ZM418 405 l199 0 l0 243 l-199 0 l0 -243 ZM895 687 l0 -321 l-519 0 l0 321 l316 0 q57 71 91 148 l49 -21 q-53 -82 -88 -127 l151 0 Z" /><glyph glyph-name="" unicode="&#x5904;" d="M680 104 l-50 0 l0 726 l50 0 l0 -265 l23 13 q146 -152 222 -263 l-41 -26 q-67 108 -204 252 l0 -437 ZM244 629 q-13 -46 -30 -90 q39 -181 109 -298 q89 161 122 388 l-201 0 ZM499 666 q-35 -279 -144 -469 q138 -184 443 -184 q122 0 154 1 q-16 -30 -19 -50 l-137 0 q-320 0 -468 191 q-96 -145 -248 -227 q-18 25 -38 38 q157 80 256 232 q-72 112 -110 273 q-39 -89 -87 -153 q-22 17 -39 27 q126 162 174 483 l49 -16 q-11 -64 -29 -138 l202 0 l9 3 l32 -11 Z" /><glyph glyph-name="" unicode="&#x590d;" d="M240 687 q-68 -86 -154 -152 q-9 17 -30 41 q151 106 226 257 l43 -14 q-25 -51 -54 -89 l620 0 l0 -43 l-651 0 ZM298 208 q74 -79 209 -136 q141 58 216 136 l-425 0 ZM271 365 l497 0 l0 84 l-497 0 l0 -84 ZM271 487 l497 0 l0 81 l-497 0 l0 -81 ZM801 230 q-77 -104 -237 -179 q166 -56 390 -74 q-10 -11 -28 -44 q-245 23 -419 94 q-186 -73 -446 -101 q-5 22 -20 45 q235 21 409 81 q-114 56 -182 129 q-62 -56 -131 -100 q-19 22 -36 33 q154 87 236 212 l-113 0 l0 281 l593 0 l0 -281 l-427 0 q-25 -40 -57 -77 l428 0 l10 3 l30 -22 Z" /><glyph glyph-name="" unicode="&#x591a;" d="M778 724 q-88 -151 -289 -266 q-172 -99 -376 -144 q-10 25 -25 44 q184 35 358 128 q-61 54 -136 94 l35 28 q92 -51 144 -97 q142 85 216 187 l-302 0 q-107 -94 -243 -159 q-14 20 -34 34 q230 102 341 261 l54 -12 q-33 -43 -70 -80 l287 0 l10 3 l30 -21 ZM936 383 q-178 -372 -825 -457 q-5 23 -21 47 q294 32 500 138 q-55 57 -133 116 l39 22 q76 -53 137 -114 q157 91 231 221 l-298 0 q-139 -121 -322 -195 q-12 18 -32 35 q290 113 417 296 l55 -11 q-46 -57 -70 -80 l281 0 l10 3 l31 -21 Z" /><glyph glyph-name="" unicode="&#x591f;" d="M669 705 q-68 -86 -155 -144 q-17 21 -35 30 q150 93 217 241 l48 -8 q-30 -56 -44 -76 l174 0 l9 2 l31 -14 q-92 -263 -391 -365 q-12 21 -28 36 q108 35 197 102 q-43 41 -103 78 l34 26 q57 -33 103 -75 q83 72 126 167 l-183 0 ZM160 485 l0 -258 l128 0 l0 258 l-128 0 ZM160 184 l0 -76 l-42 0 l0 419 l212 0 l0 -343 l-170 0 ZM455 674 q-12 -631 -48 -683 q-22 -28 -63 -31 q-44 -5 -118 2 q-2 26 -13 45 q52 -4 117 -4 q24 -1 35 16 q33 43 44 639 l-232 0 q-45 -94 -96 -159 q-6 5 -41 27 q97 112 148 300 l47 -11 q-17 -60 -39 -112 l259 0 l0 -29 ZM961 353 q-95 -327 -475 -425 q-11 26 -26 41 q171 37 286 134 q-52 55 -124 102 l34 27 q69 -43 123 -99 q80 79 121 188 l-194 0 q-84 -98 -195 -160 q-13 19 -32 32 q181 100 261 259 l50 -9 q-19 -37 -51 -80 l172 0 l0 1 l10 0 l10 2 l30 -13 Z" /><glyph glyph-name="" unicode="&#x2f24;&#x5927;" d="M545 488 q119 -391 406 -515 q-16 -13 -36 -45 q-291 139 -416 546 q-80 -398 -414 -547 q-15 25 -36 39 q323 138 404 522 l-386 0 l0 48 l394 0 q16 104 19 296 l50 0 q-2 -186 -19 -296 l426 0 l0 -48 l-392 0 Z" /><glyph glyph-name="" unicode="&#x5934;" d="M432 621 q-87 71 -226 121 l28 36 q151 -55 227 -117 l-29 -40 ZM341 441 q-84 70 -222 126 l30 33 q141 -54 223 -121 l-31 -38 ZM561 218 q229 -112 370 -240 l-33 -35 q-131 121 -364 243 l27 32 ZM940 369 l0 -45 l-391 0 q-40 -148 -139 -240 q-110 -101 -313 -153 q-9 18 -29 40 q351 86 432 353 l-438 0 l0 45 l450 0 q25 117 27 451 l48 0 q-2 -328 -27 -451 l380 0 Z" /><glyph glyph-name="" unicode="&#x5957;" d="M425 681 q-60 -72 -122 -122 l410 0 q-77 61 -128 122 l-160 0 ZM315 518 l0 -77 l428 0 l0 -39 l-428 0 l0 -79 l428 0 l0 -38 l-428 0 l0 -82 l622 0 l0 -43 l-538 0 q-80 -90 -158 -150 l488 27 q-21 22 -85 81 l39 22 q108 -95 189 -187 l-42 -26 q-9 12 -65 74 q-573 -35 -600 -45 q-5 27 -16 49 q24 1 58 32 q54 38 129 123 l-272 0 l0 43 l202 0 l0 327 q-82 -59 -188 -108 q-15 24 -32 36 q194 81 318 223 l-290 0 l0 43 l325 0 q38 51 65 109 l52 -9 q-27 -57 -59 -100 l472 0 l0 -43 l-288 0 q131 -142 316 -213 q-22 -16 -32 -38 q-93 41 -188 110 l0 -22 l-422 0 Z" /><glyph glyph-name="" unicode="&#x5982;" d="M236 578 q-36 -156 -72 -275 q82 -52 147 -103 q83 152 106 378 l-181 0 ZM469 619 q-23 -274 -118 -449 q83 -69 118 -115 l-34 -38 q-34 44 -111 110 q-90 -135 -237 -201 q-9 17 -31 41 q142 58 230 191 q-89 72 -178 127 q43 124 81 293 l-137 0 l0 46 l147 0 q28 135 37 209 l48 -3 q-8 -57 -37 -206 l182 0 l10 2 l30 -7 ZM868 73 l0 603 l-286 0 l0 -603 l286 0 ZM915 722 l0 -757 l-47 0 l0 62 l-286 0 l0 -76 l-46 0 l0 771 l379 0 Z" /><glyph glyph-name="" unicode="&#x59cb;" d="M198 578 q-37 -167 -69 -275 q58 -34 128 -89 q63 146 82 364 l-141 0 ZM387 620 q-21 -270 -93 -436 q74 -63 117 -117 l-31 -39 q-31 42 -108 112 q-72 -139 -194 -212 q-7 18 -30 39 q116 62 188 204 q-90 72 -159 114 q35 101 77 293 l-106 0 l0 46 l116 0 q23 118 34 206 l45 -3 q-14 -97 -35 -203 l142 0 l9 2 l28 -6 ZM516 279 l0 -262 l334 0 l0 262 l-334 0 ZM471 324 l426 0 l0 -395 l-47 0 l0 43 l-334 0 l0 -46 l-45 0 l0 398 ZM788 686 q114 -145 171 -279 l-41 -20 q-17 39 -35 73 q-431 -31 -455 -41 q-6 22 -17 49 q19 2 64 66 q95 123 172 301 l49 -16 q-106 -212 -203 -339 l367 22 q-55 93 -110 166 l38 18 Z" /><glyph glyph-name="" unicode="&#x2f26;&#x5b50;" d="M948 335 l-421 0 l0 -335 q0 -53 -44 -65 q-35 -9 -191 -9 q-6 21 -22 50 q116 -4 182 -1 q26 1 26 25 l0 335 l-423 0 l0 47 l423 0 l0 149 q158 72 285 181 l-607 0 l0 47 l658 0 l12 3 l35 -26 q-134 -131 -334 -231 l0 -123 l421 0 l0 -47 Z" /><glyph glyph-name="" unicode="&#x5b57;" d="M136 532 l-47 0 l0 190 l406 0 q-22 50 -60 102 l45 16 q50 -64 70 -118 l362 0 l0 -190 l-49 0 l0 144 l-727 0 l0 -144 ZM925 246 l-400 0 l0 -253 q0 -46 -37 -57 q-28 -9 -159 -9 q-5 19 -22 46 q119 -2 146 0 q22 1 22 19 l0 254 l-402 0 l0 47 l402 0 l0 68 q112 53 207 138 l-449 0 l0 46 l497 0 l11 2 l34 -24 q-101 -104 -250 -181 l0 -49 l400 0 l0 -47 Z" /><glyph glyph-name="" unicode="&#x5b58;" d="M384 655 q-57 -131 -135 -238 l0 -489 l-48 0 l0 429 q-60 -71 -134 -125 q-12 23 -28 40 q183 134 292 383 l-263 0 l0 46 l283 0 q23 57 44 131 l50 -12 q-19 -62 -42 -119 l530 0 l0 -46 l-549 0 ZM953 214 l-285 0 l0 -220 q0 -47 -36 -58 q-26 -8 -171 -8 q-5 19 -18 46 q116 -3 155 -1 q22 1 22 20 l0 221 l-292 0 l0 46 l292 0 l0 90 q98 52 177 127 l-380 0 l0 45 l426 0 l10 3 l33 -23 q-84 -93 -218 -169 l0 -73 l285 0 l0 -46 Z" /><glyph glyph-name="" unicode="&#x5b66;" d="M514 663 q-20 72 -81 162 l42 15 q61 -88 83 -159 l-44 -18 ZM136 477 l-46 0 l0 185 l172 0 q-32 67 -98 142 l40 19 q72 -79 99 -140 l-35 -21 l424 0 q68 83 112 165 l46 -20 q-60 -91 -107 -145 l176 0 l0 -185 l-47 0 l0 141 l-736 0 l0 -141 ZM940 224 l-418 0 l0 -230 q0 -47 -40 -59 q-31 -8 -179 -8 q-5 18 -23 46 q137 -3 169 0 q25 2 25 21 l0 230 l-409 0 l0 45 l409 0 l0 78 q114 40 210 108 l-459 0 l0 44 l513 0 l11 3 l32 -25 q-93 -84 -259 -153 l0 -55 l418 0 l0 -45 Z" /><glyph glyph-name="" unicode="&#x5b83;" d="M735 -1 q59 0 77 31 q17 28 25 131 q19 -13 48 -21 q-9 -113 -36 -149 q-29 -39 -116 -39 l-334 0 q-94 0 -127 22 q-34 23 -34 90 l0 475 l49 0 l0 -249 q311 88 446 167 l44 -36 q-164 -84 -490 -174 l0 -184 q0 -38 21 -51 q21 -13 87 -13 l340 0 ZM904 693 l0 -191 l-48 0 l0 145 l-717 0 l0 -145 l-47 0 l0 191 l411 0 q-22 61 -67 132 l45 14 q50 -75 72 -136 l-31 -10 l382 0 Z" /><glyph glyph-name="" unicode="&#x5b9a;" d="M138 518 l-48 0 l0 198 l402 0 q-20 51 -55 108 l46 13 q46 -72 60 -114 l-20 -7 l387 0 l0 -198 l-49 0 l0 152 l-723 0 l0 -152 ZM523 8 q82 -17 191 -17 q203 0 241 1 q-16 -22 -20 -48 l-223 0 q-183 0 -284 43 q-122 52 -187 185 q-53 -157 -158 -249 q-21 21 -39 33 q155 122 195 420 l47 -5 q-13 -89 -25 -135 q60 -164 214 -215 l0 457 l-270 0 l0 46 l600 0 l0 -46 l-282 0 l0 -190 l312 0 l0 -46 l-312 0 l0 -234 Z" /><glyph glyph-name="" unicode="&#x5b9e;" d="M147 520 l-47 0 l0 187 l403 0 q-27 62 -63 114 l47 14 q47 -69 71 -128 l344 0 l0 -187 l-49 0 l0 141 l-706 0 l0 -141 ZM395 444 q-57 65 -149 118 l31 30 q101 -58 149 -114 l-31 -34 ZM177 437 q105 -56 160 -118 l-30 -36 q-60 66 -159 122 l29 32 ZM567 167 q223 -91 359 -196 l-32 -37 q-128 106 -352 198 l25 35 ZM931 245 l0 -43 l-425 0 q-84 -202 -393 -269 q-6 17 -28 41 q286 60 367 228 l-377 0 l0 43 l396 0 q35 101 44 362 l50 0 q-9 -250 -43 -362 l409 0 Z" /><glyph glyph-name="" unicode="&#x5bb9;" d="M138 572 l-47 0 l0 162 l403 0 q-23 53 -48 91 l47 12 q36 -53 56 -103 l361 0 l0 -162 l-49 0 l0 117 l-723 0 l0 -117 ZM632 626 q172 -102 270 -200 l-33 -33 q-98 101 -268 204 l31 29 ZM386 611 q-98 -123 -262 -220 q-21 26 -36 36 q159 84 253 199 l45 -15 ZM746 256 q-145 89 -245 205 q-92 -112 -232 -205 l477 0 ZM724 8 l0 203 l-450 0 l0 -203 l450 0 ZM546 521 l-19 -26 q140 -169 425 -288 q-19 -16 -33 -40 q-75 33 -147 73 l0 -308 l-48 0 l0 31 l-450 0 l0 -37 l-47 0 l0 304 q-63 -38 -151 -76 q-19 28 -32 38 q305 119 460 349 l42 -20 Z" /><glyph glyph-name="" unicode="&#x5bf9;" d="M429 705 q-35 -223 -122 -401 q74 -117 115 -204 l-39 -32 q-31 68 -102 187 q-92 -165 -210 -252 q-12 23 -35 40 q121 83 216 260 q-88 141 -180 264 l35 26 q80 -105 169 -241 q69 149 99 317 l-316 0 l0 44 l330 0 l9 3 l31 -11 ZM952 558 l-127 0 l0 -557 q0 -50 -37 -63 q-30 -10 -157 -9 q-9 29 -19 48 q91 -4 142 -1 q24 2 24 25 l0 557 l-300 0 l0 46 l300 0 l0 227 l47 0 l0 -227 l127 0 l0 -46 ZM633 175 q-26 107 -118 246 l41 17 q91 -134 121 -242 l-44 -21 Z" /><glyph glyph-name="" unicode="&#x5c06;" d="M584 708 q-85 -73 -195 -123 q-11 14 -31 30 q194 85 282 217 l48 -15 q-19 -27 -56 -66 l245 0 l9 2 l30 -18 q-127 -262 -527 -353 q-11 26 -24 39 q138 29 254 88 q-44 62 -106 111 l36 21 q74 -59 109 -110 q129 77 190 177 l-264 0 ZM195 499 q-42 82 -140 173 l34 26 q104 -95 142 -169 l-36 -30 ZM246 832 l47 0 l0 -905 l-47 0 l0 378 q-103 -103 -170 -166 l-30 38 q82 72 200 187 l0 468 ZM470 249 q97 -92 141 -178 l-41 -25 q-41 84 -140 181 l40 22 ZM943 297 l-128 0 l0 -304 q0 -48 -35 -58 q-27 -8 -156 -8 q-2 16 -17 47 q104 -3 140 -1 q21 0 21 20 l0 304 l-419 0 l0 46 l419 0 l0 139 l47 0 l0 -139 l128 0 l0 -46 Z" /><glyph glyph-name="" unicode="&#x2f29;&#x5c0f;" d="M529 818 l0 -814 q0 -58 -43 -69 q-35 -9 -180 -9 q-7 25 -21 51 q109 -3 168 0 q26 0 26 26 l0 815 l50 0 ZM766 587 q159 -248 202 -441 l-50 -20 q-43 200 -198 443 l46 18 ZM271 572 q-67 -289 -188 -431 q-19 15 -44 26 q125 144 179 415 l53 -10 Z" /><glyph glyph-name="" unicode="&#x5c14;" d="M255 611 q-66 -118 -147 -203 q-23 19 -44 29 q151 146 244 396 l47 -11 q-39 -98 -74 -164 l615 0 l9 3 l35 -14 q-64 -145 -126 -224 l-42 16 q56 68 100 172 l-617 0 ZM334 400 q-85 -199 -219 -328 q-21 18 -42 29 q133 120 213 311 l48 -12 ZM482 561 l48 0 l0 -565 q0 -49 -38 -62 q-29 -8 -170 -8 q-4 17 -18 48 q103 -3 154 0 q24 0 24 22 l0 565 ZM703 408 q149 -184 212 -312 l-43 -23 q-69 144 -210 317 l41 18 Z" /><glyph glyph-name="" unicode="&#x5c1d;" d="M824 795 q-60 -87 -119 -148 l-38 18 q60 65 109 150 l48 -20 ZM289 648 q-34 69 -100 143 l42 20 q69 -75 104 -141 l-46 -22 ZM144 448 l-48 0 l0 193 l379 0 l0 193 l50 0 l0 -193 l385 0 l0 -193 l-49 0 l0 149 l-717 0 l0 -149 ZM196 441 l0 46 l602 0 l0 -46 l-602 0 ZM437 265 q-115 -156 -220 -256 l548 37 q-70 84 -142 149 l40 23 q160 -140 233 -268 l-44 -26 q-20 35 -52 78 q-626 -43 -659 -55 q-7 28 -18 52 q24 5 71 54 q83 77 177 212 l-300 0 l0 47 l854 0 l0 -47 l-488 0 Z" /><glyph glyph-name="" unicode="&#x5c31;" d="M870 615 q-33 72 -100 144 l34 20 q74 -76 102 -141 l-36 -23 ZM514 659 l-455 0 l0 45 l230 0 q-17 51 -52 119 l44 11 q39 -69 59 -130 l174 0 l0 -45 ZM203 261 q-35 -140 -101 -231 q-13 11 -38 25 q62 80 96 214 l43 -8 ZM164 379 l259 0 l0 142 l-259 0 l0 -142 ZM319 337 l0 -351 q0 -36 -23 -45 q-22 -8 -101 -8 q-3 18 -16 40 q66 -2 81 0 q14 0 14 13 l0 351 l-154 0 l0 226 l349 0 l0 -226 l-150 0 ZM446 88 q-15 75 -71 175 l35 17 q56 -88 77 -174 l-41 -18 ZM702 526 q-34 -431 -226 -598 q-25 20 -37 26 q186 157 218 572 l-134 0 l0 45 l138 0 q7 106 7 260 l46 0 q-2 -172 -7 -260 l239 0 l0 -45 l-244 0 ZM862 -8 q30 0 37 5 q13 6 17 27 q4 18 6 107 q15 -15 38 -20 q-2 -89 -9 -114 q-9 -27 -28 -35 q-19 -8 -56 -8 l-65 0 q-37 0 -56 12 q-21 14 -21 82 l0 382 l44 0 l0 -391 q0 -36 10 -42 q10 -5 30 -5 l53 0 Z" /><glyph glyph-name="" unicode="&#x5c3e;" d="M193 738 l0 -138 l634 0 l0 138 l-634 0 ZM193 556 l0 -65 q0 -379 -114 -563 q-14 14 -41 25 q107 173 107 538 l0 291 l730 0 l0 -226 l-682 0 ZM831 -15 q36 0 47 23 q10 21 14 98 q21 -14 44 -19 q-5 -89 -24 -117 q-20 -30 -80 -30 l-224 0 q-69 0 -93 18 q-24 18 -24 71 l0 106 l-277 -44 l-8 41 l285 46 l0 112 l-239 -38 l-7 42 l246 38 l0 106 q-123 -21 -226 -34 q-7 22 -15 36 q344 47 485 102 l44 -33 q-84 -30 -240 -61 l0 -108 l299 46 l7 -42 l-306 -47 l0 -112 l371 60 l8 -42 l-379 -60 l0 -114 q0 -27 13 -35 q13 -9 57 -9 l222 0 Z" /><glyph glyph-name="" unicode="&#x5c42;" d="M193 738 l0 -141 l635 0 l0 141 l-635 0 ZM193 554 l0 -62 q0 -380 -114 -564 q-14 14 -41 25 q107 174 107 539 l0 290 l730 0 l0 -228 l-682 0 ZM302 409 l0 44 l567 0 l0 -44 l-567 0 ZM526 241 q-96 -145 -184 -233 l447 24 q-65 96 -101 146 l40 18 q111 -148 172 -254 l-42 -23 q-15 28 -45 74 q-508 -31 -539 -43 q-9 35 -16 50 q20 3 59 47 q72 72 145 194 l-232 0 l0 45 l709 0 l0 -45 l-413 0 Z" /><glyph glyph-name="" unicode="&#x5c55;" d="M196 738 l0 -124 l637 0 l0 124 l-637 0 ZM196 571 l0 -80 q0 -381 -117 -564 q-11 12 -41 25 q110 173 110 539 l0 291 l732 0 l0 -211 l-684 0 ZM447 280 l231 0 l0 127 l-231 0 l0 -127 ZM881 194 q-68 -55 -177 -114 q103 -83 250 -115 q-20 -20 -29 -41 q-284 70 -389 313 l-159 0 l0 -234 l243 58 q-2 -27 1 -42 q-296 -77 -315 -90 q-8 24 -23 43 q47 22 47 68 l0 197 l-124 0 l0 43 l195 0 l0 127 l-164 0 l0 43 l164 0 l0 99 l46 0 l0 -99 l231 0 l0 99 l46 0 l0 -99 l183 0 l0 -43 l-183 0 l0 -127 l221 0 l0 -43 l-364 0 q37 -76 94 -130 q103 58 169 113 l37 -26 Z" /><glyph glyph-name="" unicode="&#x5c5e;" d="M195 746 l0 -109 l633 0 l0 109 l-633 0 ZM195 596 l0 -98 q0 -380 -116 -564 q-10 12 -40 24 q109 174 109 540 l0 290 l727 0 l0 -192 l-680 0 ZM542 309 l0 86 l-211 0 l0 -86 l211 0 ZM587 395 l0 -86 l216 0 l0 86 l-216 0 ZM892 -20 q0 -36 -27 -45 q-22 -7 -130 -7 q-2 11 -15 37 q84 -3 110 -1 q16 1 16 16 l0 184 l-259 0 l0 -91 l123 5 q-29 35 -45 52 l31 13 q71 -76 112 -138 l-33 -16 q-17 26 -38 54 l-391 -19 l-4 41 q18 1 92 3 q65 2 108 4 l0 92 l-251 0 l0 -239 l-45 0 l0 278 l296 0 l0 70 l-255 0 l0 159 l255 0 l0 66 q-123 -8 -268 -10 q-2 12 -11 36 q350 6 532 36 l32 -32 q-77 -14 -240 -27 l0 -69 l262 0 l0 -159 l-262 0 l0 -70 l305 0 l0 -223 Z" /><glyph glyph-name="" unicode="&#x5d4c;" d="M646 594 q-10 -59 -21 -104 l280 0 l9 2 l30 -10 q-43 -150 -67 -205 l-38 11 q28 70 50 158 l-276 0 q-34 -118 -83 -194 q-18 14 -40 26 q78 112 110 323 l46 -7 ZM873 633 l-745 0 l0 166 l48 0 l0 -123 l299 0 l0 158 l48 0 l0 -158 l301 0 l0 123 l49 0 l0 -166 ZM393 420 l-209 0 l0 -152 l209 0 l0 152 ZM393 61 l0 165 l-209 0 l0 -165 l209 0 ZM439 420 l0 -482 l-46 0 l0 78 l-209 0 l0 -89 l-46 0 l0 493 l-90 0 l0 45 l90 0 l0 116 l46 0 l0 -116 l209 0 l0 116 l46 0 l0 -116 l88 0 l0 -45 l-88 0 ZM747 354 q0 -47 -5 -86 q62 -224 211 -303 q-17 -13 -34 -38 q-125 76 -195 259 q-51 -155 -216 -259 q-17 21 -37 32 q229 135 229 396 l0 35 l47 0 l0 -36 Z" /><glyph glyph-name="" unicode="&#x2f2f;&#x5de5;" d="M944 56 l0 -48 l-886 0 l0 48 l415 0 l0 610 l-365 0 l0 49 l790 0 l0 -49 l-374 0 l0 -610 l420 0 Z" /><glyph glyph-name="" unicode="&#x5de6;" d="M383 599 q-105 -409 -314 -606 q-23 29 -33 37 q201 186 298 569 l-260 0 l0 46 l271 0 q21 87 37 188 l49 -8 q-20 -107 -37 -180 l529 0 l0 -46 l-540 0 ZM941 7 l0 -46 l-716 0 l0 46 l340 0 l0 331 l-240 0 l0 47 l567 0 l0 -47 l-279 0 l0 -331 l328 0 Z" /><glyph glyph-name="" unicode="&#x5de7;" d="M257 196 l161 38 l5 -46 q-243 -58 -372 -88 l-10 49 q56 10 168 36 l0 467 l-161 0 l0 47 l359 0 l0 -47 l-150 0 l0 -456 ZM620 722 q-39 -181 -70 -300 l378 0 q-1 -19 -2 -26 q-29 -378 -82 -429 q-24 -24 -77 -27 q-78 -2 -179 6 q-4 26 -18 48 q89 -9 184 -9 q37 0 49 12 q46 39 73 378 l-390 0 q40 130 86 347 l-162 0 l0 48 l543 0 l0 -48 l-333 0 Z" /><glyph glyph-name="" unicode="&#x5dee;" d="M619 24 l310 0 l0 -45 l-700 0 l0 45 l341 0 l0 176 l-210 0 l0 45 l500 0 l0 -45 l-241 0 l0 -176 ZM936 389 l0 -46 l-530 0 q-106 -228 -321 -348 q-8 9 -37 38 q202 105 304 310 l-287 0 l0 46 l309 0 q20 46 40 112 l-257 0 l0 45 l270 0 q14 52 24 106 l-340 0 l0 45 l212 0 q-32 60 -76 114 l40 17 q58 -65 87 -131 l255 0 q50 67 81 137 l50 -18 q-31 -54 -78 -119 l215 0 l0 -45 l-396 0 q-9 -54 -24 -106 l372 0 l0 -45 l-384 0 q-23 -74 -39 -112 l510 0 Z" /><glyph glyph-name="" unicode="&#x5e03;" d="M388 626 q-56 -114 -121 -201 l254 0 l0 146 l47 0 l0 -146 l308 0 l0 -329 q0 -44 -34 -54 q-32 -10 -170 -8 q-5 22 -18 43 q104 -3 152 0 q22 1 22 20 l0 282 l-260 0 l0 -454 l-47 0 l0 454 l-245 0 l0 -357 l-48 0 l0 353 q-73 -86 -157 -144 q-19 27 -30 38 q178 123 294 357 l-269 0 l0 47 l290 0 q34 75 58 160 l49 -12 q-23 -77 -55 -148 l527 0 l0 -47 l-547 0 Z" /><glyph glyph-name="" unicode="&#x5e26;" d="M86 493 l830 0 l0 -193 l-49 0 l0 150 l-345 0 l0 -130 l293 0 l0 -243 q0 -41 -30 -51 q-24 -8 -139 -8 q-3 20 -17 43 q83 -3 121 0 q17 1 17 16 l0 199 l-245 0 l0 -349 l-49 0 l0 349 l-228 0 l0 -259 l-48 0 l0 303 l276 0 l0 130 l-340 0 l0 -150 l-47 0 l0 193 ZM947 704 l0 -44 l-168 0 l0 -116 l-47 0 l0 116 l-210 0 l0 -110 l-48 0 l0 110 l-201 0 l0 -112 l-47 0 l0 112 l-171 0 l0 44 l171 0 l0 122 l47 0 l0 -122 l201 0 l0 123 l48 0 l0 -123 l210 0 l0 122 l47 0 l0 -122 l168 0 Z" /><glyph glyph-name="" unicode="&#x5e2e;" d="M306 437 q-60 -115 -189 -172 q-13 18 -34 35 q120 49 172 137 l-198 0 l0 41 l218 0 q17 43 17 88 l0 9 l-196 0 l0 41 l196 0 l0 88 l-217 0 l0 42 l217 0 l0 86 l48 0 l0 -86 l194 0 l0 -42 l-194 0 l0 -88 l177 0 l0 -41 l-177 0 l0 -9 q0 -42 -17 -88 l220 0 l0 -41 l-237 0 ZM855 45 q0 -42 -33 -52 q-24 -7 -167 -7 q-4 19 -18 41 q122 -2 148 0 q22 1 22 18 l0 166 l-285 0 l0 -284 l-48 0 l0 284 l-265 0 l0 -232 l-48 0 l0 277 l313 0 l0 82 l48 0 l0 -82 l333 0 l0 -211 ZM923 770 q-54 -75 -132 -167 q121 -70 123 -148 q1 -57 -45 -79 q-22 -11 -57 -15 q-66 -6 -120 0 q-3 21 -17 42 q73 -8 121 -3 q33 4 44 9 q29 11 29 49 q-2 65 -133 138 q65 78 114 150 l-211 0 l0 -445 l-46 0 l0 489 l289 0 l9 2 l32 -22 Z" /><glyph glyph-name="" unicode="&#x5e38;" d="M826 804 q-57 -80 -101 -127 l-38 17 q50 58 92 131 l47 -21 ZM268 676 q-29 58 -87 127 l42 19 q60 -67 91 -124 l-46 -22 ZM292 380 l427 0 l0 119 l-427 0 l0 -119 ZM850 32 q0 -43 -32 -53 q-28 -8 -157 -8 q-3 14 -18 44 q105 -3 139 -1 q19 3 19 17 l0 168 l-264 0 l0 -273 l-48 0 l0 273 l-280 0 l0 -227 l-48 0 l0 271 l328 0 l0 97 l-243 0 l0 199 l521 0 l0 -199 l-230 0 l0 -97 l313 0 l0 -211 ZM913 667 l0 -198 l-48 0 l0 154 l-723 0 l0 -154 l-46 0 l0 198 l390 0 l0 167 l49 0 l0 -167 l378 0 Z" /><glyph glyph-name="" unicode="&#x5e76;" d="M337 633 q-29 80 -111 180 l44 18 q81 -97 112 -176 l-45 -22 ZM659 335 l0 241 l-313 0 l0 -241 l313 0 ZM944 289 l-236 0 l0 -362 l-49 0 l0 362 l-316 0 q-20 -248 -252 -367 q-12 20 -33 37 q214 108 236 330 l-236 0 l0 46 l239 0 l0 241 l-200 0 l0 47 l524 0 q58 102 100 211 l51 -17 q-52 -115 -100 -194 l239 0 l0 -47 l-203 0 l0 -241 l236 0 l0 -46 Z" /><glyph glyph-name="" unicode="&#x5e8f;" d="M908 342 l34 -17 q-129 -155 -174 -194 l-38 21 q61 54 132 143 l-263 0 l0 -303 q0 -48 -39 -58 q-28 -8 -180 -8 q-3 14 -18 46 q105 -4 166 -1 q23 1 23 21 l0 303 l-333 0 l0 44 l398 0 q-102 55 -243 117 l28 29 q53 -21 157 -69 q104 49 194 127 l-470 0 l0 43 l516 0 l11 3 l33 -24 q-98 -98 -239 -170 q82 -42 92 -48 l-7 -8 l210 0 l10 3 ZM946 716 l0 -46 l-771 0 l0 -234 q0 -340 -96 -512 q-14 16 -39 27 q88 158 88 485 l0 280 l406 0 q-25 53 -55 105 l44 15 q42 -69 65 -120 l358 0 Z" /><glyph glyph-name="" unicode="&#x5e94;" d="M178 651 l0 -229 q0 -335 -94 -502 q-15 16 -40 28 q86 154 86 474 l0 275 l411 0 q-19 47 -64 127 l44 14 q46 -76 68 -127 l-40 -14 l387 0 l0 -46 l-758 0 ZM580 200 q-23 142 -84 342 l43 14 q67 -211 86 -342 l-45 -14 ZM378 148 q-27 125 -110 342 l41 18 q80 -197 114 -341 l-45 -19 ZM950 24 l0 -46 l-744 0 l0 46 l412 0 q147 243 216 540 l49 -21 q-79 -280 -216 -519 l283 0 Z" /><glyph glyph-name="" unicode="&#x5e95;" d="M175 683 l0 -247 q0 -344 -95 -515 q-21 21 -40 28 q88 158 88 487 l0 292 l409 0 q-24 54 -52 90 l43 16 q40 -49 62 -106 l357 0 l0 -45 l-772 0 ZM561 165 q72 -118 106 -196 l-39 -20 q-34 85 -104 200 l37 16 ZM617 344 q-18 95 -24 201 q-93 -9 -243 -17 l0 -184 l267 0 ZM671 300 q33 -144 88 -231 q54 -86 111 -85 q34 0 41 150 q21 -17 39 -20 q-7 -101 -24 -139 q-18 -37 -58 -37 q-77 0 -143 101 q-64 97 -100 261 l-275 0 l0 -281 l174 61 q0 -20 4 -40 q-228 -86 -245 -100 q-4 19 -19 44 q40 13 40 52 l0 531 q357 18 519 52 l39 -37 q-85 -18 -222 -33 q4 -107 23 -205 l252 0 l0 -44 l-244 0 Z" /><glyph glyph-name="" unicode="&#x5ea6;" d="M183 451 q0 -350 -96 -526 q-13 13 -42 25 q91 162 91 501 l0 274 l394 0 q-24 57 -50 99 l46 13 q38 -61 59 -112 l357 0 l0 -45 l-759 0 l0 -229 ZM432 510 l0 -129 l280 0 l0 129 l-280 0 ZM386 340 l0 170 l-176 0 l0 42 l176 0 l0 99 l46 0 l0 -99 l280 0 l0 99 l47 0 l0 -99 l172 0 l0 -42 l-172 0 l0 -170 l-373 0 ZM384 219 q64 -91 190 -152 q140 62 205 152 l-395 0 ZM850 245 q-69 -122 -224 -200 q139 -57 329 -77 q-19 -19 -28 -42 q-203 27 -354 95 q-146 -61 -370 -89 q-6 18 -22 42 q200 20 342 73 q-118 66 -182 158 l34 14 l-147 0 l0 42 l582 0 l10 3 l30 -19 Z" /><glyph glyph-name="" unicode="&#x5efa;" d="M649 699 l0 -91 l171 0 l0 91 l-171 0 ZM820 567 l-171 0 l0 -94 l171 0 l0 94 ZM603 699 l-205 0 l0 42 l205 0 l0 86 l46 0 l0 -86 l216 0 l0 -133 l77 0 l0 -41 l-77 0 l0 -136 l-216 0 l0 -92 l240 0 l0 -41 l-240 0 l0 -100 l281 0 l0 -42 l-281 0 l0 -119 l-46 0 l0 119 l-265 0 l0 42 l265 0 l0 100 l-220 0 l0 41 l220 0 l0 92 l-213 0 l0 42 l213 0 l0 94 l-275 0 l0 41 l275 0 l0 91 ZM327 482 q-27 -206 -92 -346 q121 -135 431 -137 q249 0 289 1 q-14 -21 -20 -45 l-270 0 q-320 0 -451 140 q-55 -98 -132 -160 q-15 21 -37 34 q80 59 137 164 q-55 73 -91 191 l39 17 q25 -94 73 -164 q51 116 73 268 l-164 0 q67 107 151 277 l-194 0 l0 44 l266 0 q-82 -163 -148 -277 l102 0 l9 2 l29 -9 Z" /><glyph glyph-name="" unicode="&#x5f00;" d="M662 407 l0 310 l-308 0 l0 -259 q0 -34 -1 -51 l309 0 ZM944 361 l-233 0 l0 -435 l-49 0 l0 435 l-311 0 q-22 -293 -252 -438 q-16 21 -36 35 q217 137 239 403 l-244 0 l0 46 l246 0 q1 18 1 52 l0 258 l-208 0 l0 46 l814 0 l0 -46 l-200 0 l0 -310 l233 0 l0 -46 Z" /><glyph glyph-name="" unicode="&#x5f0f;" d="M858 662 q-53 65 -152 132 l33 27 q98 -64 153 -126 l-34 -33 ZM335 64 l230 53 l5 -43 q-313 -76 -488 -117 l-16 47 l222 49 l0 320 l-196 0 l0 47 l446 0 l0 -47 l-203 0 l0 -309 ZM636 590 q20 -278 82 -446 q63 -170 149 -170 q40 0 50 193 q16 -14 43 -24 q-8 -126 -27 -172 q-20 -47 -70 -47 q-113 0 -186 189 q-67 175 -89 477 l-529 0 l0 47 l526 0 q-5 83 -7 192 l50 0 q0 -90 5 -192 l309 0 l0 -47 l-306 0 Z" /><glyph glyph-name="" unicode="&#x5f15;" d="M539 334 q-1 -18 -2 -25 q-24 -308 -68 -351 q-21 -23 -68 -24 q-58 -4 -159 4 q-2 27 -17 48 q70 -7 160 -7 q33 0 44 11 q36 31 58 299 l-340 0 l-49 -1 q29 114 53 269 l338 0 l0 187 l-382 0 l0 46 l429 0 l0 -279 l-344 0 q-38 -190 -35 -177 l382 0 ZM845 825 l0 -898 l-48 0 l0 898 l48 0 Z" /><glyph glyph-name="" unicode="&#x5f3a;" d="M63 779 l300 0 l0 -269 l-230 0 q-5 -46 -23 -182 l243 0 q-1 -18 -2 -25 q-20 -306 -57 -346 q-21 -21 -57 -22 q-40 -3 -113 3 q-2 28 -13 44 q60 -5 110 -5 q24 0 34 11 q31 29 48 295 l-216 0 l0 1 l-30 0 q22 116 36 271 l224 0 l0 179 l-254 0 l0 45 ZM636 228 l0 169 l-164 0 l0 -169 l164 0 ZM683 397 l0 -169 l168 0 l0 169 l-168 0 ZM493 586 l331 0 l0 150 l-331 0 l0 -150 ZM915 -81 q-10 26 -36 73 q-302 -27 -490 -39 l-8 48 q87 5 255 17 l0 168 l-209 0 l0 254 l209 0 l0 103 l-188 0 l0 236 l422 0 l0 -236 l-187 0 l0 -103 l213 0 l0 -254 l-213 0 l0 -166 l170 13 q-37 59 -73 102 l39 19 q100 -118 136 -213 l-40 -22 Z" /><glyph glyph-name="" unicode="&#x5f53;" d="M868 775 q-70 -136 -147 -247 l-39 19 q73 104 138 247 l48 -19 ZM267 537 q-38 106 -135 231 l42 18 q93 -112 139 -228 l-46 -21 ZM524 476 l333 0 l0 -551 l-49 0 l0 46 l-686 0 l0 47 l686 0 l0 188 l-636 0 l0 46 l636 0 l0 176 l-668 0 l0 48 l334 0 l0 357 l50 0 l0 -357 Z" /><glyph glyph-name="" unicode="&#x5f55;" d="M859 336 q-96 -86 -205 -154 q122 -125 297 -173 q-21 -19 -33 -41 q-260 80 -394 316 l0 -295 q0 -45 -34 -56 q-29 -9 -153 -7 q-3 15 -18 44 q102 -3 136 -1 q21 1 21 19 l0 176 q-292 -129 -372 -163 l-26 43 q37 14 398 164 l0 199 l-406 0 l0 44 l674 0 q6 66 8 116 l-582 0 l0 45 l584 0 q4 61 6 115 l-617 0 l0 46 l623 0 l9 3 l36 -4 q-6 -162 -18 -321 l144 0 l0 -44 l-413 0 l0 -33 q37 -87 101 -162 q121 82 193 154 l41 -30 ZM178 359 q118 -63 184 -128 l-34 -34 q-62 64 -182 134 l32 28 Z" /><glyph glyph-name="" unicode="&#x5f88;" d="M313 812 q-91 -136 -232 -231 q-12 22 -28 38 q142 94 214 211 l46 -18 ZM323 593 q-28 -53 -83 -127 l0 -539 l-47 0 l0 482 q-60 -70 -125 -123 q-19 29 -32 43 q152 114 243 281 l44 -17 ZM451 404 l366 0 l0 150 l-366 0 l0 -150 ZM451 742 l0 -145 l366 0 l0 145 l-366 0 ZM913 282 q-72 -61 -195 -133 q96 -125 239 -171 q-16 -15 -33 -42 q-262 97 -354 424 l-119 0 l0 -359 l199 51 q0 -24 2 -44 q-238 -67 -255 -80 q-3 9 -23 43 q30 15 30 61 l0 754 l460 0 l0 -426 l-249 0 q29 -100 79 -176 q116 68 185 130 l34 -32 Z" /><glyph glyph-name="" unicode="&#x5faa;" d="M275 816 q-75 -127 -189 -226 q-12 20 -30 36 q116 98 174 206 l45 -16 ZM295 614 q-29 -57 -75 -124 l0 -563 l-46 0 l0 501 q-47 -61 -103 -114 l-30 41 q128 112 211 274 l43 -15 ZM642 606 l7 130 q-123 -15 -252 -26 l0 -104 l245 0 ZM842 396 l-330 0 l0 -99 l330 0 l0 99 ZM842 20 l0 103 l-330 0 l0 -103 l330 0 ZM512 162 l330 0 l0 96 l-330 0 l0 -96 ZM685 563 q-7 -79 -12 -124 l215 0 l0 -508 l-46 0 l0 48 l-330 0 l0 -52 l-45 0 l0 512 l161 0 q7 59 11 124 l-242 0 l0 -143 q0 -327 -66 -498 q-16 15 -39 25 q59 158 59 473 l0 327 q343 28 490 68 l38 -37 q-76 -18 -182 -35 q-3 -71 -9 -137 l252 0 l0 -43 l-255 0 Z" /><glyph glyph-name="" unicode="&#x5fc5;" d="M576 596 q-123 107 -260 198 l32 34 q145 -97 260 -193 l-32 -39 ZM204 500 q-48 -230 -121 -339 l-44 21 q81 113 121 330 l44 -12 ZM658 -20 q46 0 60 39 q14 37 19 166 q23 -16 48 -23 q-8 -138 -29 -181 q-25 -48 -97 -48 l-219 0 q-70 0 -95 21 q-25 22 -25 84 l0 100 q-111 -80 -250 -145 q-13 21 -31 37 q148 66 281 165 l0 385 l49 0 l0 -347 q279 223 437 540 l47 -21 q-184 -348 -484 -578 l0 -138 q0 -34 14 -45 q14 -11 58 -11 l217 0 ZM793 497 q125 -175 171 -329 l-45 -21 q-44 151 -168 333 l42 17 Z" /><glyph glyph-name="" unicode="&#x5fd7;" d="M58 -4 q65 83 107 247 l43 -15 q-49 -176 -106 -255 l-44 23 ZM652 -15 q42 0 55 24 q12 23 16 108 q14 -10 45 -19 q-6 -97 -26 -126 q-22 -31 -87 -31 l-250 0 q-76 0 -101 16 q-26 16 -26 64 l0 233 l48 0 l0 -232 q0 -22 14 -29 q16 -8 64 -8 l248 0 ZM608 148 q-79 88 -223 172 l33 30 q147 -86 226 -169 l-36 -33 ZM796 253 q95 -147 140 -266 l-46 -20 q-44 124 -137 270 l43 16 ZM942 676 l0 -46 l-419 0 l0 -196 l360 0 l0 -46 l-759 0 l0 46 l350 0 l0 196 l-414 0 l0 46 l414 0 l0 157 l49 0 l0 -157 l419 0 Z" /><glyph glyph-name="" unicode="&#x6001;" d="M64 -7 q63 83 105 242 l43 -15 q-48 -169 -104 -250 l-44 23 ZM657 -5 q41 0 53 20 q11 20 16 98 q16 -13 45 -19 q-6 -89 -27 -116 q-21 -28 -85 -28 l-256 0 q-77 0 -102 15 q-26 16 -26 64 l0 210 l47 0 l0 -210 q0 -21 15 -27 q15 -7 66 -7 l254 0 ZM423 447 q107 -61 162 -125 l-40 -29 q-53 61 -159 127 l37 27 ZM450 293 q115 -96 172 -172 l-39 -26 q-58 77 -170 175 l37 23 ZM797 253 q95 -150 126 -262 l-47 -18 q-32 123 -123 266 l44 14 ZM551 640 q103 -253 393 -322 q-19 -17 -32 -45 q-301 85 -411 367 l-7 0 q-84 -279 -414 -367 q-13 27 -27 42 q310 76 390 325 l-380 0 l0 45 l393 0 q13 57 24 148 l50 0 q-9 -80 -25 -148 l436 0 l0 -45 l-390 0 Z" /><glyph glyph-name="" unicode="&#x601d;" d="M793 743 l-272 0 l0 -151 l272 0 l0 151 ZM793 549 l-272 0 l0 -153 l272 0 l0 153 ZM198 396 l277 0 l0 153 l-277 0 l0 -153 ZM198 592 l277 0 l0 151 l-277 0 l0 -151 ZM840 352 l-689 0 l0 436 l689 0 l0 -436 ZM596 139 q-82 79 -216 149 l32 30 q141 -72 217 -145 l-33 -34 ZM57 -3 q65 78 112 242 l42 -15 q-54 -177 -111 -250 l-43 23 ZM631 -6 q40 0 51 24 q11 24 15 114 q19 -13 46 -19 q-6 -101 -26 -132 q-21 -32 -84 -32 l-222 0 q-71 0 -95 15 q-25 16 -25 63 l0 219 l48 0 l0 -219 q0 -20 13 -27 q14 -6 59 -6 l220 0 ZM791 253 q106 -137 148 -248 l-46 -21 q-42 119 -145 251 l43 18 Z" /><glyph glyph-name="" unicode="&#x6027;" d="M36 391 q39 88 54 253 l39 -5 q-13 -165 -52 -262 l-41 14 ZM187 833 l47 0 l0 -904 l-47 0 l0 904 ZM333 484 q-21 78 -74 174 l37 17 q56 -102 74 -171 l-37 -20 ZM939 11 l0 -46 l-608 0 l0 46 l298 0 l0 279 l-223 0 l0 46 l223 0 l0 233 l-168 0 q-33 -96 -77 -166 l-43 22 q86 126 131 362 l47 -9 q-21 -100 -42 -163 l152 0 l0 216 l48 0 l0 -216 l241 0 l0 -46 l-241 0 l0 -233 l219 0 l0 -46 l-219 0 l0 -279 l262 0 Z" /><glyph glyph-name="" unicode="&#x603b;" d="M379 635 q-31 79 -108 172 l41 20 q78 -90 109 -170 l-42 -22 ZM51 7 q64 73 101 211 l45 -9 q-40 -147 -103 -224 l-43 22 ZM756 580 l-509 0 l0 -206 l509 0 l0 206 ZM807 328 l-610 0 l0 298 l379 0 q79 109 121 204 l48 -20 q-55 -101 -115 -184 l177 0 l0 -298 ZM442 307 q124 -84 188 -166 l-35 -32 q-67 88 -187 171 l34 27 ZM658 -18 q38 0 49 19 q11 19 15 90 q23 -14 45 -18 q-6 -83 -26 -108 q-20 -26 -80 -26 l-243 0 q-77 0 -102 15 q-25 15 -25 63 l0 218 l49 0 l0 -218 q0 -22 14 -28 q15 -7 64 -7 l240 0 ZM803 235 q108 -121 143 -214 l-38 -26 q-40 105 -141 218 l36 22 Z" /><glyph glyph-name="" unicode="&#x60f3;" d="M848 736 l-288 0 l0 -113 l288 0 l0 113 ZM848 582 l-288 0 l0 -115 l288 0 l0 115 ZM848 426 l-288 0 l0 -116 l288 0 l0 116 ZM894 268 l-379 0 l0 511 l379 0 l0 -511 ZM454 265 q85 -80 140 -147 l-35 -27 q-58 71 -139 152 l34 22 ZM57 -1 q53 64 99 204 l40 -17 q-46 -142 -99 -209 l-40 22 ZM254 259 l0 307 q-78 -160 -182 -243 q-16 22 -33 34 q125 87 204 279 l-182 0 l0 44 l193 0 l0 150 l46 0 l0 -150 l169 0 l0 -44 l-169 0 l0 -68 q50 -33 171 -127 l-28 -40 q-44 44 -143 122 l0 -264 l-46 0 ZM635 -6 q37 0 48 20 q10 20 14 97 q14 -13 45 -19 q-6 -89 -25 -115 q-20 -28 -79 -28 l-224 0 q-71 0 -94 14 q-24 15 -24 60 l0 173 l47 0 l0 -173 q0 -18 13 -23 q13 -6 58 -6 l221 0 ZM821 224 q70 -105 118 -201 l-45 -20 q-39 82 -115 205 l42 16 Z" /><glyph glyph-name="" unicode="&#x610f;" d="M74 -23 q66 57 119 175 l39 -17 q-56 -125 -116 -181 l-42 23 ZM762 450 l-520 0 l0 -84 l520 0 l0 84 ZM762 328 l-520 0 l0 -84 l520 0 l0 84 ZM810 205 l-614 0 l0 283 l614 0 l0 -283 ZM446 203 q103 -58 156 -116 l-30 -30 q-49 55 -156 120 l30 26 ZM618 -22 q34 0 43 19 q10 18 13 93 q19 -13 44 -18 q-5 -85 -23 -110 q-19 -27 -73 -27 l-206 0 q-66 0 -88 13 q-22 14 -22 58 l0 143 l46 0 l0 -144 q0 -17 12 -22 q12 -5 54 -5 l200 0 ZM786 164 q96 -94 137 -170 l-40 -22 q-44 83 -136 173 l39 19 ZM930 588 l0 -42 l-854 0 l0 42 l248 0 q-13 48 -47 104 l44 12 q37 -56 51 -109 l-23 -7 l272 0 q34 57 60 118 l-561 0 l0 42 l381 0 q-25 49 -47 78 l45 13 q33 -40 57 -91 l324 0 l0 -42 l-195 0 l44 -12 q-55 -105 -56 -106 l257 0 Z" /><glyph glyph-name="" unicode="&#x6210;" d="M863 668 q-72 64 -189 121 l28 31 q124 -61 189 -118 l-28 -34 ZM880 499 q-63 -193 -180 -339 q66 -177 158 -177 q42 0 52 189 q20 -18 42 -25 q-8 -123 -27 -167 q-21 -46 -70 -46 q-115 0 -190 184 q-103 -112 -231 -185 q-15 22 -35 38 q146 77 247 198 q-56 170 -76 435 l-380 0 l0 -145 l261 0 l-1 -24 q-7 -310 -31 -340 q-18 -21 -54 -22 q-39 -3 -122 2 q-4 29 -15 45 q52 -5 118 -5 q25 0 32 10 q18 20 25 289 l-213 0 l0 -37 q0 -304 -106 -454 q-23 23 -39 31 q96 138 96 424 l0 273 l426 0 q-4 89 -6 180 l49 0 q0 -83 5 -180 l329 0 l0 -47 l-326 0 q19 -239 65 -390 q93 128 149 297 l48 -12 Z" /><glyph glyph-name="" unicode="&#x6211;" d="M868 606 q-54 79 -165 175 l38 25 q113 -98 167 -170 l-40 -30 ZM885 413 q-65 -125 -181 -246 q67 -195 160 -195 q42 0 50 187 q23 -18 42 -24 q-8 -121 -27 -166 q-21 -46 -69 -46 q-119 0 -194 207 q-107 -101 -227 -163 q-20 27 -35 37 q135 69 245 176 q-38 132 -58 305 l-254 0 l0 -188 l192 44 l4 -42 l-196 -48 l0 -254 q0 -51 -38 -63 q-35 -11 -160 -9 q-5 20 -19 49 q93 -4 145 -1 q24 1 24 24 l0 241 l-224 -54 l-17 48 q178 39 241 54 l0 199 l-228 0 l0 46 l228 0 l0 187 q-90 -19 -200 -36 q-5 19 -17 40 q275 47 398 95 l36 -39 q-60 -23 -169 -49 l0 -198 l250 0 q-14 133 -16 294 l50 0 q0 -154 14 -294 l306 0 l0 -46 l-301 0 q16 -146 49 -266 q94 101 152 212 l44 -18 Z" /><glyph glyph-name="" unicode="&#x6216;" d="M870 682 q-64 59 -183 114 l27 31 q117 -51 184 -110 l-28 -35 ZM513 98 l-433 -95 l-10 49 q242 50 439 93 l4 -47 ZM423 471 l-237 0 l0 -209 l237 0 l0 209 ZM470 514 l0 -296 l-330 0 l0 296 l330 0 ZM883 521 q-69 -205 -184 -351 q67 -194 162 -194 q24 0 35 43 q11 42 16 147 q18 -18 43 -25 q-8 -124 -28 -169 q-20 -46 -70 -46 q-118 0 -195 201 q-108 -120 -245 -196 q-12 17 -35 38 q153 79 263 210 q-53 167 -72 439 l-496 0 l0 47 l495 0 q-5 81 -6 166 l51 0 q0 -95 4 -166 l308 0 l0 -47 l-306 0 q16 -241 59 -392 q96 129 154 307 l47 -12 Z" /><glyph glyph-name="" unicode="&#x622a;" d="M882 638 q-58 76 -156 146 l33 24 q106 -75 157 -142 l-34 -28 ZM357 372 l-167 0 l0 -78 l167 0 l0 78 ZM357 256 l-167 0 l0 -84 l167 0 l0 84 ZM357 134 l-167 0 l0 -83 l167 0 l0 83 ZM190 9 l0 -60 l-44 0 l0 375 q-40 -50 -60 -69 q-21 19 -36 28 q101 94 160 237 l43 -11 q-18 -42 -48 -96 l169 0 q-14 37 -52 94 l36 14 q37 -46 60 -100 l-18 -8 l163 0 l0 -41 l-164 0 l0 -78 l145 0 l0 -38 l-145 0 l0 -84 l145 0 l0 -38 l-145 0 l0 -83 l165 0 l0 -42 l-374 0 ZM888 452 q-54 -184 -147 -323 q51 -143 125 -143 q38 0 46 170 q19 -17 40 -24 q-8 -112 -25 -152 q-19 -42 -65 -42 q-95 0 -155 145 q-74 -98 -163 -159 q-21 23 -37 33 q102 68 182 179 q-47 143 -68 402 l-564 0 l0 44 l242 0 l0 104 l-200 0 l0 43 l200 0 l0 103 l47 0 l0 -103 l196 0 l0 -43 l-196 0 l0 -104 l272 0 q-6 99 -8 250 l48 0 q0 -141 7 -250 l278 0 l0 -44 l-275 0 q17 -224 54 -352 q78 125 122 279 l44 -13 Z" /><glyph glyph-name="" unicode="&#x6240;" d="M154 538 l0 -183 l230 0 l0 183 l-230 0 ZM153 310 q-8 -248 -76 -383 q-22 22 -40 30 q70 138 70 432 l0 340 q248 31 342 81 l32 -39 q-99 -50 -327 -78 l0 -110 l276 0 l0 -273 l-277 0 ZM948 447 l-131 0 l0 -519 l-47 0 l0 519 l-186 0 l0 -65 q0 -313 -129 -457 q-10 14 -38 32 q119 133 119 425 l0 345 q255 41 356 94 l36 -40 q-114 -53 -344 -89 l0 -199 l364 0 l0 -46 Z" /><glyph glyph-name="" unicode="&#x6253;" d="M422 358 l-160 -51 l0 -304 q0 -43 -31 -55 q-23 -9 -128 -9 q-2 13 -16 45 q87 -2 108 0 q20 0 20 19 l0 290 q-108 -35 -154 -48 l-17 48 q46 12 171 49 l0 236 l-162 0 l0 46 l162 0 l0 209 l47 0 l0 -209 l153 0 l0 -46 l-153 0 l0 -223 l154 48 l6 -45 ZM956 697 l-189 0 l0 -688 q0 -56 -42 -68 q-32 -9 -186 -9 q-7 25 -21 52 q107 -4 173 -1 q26 1 26 26 l0 688 l-303 0 l0 47 l542 0 l0 -47 Z" /><glyph glyph-name="" unicode="&#x6267;" d="M237 299 l0 -308 q0 -42 -30 -55 q-27 -10 -119 -9 q-3 21 -16 46 q81 -2 100 0 q19 0 19 18 l0 294 l-137 -43 l-15 47 q52 14 152 45 l0 233 l-138 0 l0 45 l138 0 l0 220 l46 0 l0 -220 l111 0 l0 -45 l-111 0 l0 -220 l118 38 l7 -45 l-125 -41 ZM818 609 q-5 -374 2 -478 q11 -156 59 -156 q27 0 32 138 q10 -9 41 -22 q-4 -94 -21 -129 q-16 -34 -56 -34 q-79 0 -98 166 q-11 95 -8 470 l-182 0 q-5 -144 -23 -247 q127 -79 175 -117 l-27 -38 q-57 46 -158 109 q-56 -229 -245 -345 q-12 20 -35 39 q187 104 239 332 q-47 29 -126 73 l26 32 q39 -19 108 -60 q16 95 19 222 l-166 0 l0 45 l167 0 q1 92 -2 224 l49 0 q2 -120 0 -224 l230 0 Z" /><glyph glyph-name="" unicode="&#x6269;" d="M682 680 q-23 60 -66 127 l41 16 q44 -66 69 -123 l-44 -20 ZM232 299 l0 -307 q0 -42 -30 -55 q-26 -10 -119 -9 q-3 21 -16 46 q81 -2 100 0 q19 0 19 19 l0 290 q-79 -29 -123 -43 l-16 48 q93 29 139 45 l0 245 l-125 0 l0 46 l125 0 l0 208 l46 0 l0 -208 l116 0 l0 -46 l-116 0 l0 -230 l111 37 l7 -45 l-118 -41 ZM947 632 l-472 0 l0 -202 q0 -338 -132 -507 q-18 20 -38 28 q123 158 123 480 l0 247 l519 0 l0 -46 Z" /><glyph glyph-name="" unicode="&#x627e;" d="M815 630 q-43 69 -138 146 l35 24 q96 -74 141 -142 l-38 -28 ZM252 306 l0 -307 q0 -45 -31 -55 q-22 -9 -127 -9 q-2 13 -16 45 q26 -1 108 -1 q19 1 19 20 l0 293 q-102 -32 -149 -46 l-17 47 q49 12 166 47 l0 238 l-153 0 l0 46 l153 0 l0 209 l47 0 l0 -209 l130 0 l0 -46 l-130 0 l0 -224 l135 42 l6 -44 l-141 -46 ZM874 429 q-61 -133 -174 -256 q69 -182 166 -189 q41 -3 59 168 q16 -15 41 -24 q-27 -203 -99 -199 q-128 9 -206 205 q-116 -111 -251 -172 q-12 20 -37 39 q148 60 270 182 q-46 135 -72 331 l-171 -18 l-5 45 l171 18 q-16 130 -24 272 l48 0 q8 -153 23 -267 l311 35 l6 -46 l-312 -34 q24 -169 64 -296 q102 113 153 230 l39 -24 Z" /><glyph glyph-name="" unicode="&#x6280;" d="M368 342 q-54 -16 -128 -41 l0 -308 q0 -44 -31 -57 q-26 -9 -128 -8 q-2 15 -16 44 q88 -2 108 0 q20 0 20 20 l0 294 l-133 -41 l-16 47 q63 17 149 43 l0 243 l-137 0 l0 46 l137 0 l0 209 l47 0 l0 -209 l118 0 l0 -46 l-118 0 l0 -229 l122 37 l6 -44 ZM479 407 q56 -153 166 -263 q127 114 184 263 l-350 0 ZM890 440 q-61 -192 -212 -328 q118 -102 275 -145 q-14 -12 -32 -41 q-160 48 -278 156 q-131 -104 -300 -156 q-6 16 -26 44 q164 44 291 145 q-114 117 -177 292 l-36 0 l0 46 l226 0 l0 168 l-247 0 l0 46 l247 0 l0 166 l48 0 l0 -166 l249 0 l0 -46 l-249 0 l0 -168 l181 0 l10 2 l30 -15 Z" /><glyph glyph-name="" unicode="&#x62a5;" d="M383 347 l-130 -42 l0 -310 q0 -47 -35 -60 q-28 -9 -147 -9 q-4 25 -17 46 q88 -3 128 0 q23 1 23 23 l0 296 q-71 -24 -150 -47 l-16 49 q59 16 166 48 l0 236 l-151 0 l0 47 l151 0 l0 208 l48 0 l0 -208 l123 0 l0 -47 l-123 0 l0 -222 l123 37 l7 -45 ZM569 417 q54 -144 155 -265 q94 124 134 265 l-289 0 ZM917 452 q-45 -188 -161 -335 q92 -99 199 -146 q-19 -16 -35 -41 q-104 52 -195 151 q-84 -97 -192 -155 q-9 12 -32 33 q110 59 193 157 q-109 130 -172 301 l-43 0 l0 -490 l-47 0 l0 872 l449 0 q0 -16 -1 -23 q-9 -189 -35 -215 q-20 -20 -63 -21 q-60 -2 -165 4 q-2 24 -14 42 q70 -6 160 -6 q33 0 43 7 q18 20 25 166 l-352 0 l0 -292 l397 0 l10 3 l31 -12 Z" /><glyph glyph-name="" unicode="&#x62e9;" d="M507 727 q55 -93 153 -167 q113 76 170 167 l-323 0 ZM899 756 q-64 -126 -200 -221 q117 -76 266 -108 q-16 -16 -30 -40 q-154 39 -275 122 q-122 -78 -276 -122 q-7 15 -26 39 q142 36 265 111 q-105 83 -163 190 l-67 0 l0 44 l467 0 l10 3 l29 -18 ZM361 354 l-121 -42 l0 -315 q0 -43 -30 -55 q-24 -9 -120 -9 q-3 20 -16 46 q24 -1 100 -1 q19 1 19 19 l0 298 l-134 -45 l-16 46 l150 49 l0 234 l-142 0 l0 45 l142 0 l0 208 l47 0 l0 -208 l124 0 l0 -45 l-124 0 l0 -218 q56 20 114 39 l7 -46 ZM679 147 l273 0 l0 -45 l-273 0 l0 -178 l-47 0 l0 178 l-265 0 l0 45 l265 0 l0 124 l-213 0 l0 44 l213 0 l0 94 l47 0 l0 -94 l197 0 l0 -44 l-197 0 l0 -124 Z" /><glyph glyph-name="" unicode="&#x6301;" d="M230 624 l118 0 l0 -45 l-118 0 l0 -225 l110 37 l7 -46 l-117 -42 l0 -312 q0 -42 -30 -55 q-27 -9 -119 -8 q-4 23 -15 45 q81 -2 100 0 q18 0 18 18 l0 297 q-66 -24 -136 -47 l-15 47 q40 12 151 50 l0 241 l-138 0 l0 45 l138 0 l0 208 l46 0 l0 -208 ZM497 237 q80 -94 115 -174 l-38 -26 q-33 81 -113 177 l36 23 ZM815 455 l0 -132 l132 0 l0 -45 l-132 0 l0 -281 q0 -50 -32 -60 q-26 -9 -147 -9 q-3 21 -16 49 q81 -4 131 -1 q19 1 19 20 l0 282 l-395 0 l0 45 l395 0 l0 132 l-408 0 l0 45 l274 0 l0 149 l-218 0 l0 45 l218 0 l0 134 l47 0 l0 -134 l219 0 l0 -45 l-219 0 l0 -149 l270 0 l0 -45 l-138 0 Z" /><glyph glyph-name="" unicode="&#x6307;" d="M386 352 l-141 -46 l0 -315 q0 -43 -30 -56 q-30 -9 -123 -8 q-3 17 -17 45 q78 -3 104 -1 q19 0 19 19 l0 300 l-143 -45 l-17 47 l160 48 l0 237 l-148 0 l0 46 l148 0 l0 210 l47 0 l0 -210 l127 0 l0 -46 l-127 0 l0 -222 l134 43 l7 -46 ZM492 310 l0 -122 l368 0 l0 122 l-368 0 ZM860 18 l0 128 l-368 0 l0 -128 l368 0 ZM446 353 l461 0 l0 -421 l-47 0 l0 43 l-368 0 l0 -48 l-46 0 l0 426 ZM828 497 q44 0 57 24 q12 23 17 108 q18 -13 45 -19 q-7 -97 -28 -127 q-22 -31 -88 -31 l-257 0 q-77 0 -102 16 q-27 17 -27 69 l0 291 l48 0 l0 -161 q243 49 352 96 l39 -36 q-136 -53 -391 -100 l0 -90 q0 -24 15 -32 q15 -8 65 -8 l255 0 Z" /><glyph glyph-name="" unicode="&#x6309;" d="M429 513 l-46 0 l0 184 l263 0 q-10 31 -44 127 l46 11 q36 -86 49 -138 l241 0 l0 -182 l-46 0 l0 138 l-463 0 l0 -140 ZM237 276 l0 -286 q0 -43 -30 -55 q-26 -9 -122 -8 q-5 18 -18 44 q84 -2 104 0 q19 0 19 19 l0 270 l-139 -47 l-14 48 q117 36 153 48 l0 270 l-143 0 l0 45 l143 0 l0 208 l47 0 l0 -208 l116 0 l0 -45 l-116 0 l0 -256 l131 43 l7 -43 l-138 -47 ZM566 392 q-31 -71 -77 -158 q78 -38 182 -98 q84 98 112 256 l-217 0 ZM835 392 q-32 -174 -122 -280 q150 -87 231 -151 l-35 -37 q-72 59 -228 154 q-101 -98 -293 -151 q-7 18 -26 42 q177 42 277 133 q-114 66 -214 115 q44 72 89 175 l-155 0 l0 45 l176 0 q43 102 64 171 l49 -7 q-23 -72 -62 -164 l368 0 l0 -45 l-119 0 Z" /><glyph glyph-name="" unicode="&#x636e;" d="M229 303 l0 -311 q0 -41 -29 -54 q-27 -10 -119 -9 q-3 20 -16 45 q81 -2 100 0 q19 0 19 19 l0 294 l-132 -46 l-16 47 l148 49 l0 242 l-137 0 l0 45 l137 0 l0 208 l45 0 l0 -208 l120 0 l0 -45 l-120 0 l0 -227 l114 39 l7 -46 l-121 -42 ZM673 424 l0 124 l-223 0 l0 -60 q0 -41 -1 -64 l224 0 ZM450 743 l0 -151 l419 0 l0 151 l-419 0 ZM873 198 l-346 0 l0 -183 l346 0 l0 183 ZM719 381 l0 -140 l199 0 l0 -311 l-45 0 l0 43 l-346 0 l0 -48 l-44 0 l0 316 l190 0 l0 140 l-225 0 q-16 -300 -120 -453 q-13 15 -40 27 q116 172 116 533 l0 299 l511 0 l0 -239 l-196 0 l0 -124 l234 0 l0 -43 l-234 0 Z" /><glyph glyph-name="" unicode="&#x63a5;" d="M918 675 l-533 0 l0 43 l242 0 q-25 52 -56 99 l43 9 q40 -55 64 -108 l240 0 l0 -43 ZM541 498 q-23 61 -81 137 l36 16 q56 -68 83 -132 l-38 -21 ZM946 440 l-600 0 l0 44 l338 0 q57 77 97 167 l48 -12 q-67 -118 -94 -155 l211 0 l0 -44 ZM219 299 l0 -309 q0 -41 -28 -54 q-27 -9 -109 -8 q-3 20 -15 45 q71 -2 90 0 q16 0 16 17 l0 294 l-124 -43 l-15 47 q44 13 139 45 l0 246 l-126 0 l0 45 l126 0 l0 208 l46 0 l0 -208 l112 0 l0 -45 l-112 0 l0 -231 q32 11 98 35 l8 -46 l-106 -38 ZM549 274 q-25 -44 -72 -111 q83 -24 190 -67 q77 66 112 178 l-230 0 ZM829 274 q-34 -125 -114 -199 q131 -57 213 -114 l-36 -37 q-77 56 -217 119 q-117 -83 -331 -114 q-7 23 -23 43 q196 24 304 92 q-106 45 -216 77 q46 57 90 133 l-164 0 l0 44 l191 0 q34 61 57 112 l44 -10 q-18 -41 -52 -102 l382 0 l0 -44 l-128 0 Z" /><glyph glyph-name="" unicode="&#x63a7;" d="M417 540 l-46 0 l0 167 l278 0 q-16 43 -48 112 l44 12 q39 -77 56 -124 l249 0 l0 -154 l-46 0 l0 110 l-487 0 l0 -123 ZM739 594 q121 -111 188 -188 l-34 -30 q-78 92 -187 192 l33 26 ZM615 578 q-83 -122 -204 -214 q-10 16 -33 36 q117 81 194 194 l43 -16 ZM226 294 l0 -300 q0 -41 -30 -54 q-26 -10 -119 -9 q-3 20 -16 45 q82 -2 101 0 q18 0 18 19 l0 282 l-129 -47 l-13 49 q73 23 142 48 l0 256 l-131 0 l0 45 l131 0 l0 205 l46 0 l0 -205 l115 0 l0 -45 l-115 0 l0 -240 l105 37 l8 -45 l-113 -41 ZM958 5 l0 -44 l-622 0 l0 44 l291 0 l0 280 l-207 0 l0 44 l468 0 l0 -44 l-212 0 l0 -280 l282 0 Z" /><glyph glyph-name="" unicode="&#x63a8;" d="M717 656 q-24 71 -76 152 l42 16 q56 -85 77 -149 l-43 -19 ZM354 343 q-84 -28 -124 -43 l0 -308 q0 -43 -30 -56 q-24 -9 -119 -9 q-3 20 -16 46 q81 -2 100 0 q18 0 18 19 l0 292 l-129 -45 l-15 48 l144 47 l0 246 l-137 0 l0 45 l137 0 l0 207 l47 0 l0 -207 l121 0 l0 -45 l-121 0 l0 -231 l117 39 l7 -45 ZM476 46 l197 0 l0 160 l-197 0 l0 -160 ZM673 605 l-197 0 l0 -154 l197 0 l0 154 ZM673 406 l-197 0 l0 -155 l197 0 l0 155 ZM946 1 l-470 0 l0 -74 l-46 0 l0 617 q-41 -74 -93 -137 q-5 5 -18 16 l-20 17 q126 139 203 386 l46 -10 q-29 -92 -64 -166 l444 0 l0 -45 l-209 0 l0 -154 l190 0 l0 -45 l-190 0 l0 -155 l190 0 l0 -45 l-190 0 l0 -160 l227 0 l0 -45 Z" /><glyph glyph-name="" unicode="&#x63d0;" d="M825 758 l-370 0 l0 -96 l370 0 l0 96 ZM825 623 l-370 0 l0 -98 l370 0 l0 98 ZM871 484 l-460 0 l0 314 l460 0 l0 -314 ZM225 302 l0 -310 q0 -41 -30 -54 q-26 -10 -118 -9 q-6 26 -16 45 q81 -2 100 0 q19 0 19 19 l0 293 q-93 -33 -130 -45 l-16 47 l67 22 q47 16 79 26 l0 243 l-133 0 l0 45 l133 0 l0 207 l45 0 l0 -207 l117 0 l0 -45 l-117 0 l0 -228 l108 36 l7 -45 l-115 -40 ZM962 -13 q-14 -22 -16 -43 l-175 0 q-128 0 -197 34 q-84 40 -128 147 q-42 -125 -129 -200 q-15 17 -37 31 q129 100 156 341 l46 -5 q-9 -69 -20 -110 q43 -138 156 -175 l0 347 l-251 0 l0 43 l562 0 l0 -43 l-267 0 l0 -135 l220 0 l0 -42 l-220 0 l0 -181 q44 -9 110 -9 l190 0 Z" /><glyph glyph-name="" unicode="&#x2f40;&#x652f;" d="M265 397 q79 -156 238 -263 q171 107 250 263 l-488 0 ZM824 425 q-84 -193 -277 -318 q172 -99 413 -132 q-9 -9 -29 -43 q-251 38 -429 147 q-177 -102 -429 -151 q-7 22 -26 45 q243 43 411 136 q-158 110 -243 286 l6 2 l-94 0 l0 47 l348 0 l0 176 l-392 0 l0 48 l392 0 l0 165 l48 0 l0 -165 l393 0 l0 -48 l-393 0 l0 -176 l259 0 l10 2 l32 -21 Z" /><glyph glyph-name="" unicode="&#x6539;" d="M425 176 q1 -20 8 -44 q-321 -127 -341 -146 q-6 22 -21 50 q28 12 28 52 l0 385 l280 0 l0 238 l-295 0 l0 47 l342 0 l0 -332 l-280 0 l0 -352 l279 102 ZM580 585 q38 -204 120 -357 q81 143 116 371 l-231 0 l-5 -14 ZM866 599 q-41 -257 -138 -418 q96 -149 229 -211 q-16 -12 -34 -40 q-132 68 -224 209 q-95 -133 -259 -216 q-15 28 -31 42 q167 77 264 219 q-75 130 -122 330 q-40 -90 -84 -150 q-17 17 -39 33 q115 149 173 435 l48 -8 q-21 -98 -48 -179 l343 0 l0 -46 l-78 0 Z" /><glyph glyph-name="" unicode="&#x6548;" d="M291 685 q-28 64 -84 128 l37 20 q60 -67 87 -126 l-40 -22 ZM506 638 l-440 0 l0 45 l440 0 l0 -45 ZM452 417 q-33 73 -107 161 l36 20 q76 -85 110 -158 l-39 -23 ZM223 586 q-54 -128 -141 -226 q-18 18 -36 28 q84 89 135 210 l42 -12 ZM417 32 q-32 63 -109 160 q-90 -144 -225 -237 q-18 21 -35 33 q138 89 229 241 q-69 80 -130 140 l36 26 q56 -54 118 -123 q39 77 64 160 l45 -10 q-29 -97 -78 -187 q86 -101 124 -172 l-39 -31 ZM643 601 q-12 -37 -26 -72 q37 -182 104 -310 q81 143 118 382 l-196 0 ZM886 601 q-42 -270 -139 -428 q87 -144 210 -205 q-9 -7 -34 -38 q-118 64 -203 201 q-91 -126 -241 -206 q-9 15 -32 38 q159 77 247 212 q-63 117 -105 285 q-31 -68 -64 -115 q-19 22 -36 33 q110 153 163 456 l46 -7 q-14 -80 -42 -180 l292 0 l0 -46 l-62 0 Z" /><glyph glyph-name="" unicode="&#x6570;" d="M496 789 q-55 -91 -89 -133 l-33 16 q52 74 80 138 l42 -21 ZM168 655 q-17 62 -67 134 l37 14 q53 -72 67 -132 l-37 -16 ZM272 551 q-84 -113 -193 -171 q-9 18 -27 39 q125 57 206 181 l-202 0 l0 42 l216 0 l0 192 l46 0 l0 -192 l213 0 l0 -42 l-213 0 l0 -1 q142 -89 183 -121 l-28 -37 q-41 37 -155 117 l0 -153 l-46 0 l0 146 ZM245 273 q-27 -53 -54 -97 q81 -33 133 -61 q72 69 106 158 l-185 0 ZM424 6 q-43 31 -95 59 q-104 -87 -253 -126 q-9 22 -24 37 q142 35 238 110 q-92 46 -160 70 q42 65 68 117 l-121 0 l0 42 l142 0 q20 43 28 69 l45 -8 q-11 -27 -27 -61 l185 0 l9 3 l27 -12 q-37 -122 -123 -210 q60 -33 94 -56 l-33 -34 ZM634 588 q32 -199 97 -338 q62 132 93 338 l-190 0 ZM870 588 q-37 -238 -116 -388 q84 -158 210 -226 q-17 -13 -34 -38 q-119 70 -201 220 q-91 -145 -246 -230 q-15 23 -30 39 q163 82 252 236 q-59 124 -98 307 q-34 -92 -77 -159 q-16 14 -40 28 q103 143 148 443 l46 -7 q-15 -92 -38 -179 l294 0 l0 -46 l-70 0 Z" /><glyph glyph-name="" unicode="&#x6574;" d="M633 672 l-3 -4 q33 -97 106 -180 q69 75 102 184 l-205 0 ZM885 672 q-38 -129 -119 -216 q79 -77 187 -116 q-17 -17 -29 -39 q-104 41 -188 125 q-82 -74 -207 -122 q-12 18 -29 37 q126 41 207 117 q-63 72 -102 166 q-34 -52 -68 -86 q-9 10 -35 31 q100 97 146 264 l45 -10 q-19 -62 -40 -108 l295 0 l0 -43 l-63 0 ZM136 533 l133 0 l0 88 l-133 0 l0 -88 ZM313 621 l0 -88 l124 0 l0 88 l-124 0 ZM269 454 q-84 -98 -194 -145 q-9 16 -30 33 q133 51 212 154 l-163 0 l0 162 l175 0 l0 62 l-208 0 l0 40 l208 0 l0 73 l44 0 l0 -73 l199 0 l0 -40 l-199 0 l0 -62 l167 0 l0 -162 l-167 0 l0 -186 l-44 0 l0 144 ZM336 482 q95 -42 147 -89 l-24 -32 q-53 48 -145 94 l22 27 ZM523 -1 l429 0 l0 -44 l-900 0 l0 44 l173 0 l0 175 l47 0 l0 -175 l204 0 l0 237 l-354 0 l0 43 l764 0 l0 -43 l-363 0 l0 -95 l306 0 l0 -41 l-306 0 l0 -101 Z" /><glyph glyph-name="" unicode="&#x2f42;&#x6587;" d="M511 665 q-24 69 -81 157 l47 14 q61 -89 85 -154 l-51 -17 ZM260 604 q84 -216 241 -370 q150 149 233 370 l-474 0 ZM789 604 q-94 -247 -252 -404 q176 -159 421 -223 q-10 -9 -34 -44 q-244 67 -423 232 q-166 -147 -426 -236 q-9 20 -31 46 q257 79 421 224 q-165 170 -255 405 l-155 0 l0 47 l893 0 l0 -47 l-159 0 Z" /><glyph glyph-name="" unicode="&#x65b0;" d="M502 682 l-435 0 l0 43 l213 0 q-24 52 -52 98 l43 12 q44 -71 61 -110 l170 0 l0 -43 ZM184 503 q-9 75 -44 157 l40 9 q37 -77 46 -154 l-42 -12 ZM193 232 q-38 -115 -104 -194 q-21 17 -37 26 q62 68 99 178 l42 -10 ZM310 286 l0 -279 q0 -37 -23 -48 q-19 -8 -94 -8 q-5 20 -17 44 q37 -1 77 -1 q13 0 13 13 l0 279 l-209 0 l0 44 l209 0 l0 121 l-213 0 l0 43 l280 0 q39 95 60 177 l46 -12 q-39 -114 -60 -165 l139 0 l0 -43 l-208 0 l0 -121 l200 0 l0 -44 l-200 0 ZM399 244 q59 -90 86 -166 l-38 -19 q-23 69 -84 168 l36 17 ZM951 447 l-119 0 l0 -515 l-47 0 l0 515 l-184 0 l0 -48 q0 -314 -109 -464 q-12 17 -36 30 q100 137 100 434 l0 337 q218 35 316 74 l42 -36 q-126 -44 -313 -70 l0 -212 l350 0 l0 -45 Z" /><glyph glyph-name="" unicode="&#x2f45;&#x65b9;" d="M525 663 q-19 57 -70 154 l45 17 q52 -92 72 -150 l-47 -21 ZM414 605 q-8 -122 -17 -182 l426 0 q-1 -19 -2 -26 q-28 -381 -78 -434 q-24 -23 -74 -26 q-59 -4 -165 6 q-2 26 -17 46 q85 -8 169 -8 q31 0 46 11 q43 39 69 384 l-382 0 q-56 -329 -299 -451 q-12 21 -36 37 q178 85 249 280 q47 128 59 363 l-283 0 l0 47 l847 0 l0 -47 l-512 0 Z" /><glyph glyph-name="" unicode="&#x2f46;&#x65e0;" d="M837 -4 q41 0 53 30 q11 29 15 136 q21 -14 47 -20 q-6 -118 -26 -154 q-21 -39 -86 -39 l-209 0 q-68 0 -91 19 q-24 18 -24 72 l0 375 l-37 0 q-73 -361 -399 -490 q-13 23 -33 39 q308 115 385 451 l-374 0 l0 47 l382 0 q18 98 22 254 l-341 0 l0 47 l765 0 l0 -47 l-377 0 q-6 -162 -22 -254 l457 0 l0 -47 l-380 0 l0 -376 q0 -26 13 -34 q14 -9 56 -9 l204 0 Z" /><glyph glyph-name="" unicode="&#x65e7;" d="M131 789 l49 0 l0 -861 l-49 0 l0 861 ZM824 50 l0 321 l-417 0 l0 -321 l417 0 ZM407 714 l0 -298 l417 0 l0 298 l-417 0 ZM873 760 l0 -822 l-49 0 l0 66 l-417 0 l0 -74 l-48 0 l0 830 l514 0 Z" /><glyph glyph-name="" unicode="&#x65f6;" d="M138 700 l0 -244 l201 0 l0 244 l-201 0 ZM339 158 l0 254 l-201 0 l0 -254 l201 0 ZM385 113 l-247 0 l0 -81 l-46 0 l0 713 l293 0 l0 -632 ZM954 576 l-132 0 l0 -564 q0 -57 -44 -69 q-33 -10 -191 -8 q-6 25 -20 49 q132 -3 179 -1 q28 1 28 29 l0 564 l-339 0 l0 48 l339 0 l0 203 l48 0 l0 -203 l132 0 l0 -48 ZM641 214 q-69 126 -158 253 l39 19 q111 -156 161 -247 l-42 -25 Z" /><glyph glyph-name="" unicode="&#x662f;" d="M774 747 l-555 0 l0 -100 l555 0 l0 100 ZM774 608 l-555 0 l0 -100 l555 0 l0 100 ZM822 467 l-650 0 l0 321 l650 0 l0 -321 ZM955 -5 q-12 -16 -19 -46 l-267 0 q-171 0 -261 36 q-104 42 -162 151 q-59 -133 -164 -211 q-18 23 -37 35 q158 107 201 342 l48 -7 q-11 -58 -26 -103 q59 -146 215 -180 l0 329 l-423 0 l0 44 l881 0 l0 -44 l-411 0 l0 -134 l345 0 l0 -44 l-345 0 l0 -160 q56 -8 140 -8 l285 0 Z" /><glyph glyph-name="" unicode="&#x6700;" d="M776 762 l-546 0 l0 -86 l546 0 l0 86 ZM776 638 l-546 0 l0 -89 l546 0 l0 89 ZM824 511 l-641 0 l0 290 l641 0 l0 -290 ZM200 49 q123 13 210 25 l0 76 l-210 0 l0 -101 ZM200 402 l0 -85 l210 0 l0 85 l-210 0 ZM200 190 l210 0 l0 87 l-210 0 l0 -87 ZM457 40 l0 -113 l-47 0 l0 106 l-353 -46 l-6 44 l103 12 l0 359 l-100 0 l0 42 l889 0 l0 -42 l-486 0 l0 -322 l58 7 l0 -39 l-58 -8 ZM594 281 q40 -104 122 -181 q88 77 132 181 l-254 0 ZM905 312 q-45 -138 -156 -241 q87 -72 206 -104 q-17 -17 -29 -39 q-121 38 -212 114 q-90 -71 -207 -112 q-13 25 -26 36 q109 34 202 105 q-88 87 -134 209 l3 1 l-52 0 l0 42 l368 0 l10 3 l27 -14 Z" /><glyph glyph-name="" unicode="&#x6709;" d="M766 470 l-452 0 l0 -126 l452 0 l0 126 ZM766 173 l0 128 l-452 0 l0 -128 l452 0 ZM390 652 q-31 -70 -73 -138 l496 0 l0 -515 q0 -50 -36 -60 q-29 -9 -172 -9 q-3 12 -17 48 q98 -4 155 -1 q23 0 23 23 l0 129 l-452 0 l0 -202 l-47 0 l0 515 q-81 -110 -187 -186 q-8 15 -30 37 q181 125 290 359 l-270 0 l0 46 l290 0 q25 58 47 134 l47 -11 q-22 -72 -44 -123 l525 0 l0 -46 l-545 0 Z" /><glyph glyph-name="" unicode="&#x670d;" d="M348 314 l0 197 l-184 0 l0 -72 q0 -59 -3 -125 l187 0 ZM164 749 l0 -192 l184 0 l0 192 l-184 0 ZM394 -8 q0 -44 -31 -57 q-26 -9 -130 -8 q-2 20 -15 45 q88 -2 110 0 q20 1 20 21 l0 275 l-190 0 q-15 -219 -76 -343 q-18 18 -40 24 q77 156 77 490 l0 355 l275 0 l0 -802 ZM626 411 q47 -151 128 -265 q84 117 123 265 l-251 0 ZM930 447 q-42 -196 -149 -337 q79 -97 179 -148 q-18 -15 -33 -37 q-93 51 -173 150 q-75 -86 -166 -139 q-10 17 -29 35 q91 48 168 140 q-91 126 -144 300 l-36 0 l0 -484 l-47 0 l0 864 l402 0 l0 -193 q0 -41 -31 -51 q-26 -8 -148 -8 q-3 15 -18 43 q109 -2 131 0 q20 0 20 16 l0 148 l-309 0 l0 -290 l346 0 l9 2 l28 -11 Z" /><glyph glyph-name="" unicode="&#x671f;" d="M192 217 l215 0 l0 122 l-215 0 l0 -122 ZM192 647 l0 -106 l215 0 l0 106 l-215 0 ZM192 380 l215 0 l0 119 l-215 0 l0 -119 ZM534 173 l-489 0 l0 44 l102 0 l0 430 l-88 0 l0 44 l88 0 l0 130 l45 0 l0 -130 l215 0 l0 130 l46 0 l0 -130 l77 0 l0 -44 l-77 0 l0 -430 l81 0 l0 -44 ZM238 131 q-53 -119 -147 -204 q-29 23 -40 29 q92 76 141 188 l46 -13 ZM371 141 q70 -82 102 -150 l-40 -24 q-30 69 -100 153 l38 21 ZM873 314 l0 190 l-239 0 l0 -84 q0 -50 -3 -106 l242 0 ZM634 735 l0 -186 l239 0 l0 186 l-239 0 ZM920 1 q0 -48 -33 -59 q-28 -10 -142 -10 q-3 22 -17 48 q100 -2 124 0 q21 1 21 22 l0 267 l-245 0 q-19 -225 -99 -348 q-18 20 -39 29 q98 149 98 470 l0 361 l332 0 l0 -780 Z" /><glyph glyph-name="" unicode="&#x672a;" d="M560 367 q155 -229 399 -338 q-13 -10 -35 -39 q-240 117 -401 355 l0 -418 l-49 0 l0 414 q-151 -227 -395 -352 q-19 26 -35 40 q242 108 394 338 l-371 0 l0 47 l407 0 l0 199 l-336 0 l0 48 l336 0 l0 171 l49 0 l0 -171 l348 0 l0 -48 l-348 0 l0 -199 l414 0 l0 -47 l-377 0 Z" /><glyph glyph-name="" unicode="&#x672c;" d="M590 564 q130 -309 369 -431 q-16 -13 -36 -40 q-247 141 -380 471 l-19 0 l0 -392 l249 0 l0 -48 l-249 0 l0 -197 l-49 0 l0 197 l-247 0 l0 48 l247 0 l0 392 l-21 0 q-131 -318 -372 -473 q-15 22 -34 38 q225 130 357 435 l-335 0 l0 48 l405 0 l0 220 l49 0 l0 -220 l409 0 l0 -48 l-343 0 Z" /><glyph glyph-name="" unicode="&#x672f;" d="M794 631 q-71 71 -188 149 l35 30 q120 -77 188 -144 l-35 -35 ZM546 528 q164 -277 403 -429 q-22 -20 -37 -40 q-213 149 -386 417 l0 -550 l-51 0 l0 531 q-162 -274 -394 -406 q-20 27 -36 40 q262 135 416 437 l-391 0 l0 47 l405 0 l0 257 l51 0 l0 -257 l395 0 l0 -47 l-375 0 Z" /><glyph glyph-name="" unicode="&#x6761;" d="M358 165 q-87 -115 -211 -200 q-17 23 -34 34 q127 80 207 186 l38 -20 ZM524 235 l0 -248 q0 -36 -25 -48 q-20 -7 -107 -7 q-4 18 -17 42 q40 -1 87 -1 q14 1 14 14 l0 248 l-325 0 l0 44 l325 0 l0 122 l48 0 l0 -122 l318 0 l0 -44 l-318 0 ZM666 187 q133 -107 197 -192 l-37 -30 q-68 94 -195 196 l35 26 ZM333 685 q62 -87 168 -150 q119 68 184 156 l-346 0 l-6 -6 ZM759 717 q-70 -120 -213 -207 q173 -91 413 -122 q-17 -17 -29 -43 q-253 37 -430 138 q-184 -102 -435 -143 q-7 25 -22 43 q234 36 413 128 q-97 63 -156 143 q-90 -79 -183 -128 q-15 23 -34 34 q212 107 308 275 l54 -10 q-33 -51 -66 -90 l339 0 l10 3 l31 -21 Z" /><glyph glyph-name="" unicode="&#x6765;" d="M565 340 q159 -225 396 -328 q-13 -11 -34 -40 q-238 116 -403 352 l0 -397 l-49 0 l0 397 q-155 -229 -398 -349 q-15 24 -34 40 q233 100 392 325 l-374 0 l0 47 l414 0 l0 271 l-366 0 l0 47 l366 0 l0 126 l49 0 l0 -126 l374 0 l0 -47 l-374 0 l0 -271 l417 0 l0 -47 l-376 0 ZM240 622 q77 -109 101 -195 l-45 -18 q-25 92 -97 197 l41 16 ZM659 419 q66 98 110 209 l49 -18 q-73 -143 -119 -205 l-40 14 Z" /><glyph glyph-name="" unicode="&#x6784;" d="M263 536 q56 -76 119 -179 l-32 -39 q-28 59 -87 155 l0 -545 l-47 0 l0 547 q-66 -220 -145 -330 q-16 28 -30 43 q108 143 168 403 l-152 0 l0 46 l159 0 l0 196 l47 0 l0 -196 l127 0 l0 -46 l-127 0 l0 -55 ZM742 140 q-6 26 -24 76 q-257 -50 -283 -63 q-5 24 -14 45 q14 3 44 61 q67 134 103 281 l47 -13 q-52 -171 -127 -313 l217 40 q-31 80 -60 136 l36 12 q73 -147 99 -246 l-38 -16 ZM930 637 q-22 -621 -68 -678 q-20 -28 -65 -31 q-44 -3 -124 2 q-2 28 -15 48 q56 -5 124 -5 q27 -1 38 15 q42 47 62 632 l-378 0 q-39 -95 -95 -172 l-42 29 q103 124 158 356 l47 -10 q-19 -75 -49 -157 l407 0 l0 -29 Z" /><glyph glyph-name="" unicode="&#x679c;" d="M475 445 l0 127 l-262 0 l0 -127 l262 0 ZM213 614 l262 0 l0 126 l-262 0 l0 -126 ZM792 740 l-268 0 l0 -126 l268 0 l0 126 ZM792 572 l-268 0 l0 -127 l268 0 l0 127 ZM574 256 q151 -167 383 -248 q-23 -21 -34 -40 q-243 97 -399 281 l0 -321 l-49 0 l0 316 q-150 -184 -396 -280 q-10 17 -34 39 q233 80 382 253 l-359 0 l0 45 l407 0 l0 100 l-311 0 l0 383 l677 0 l0 -383 l-317 0 l0 -100 l408 0 l0 -45 l-358 0 Z" /><glyph glyph-name="" unicode="&#x67b6;" d="M857 705 l-245 0 l0 -237 l245 0 l0 237 ZM904 425 l-338 0 l0 324 l338 0 l0 -324 ZM264 679 q-35 -222 -190 -301 q-15 21 -31 34 q142 70 174 267 l-158 0 l0 44 l164 0 q4 36 8 108 l48 0 q-3 -57 -9 -108 l207 0 q-1 -16 -2 -22 q-19 -241 -49 -273 q-20 -19 -52 -20 q-30 -3 -96 2 q-2 24 -13 43 q41 -4 93 -4 q20 -1 30 9 q23 27 38 221 l-162 0 ZM565 245 q135 -177 382 -249 q-19 -19 -32 -42 q-254 89 -393 275 l0 -302 l-48 0 l0 312 q-143 -193 -395 -291 q-17 26 -33 39 q235 82 379 258 l-358 0 l0 45 l407 0 l0 111 l48 0 l0 -111 l394 0 l0 -45 l-351 0 Z" /><glyph glyph-name="" unicode="&#x67d0;" d="M299 423 l400 0 l0 111 l-400 0 l0 -111 ZM299 679 l0 -103 l400 0 l0 103 l-400 0 ZM578 234 q146 -163 379 -241 q-15 -11 -34 -40 q-260 99 -400 281 l-1 0 l0 -307 l-48 0 l0 307 l-1 0 q-139 -182 -396 -284 q-14 21 -33 40 q228 78 373 244 l-358 0 l0 44 l415 0 l0 102 l-222 0 l0 299 l-192 0 l0 44 l192 0 l0 110 l47 0 l0 -110 l400 0 l0 110 l48 0 l0 -110 l194 0 l0 -44 l-194 0 l0 -299 l-225 0 l0 -102 l420 0 l0 -44 l-364 0 Z" /><glyph glyph-name="" unicode="&#x67e5;" d="M83 6 l840 0 l0 -44 l-840 0 l0 44 ZM722 356 l-443 0 l0 -102 l443 0 l0 102 ZM722 216 l-443 0 l0 -103 l443 0 l0 103 ZM770 395 l0 -321 l-538 0 l0 321 l538 0 ZM583 652 q146 -162 373 -236 q-18 -17 -32 -40 q-246 90 -395 276 l-7 0 l0 -225 l-47 0 l0 225 l-7 0 q-145 -186 -391 -285 q-17 25 -32 39 q224 80 367 246 l-350 0 l0 44 l413 0 l0 136 l47 0 l0 -136 l418 0 l0 -44 l-357 0 Z" /><glyph glyph-name="" unicode="&#x6807;" d="M896 702 l-431 0 l0 46 l431 0 l0 -46 ZM372 321 q-30 53 -104 156 l0 -549 l-48 0 l0 542 q-70 -200 -159 -304 q-12 22 -31 41 q114 128 179 360 l-149 0 l0 45 l160 0 l0 220 l48 0 l0 -220 l139 0 l0 -45 l-139 0 l0 -30 q95 -114 137 -178 l-33 -38 ZM552 331 q-50 -184 -137 -303 q-24 19 -40 26 q84 105 132 287 l45 -10 ZM825 343 q88 -171 121 -297 l-46 -16 q-33 136 -118 300 l43 13 ZM950 509 l0 -45 l-255 0 l0 -467 q0 -46 -33 -58 q-28 -9 -140 -9 q-2 18 -17 49 q83 -3 122 0 q19 1 19 18 l0 467 l-223 0 l0 45 l527 0 Z" /><glyph glyph-name="" unicode="&#x6837;" d="M536 649 q-28 75 -90 161 l41 17 q67 -92 92 -158 l-43 -20 ZM326 327 q-19 48 -81 154 l0 -553 l-46 0 l0 532 q-58 -207 -131 -315 q-8 16 -30 43 q103 144 156 403 l-130 0 l0 46 l135 0 l0 196 l46 0 l0 -196 l112 0 l0 -46 l-112 0 l0 -44 q44 -59 114 -182 l-33 -38 ZM937 174 l-259 0 l0 -247 l-48 0 l0 247 l-275 0 l0 45 l275 0 l0 167 l-201 0 l0 45 l201 0 l0 162 l-232 0 l0 45 l333 0 q62 92 106 196 l48 -19 q-62 -114 -102 -177 l132 0 l0 -45 l-237 0 l0 -162 l204 0 l0 -45 l-204 0 l0 -167 l259 0 l0 -45 Z" /><glyph glyph-name="" unicode="&#x6839;" d="M263 637 l128 0 l0 -46 l-128 0 l0 -55 q48 -67 117 -180 l-31 -37 q-26 52 -86 154 l0 -545 l-45 0 l0 548 q-65 -220 -146 -332 q-9 20 -29 44 q108 143 168 403 l-154 0 l0 46 l161 0 l0 196 l45 0 l0 -196 ZM478 404 l341 0 l0 150 l-341 0 l0 -150 ZM478 742 l0 -145 l341 0 l0 145 l-341 0 ZM927 282 q-73 -61 -191 -128 q86 -126 220 -176 q-19 -17 -34 -42 q-239 101 -323 424 l-121 0 l0 -362 l207 53 q0 -23 2 -43 q-233 -66 -255 -80 q-6 24 -22 45 q21 8 21 46 l0 767 l435 0 l0 -426 l-223 0 q24 -93 70 -171 q112 68 179 125 l35 -32 Z" /><glyph glyph-name="" unicode="&#x683c;" d="M342 343 q-18 36 -86 147 l0 -562 l-47 0 l0 550 q-65 -223 -143 -332 q-14 27 -29 43 q108 145 164 402 l-144 0 l0 46 l152 0 l0 196 l47 0 l0 -196 l120 0 l0 -46 l-120 0 l0 -39 q42 -56 118 -170 l-32 -39 ZM491 240 l0 -218 l324 0 l0 218 l-324 0 ZM445 284 l417 0 l0 -356 l-47 0 l0 49 l-324 0 l0 -49 l-46 0 l0 356 ZM519 663 q49 -97 138 -175 q108 87 164 192 l-292 0 l-10 -17 ZM888 707 q-64 -142 -195 -248 q116 -87 267 -132 q-14 -16 -22 -41 q-158 51 -278 147 q-129 -97 -305 -157 q-12 28 -28 41 q168 53 297 146 q-84 78 -129 159 q-44 -69 -94 -120 q-11 15 -34 35 q119 116 184 296 l44 -12 q-26 -66 -42 -97 l296 0 l10 2 l29 -19 Z" /><glyph glyph-name="" unicode="&#x6846;" d="M253 524 q86 -94 132 -158 l-27 -40 q-36 57 -105 145 l0 -541 l-46 0 l0 527 q-63 -213 -144 -326 q-9 21 -28 42 q111 147 166 399 l-152 0 l0 46 l158 0 l0 217 l46 0 l0 -217 l121 0 l0 -46 l-121 0 l0 -48 ZM954 21 l0 -45 l-551 0 l0 797 l536 0 l0 -46 l-490 0 l0 -706 l505 0 ZM675 184 l0 185 l-158 0 l0 43 l158 0 l0 166 l-175 0 l0 44 l416 0 l0 -44 l-195 0 l0 -166 l172 0 l0 -43 l-172 0 l0 -185 l206 0 l0 -43 l-437 0 l0 43 l185 0 Z" /><glyph glyph-name="" unicode="&#x6a21;" d="M517 699 l-163 0 l0 43 l163 0 l0 91 l46 0 l0 -91 l175 0 l0 91 l47 0 l0 -91 l155 0 l0 -43 l-155 0 l0 -86 l-47 0 l0 86 l-175 0 l0 -86 l-46 0 l0 86 ZM320 307 q-16 42 -84 172 l0 -550 l-46 0 l0 519 q-55 -202 -120 -303 q-10 23 -29 43 q94 141 146 403 l-131 0 l0 46 l134 0 l0 196 l46 0 l0 -196 l112 0 l0 -46 l-112 0 l0 -44 q57 -84 118 -203 l-34 -37 ZM448 336 l390 0 l0 89 l-390 0 l0 -89 ZM448 464 l390 0 l0 88 l-390 0 l0 -88 ZM685 156 q75 -147 272 -189 q-16 -15 -31 -40 q-213 55 -288 229 l-7 0 q-63 -171 -295 -229 q-12 24 -26 38 q210 48 270 191 l-249 0 l0 43 l264 0 q12 43 18 97 l-210 0 l0 296 l482 0 l0 -296 l-225 0 q-6 -49 -17 -97 l293 0 l0 -43 l-251 0 Z" /><glyph glyph-name="" unicode="&#x6b21;" d="M453 607 q-50 -134 -103 -212 q-20 14 -46 27 q107 146 159 410 l50 -9 q-19 -90 -45 -169 l405 0 l10 3 l34 -18 q-34 -132 -104 -260 l-40 21 q55 102 84 207 l-404 0 ZM257 593 q-69 69 -189 136 l29 34 q120 -62 190 -130 l-30 -40 ZM300 337 q-110 -178 -206 -302 l-43 33 q101 121 212 299 l37 -30 ZM630 485 q0 -44 -2 -66 q74 -354 322 -444 q-19 -19 -32 -41 q-216 86 -306 375 q-56 -243 -338 -384 q-13 21 -34 36 q212 105 291 266 q50 104 50 259 l0 62 l49 0 l0 -63 Z" /><glyph glyph-name="" unicode="&#x6b63;" d="M944 22 l0 -47 l-887 0 l0 47 l144 0 l0 485 l49 0 l0 -485 l248 0 l0 685 l-400 0 l0 47 l811 0 l0 -47 l-362 0 l0 -294 l329 0 l0 -47 l-329 0 l0 -344 l397 0 Z" /><glyph glyph-name="" unicode="&#x6b64;" d="M531 82 l3 -49 l-472 -89 l-10 52 l85 15 l0 623 l47 0 l0 -615 l137 24 l0 790 l48 0 l0 -316 l157 0 l0 -46 l-157 0 l0 -419 l162 30 ZM857 12 q35 0 46 37 q10 33 14 149 q23 -17 47 -23 q-6 -124 -24 -164 q-21 -45 -80 -45 l-170 0 q-62 0 -83 22 q-22 22 -22 88 l0 757 l51 0 l0 -382 q172 93 247 162 l41 -37 q-107 -84 -288 -172 l0 -330 q0 -39 11 -50 q11 -12 47 -12 l163 0 Z" /><glyph glyph-name="" unicode="&#x6bcf;" d="M252 681 q-73 -123 -163 -212 q-18 16 -42 30 q144 128 232 340 l47 -14 q-28 -62 -49 -99 l644 0 l0 -45 l-669 0 ZM584 353 q-70 66 -193 121 l29 29 q124 -53 193 -117 l-29 -33 ZM386 277 q135 -66 207 -136 l-30 -34 q-72 74 -205 141 l28 29 ZM750 101 q9 71 15 191 l-525 0 l-31 -191 l541 0 ZM272 522 q-6 -53 -25 -186 l519 0 q6 100 8 186 l-502 0 ZM812 292 q-5 -109 -14 -191 l125 0 l0 -44 l-131 0 q-11 -76 -30 -101 q-22 -26 -64 -29 q-52 -2 -125 4 q-2 22 -13 41 q68 -5 123 -5 q26 0 37 13 q15 20 24 77 l-591 0 q22 111 41 235 l-144 0 l0 44 l150 0 q17 116 31 230 l591 0 l-9 -230 l140 0 l0 -44 l-141 0 Z" /><glyph glyph-name="" unicode="&#x2f50;&#x6bd4;" d="M457 97 q-1 -21 3 -48 q-302 -91 -326 -110 q-8 24 -25 43 q34 23 34 67 l0 775 l49 0 l0 -307 l261 0 l0 -47 l-261 0 l0 -450 l265 77 ZM817 -1 q41 0 53 47 q12 41 17 190 q19 -16 46 -24 q-6 -154 -25 -202 q-23 -56 -89 -56 l-167 0 q-63 0 -84 23 q-22 23 -22 92 l0 762 l48 0 l0 -388 q179 94 273 185 l43 -39 q-113 -93 -316 -195 l0 -328 q0 -42 12 -54 q11 -13 49 -13 l162 0 Z" /><glyph glyph-name="" unicode="&#x6c49;" d="M286 673 q-72 61 -189 112 l23 32 q125 -54 191 -109 l-25 -35 ZM231 403 q-68 56 -183 110 l23 31 q116 -50 183 -105 l-23 -36 ZM300 269 q-95 -185 -186 -326 l-37 30 q89 124 190 325 l33 -29 ZM455 703 q64 -284 187 -465 q145 188 200 465 l-387 0 ZM894 741 q-56 -330 -224 -543 q123 -160 294 -231 q-16 -13 -32 -37 q-171 75 -291 233 q-136 -156 -336 -237 q-13 24 -29 40 q196 73 336 236 q-130 190 -202 501 l-50 0 l0 46 l495 0 l9 2 l30 -10 Z" /><glyph glyph-name="" unicode="&#x6cd5;" d="M231 407 q-68 56 -183 110 l27 34 q111 -46 182 -104 l-26 -40 ZM80 -26 q92 128 190 325 l35 -31 q-93 -184 -184 -327 l-41 33 ZM125 822 q118 -47 191 -105 l-27 -42 q-73 63 -191 113 l27 34 ZM642 352 q-97 -193 -202 -322 l369 43 q-40 67 -101 144 l38 18 q133 -164 180 -285 l-41 -22 q-14 38 -53 106 q-427 -53 -454 -66 q-4 22 -16 49 q19 4 64 66 q86 110 160 269 l-246 0 l0 46 l269 0 l0 204 l-223 0 l0 46 l223 0 l0 185 l48 0 l0 -185 l233 0 l0 -46 l-233 0 l0 -204 l275 0 l0 -46 l-290 0 Z" /><glyph glyph-name="" unicode="&#x6ce8;" d="M639 650 q-24 72 -90 169 l43 18 q68 -98 93 -166 l-46 -21 ZM288 674 q-70 57 -190 113 l27 34 q130 -59 191 -107 l-28 -40 ZM231 404 q-72 56 -183 109 l27 35 q124 -59 182 -104 l-26 -40 ZM303 267 q-93 -184 -184 -327 l-41 33 q93 132 191 326 l34 -32 ZM955 6 l0 -46 l-662 0 l0 46 l307 0 l0 289 l-237 0 l0 46 l237 0 l0 253 l-275 0 l0 46 l607 0 l0 -46 l-282 0 l0 -253 l246 0 l0 -46 l-246 0 l0 -289 l305 0 Z" /><glyph glyph-name="" unicode="&#x6d41;" d="M895 374 q-20 32 -54 77 q-470 -32 -497 -43 q-5 21 -15 49 q42 10 59 27 q30 26 137 167 l-211 0 l0 45 l299 0 q-21 67 -50 123 l43 11 q37 -71 57 -134 l279 0 l0 -45 l-360 0 q-71 -96 -143 -181 l369 22 q-38 48 -92 106 l37 22 q117 -120 182 -220 l-40 -26 ZM258 651 q-59 65 -164 135 l30 32 q108 -68 163 -131 l-29 -36 ZM226 400 q-68 63 -179 113 l27 34 q113 -48 179 -106 l-27 -41 ZM301 267 q-96 -190 -185 -326 l-40 32 q89 129 190 325 l35 -31 ZM403 365 l45 0 l0 -110 q0 -221 -150 -327 q-17 21 -35 33 q140 94 140 295 l0 109 ZM584 362 l44 0 l0 -393 l-44 0 l0 393 ZM877 -16 q18 0 26 4 q9 7 12 28 q2 20 4 103 q17 -14 36 -18 q-2 -87 -8 -113 q-6 -25 -23 -35 q-15 -9 -43 -9 l-48 0 q-31 0 -47 13 q-17 12 -17 79 l0 329 l45 0 l0 -339 q0 -32 7 -38 q5 -4 20 -4 l36 0 Z" /><glyph glyph-name="" unicode="&#x6e90;" d="M263 669 q-60 50 -168 118 l28 32 q103 -61 169 -111 l-29 -39 ZM217 409 q-74 57 -172 110 l29 32 q108 -58 171 -103 l-28 -39 ZM268 265 q-82 -192 -155 -323 l-42 28 q79 132 158 323 l39 -28 ZM390 513 q0 -389 -133 -579 q-14 14 -39 24 q125 180 125 555 l0 273 l602 0 l0 -45 l-555 0 l0 -228 ZM553 196 q-56 -121 -134 -205 q-5 4 -40 26 q79 79 129 190 l45 -11 ZM507 314 l348 0 l0 108 l-348 0 l0 -108 ZM507 461 l348 0 l0 106 l-348 0 l0 -106 ZM700 273 l0 -289 q0 -40 -28 -50 q-25 -9 -133 -7 q-5 21 -15 42 q28 -1 112 -1 q18 1 18 16 l0 289 l-192 0 l0 335 l162 0 q20 59 31 109 l51 -13 q-26 -70 -37 -96 l232 0 l0 -335 l-201 0 ZM831 213 q76 -104 125 -192 l-44 -21 q-49 93 -122 197 l41 16 Z" /><glyph glyph-name="" unicode="&#x70b9;" d="M778 477 l-558 0 l0 -209 l558 0 l0 209 ZM826 222 l-652 0 l0 301 l293 0 l0 310 l48 0 l0 -118 l390 0 l0 -45 l-390 0 l0 -147 l311 0 l0 -301 ZM51 -53 q82 70 142 202 l44 -12 q-63 -137 -143 -211 l-43 21 ZM399 131 q24 -106 24 -186 l-48 -8 q0 89 -23 191 l47 3 ZM603 137 q57 -110 73 -187 l-46 -12 q-16 79 -71 189 l44 10 ZM805 154 q92 -107 134 -199 l-44 -19 q-41 93 -132 201 l42 17 Z" /><glyph glyph-name="" unicode="&#x7136;" d="M878 645 q-42 69 -115 137 l35 23 q81 -73 117 -135 l-37 -25 ZM50 -53 q80 76 136 189 l43 -13 q-66 -124 -136 -196 l-43 20 ZM500 730 q-84 -394 -403 -545 q-13 21 -34 36 q123 54 215 153 q-65 54 -132 92 l27 28 q75 -40 132 -89 q40 51 70 105 q-60 42 -140 80 l24 30 q65 -28 135 -73 q31 66 51 151 l-186 0 q-79 -158 -181 -250 q-14 16 -33 31 q155 137 223 360 l47 -12 q-20 -56 -35 -87 l182 0 l10 3 l28 -13 ZM401 118 q21 -103 23 -175 l-46 -7 q-2 89 -22 178 l45 4 ZM720 565 q61 -263 233 -355 q-22 -20 -32 -39 q-151 88 -222 309 q-51 -196 -262 -310 q-13 18 -36 34 q238 125 267 361 l-175 0 l0 46 l179 0 q1 15 1 44 l0 167 l46 0 l0 -167 q0 -29 -1 -44 l221 0 l0 -46 l-219 0 ZM607 125 q48 -97 67 -178 l-46 -11 q-21 88 -65 180 l44 9 ZM812 142 q98 -111 140 -195 l-44 -22 q-44 90 -138 198 l42 19 Z" /><glyph glyph-name="" unicode="&#x7167;" d="M149 742 l0 -201 l181 0 l0 201 l-181 0 ZM330 272 l0 225 l-181 0 l0 -225 l181 0 ZM149 173 l-46 0 l0 614 l273 0 l0 -560 l-227 0 l0 -54 ZM50 -56 q78 81 136 206 l44 -14 q-65 -134 -135 -214 l-45 22 ZM396 128 q21 -112 23 -191 l-46 -7 q-2 87 -22 195 l45 3 ZM658 744 q-17 -100 -67 -158 q-55 -65 -163 -98 q-14 23 -30 36 q181 50 212 220 l-181 0 l0 44 l481 0 q0 -15 -1 -22 q-13 -201 -41 -229 q-18 -18 -52 -19 q-51 -2 -112 3 q-2 21 -13 42 q48 -5 108 -5 q24 0 31 8 q20 21 32 178 l-204 0 ZM835 418 l-331 0 l0 -179 l331 0 l0 179 ZM882 197 l-424 0 l0 263 l424 0 l0 -263 ZM610 138 q52 -114 66 -194 l-46 -12 q-19 95 -65 196 l45 10 ZM810 156 q92 -115 138 -211 l-45 -21 q-45 97 -136 213 l43 19 Z" /><glyph glyph-name="" unicode="&#x7248;" d="M161 414 q0 -50 -1 -74 l209 0 l0 -413 l-45 0 l0 369 l-165 0 q-13 -241 -87 -370 l-36 28 q79 147 79 459 l0 402 l46 0 l0 -266 l130 0 l0 287 l45 0 l0 -287 l99 0 l0 -45 l-274 0 l0 -90 ZM613 487 q40 -200 123 -329 q96 136 133 329 l-256 0 ZM921 525 q-38 -244 -157 -407 q79 -105 191 -153 q-17 -16 -33 -39 q-109 51 -187 154 q-84 -99 -198 -154 q-19 30 -29 39 q115 51 198 156 q-89 139 -133 366 l-39 0 l0 -76 q0 -326 -96 -485 l-39 27 q88 149 88 458 l0 348 q277 27 415 64 l36 -40 q-151 -40 -404 -60 l0 -191 l350 0 l9 2 l28 -9 Z" /><glyph glyph-name="" unicode="&#x73af;" d="M326 192 l9 -46 q-219 -84 -276 -104 l-14 46 q75 25 128 46 l0 290 l-110 0 l0 45 l110 0 l0 244 l-125 0 l0 46 l285 0 l0 -46 l-114 0 l0 -244 l94 0 l0 -45 l-94 0 l0 -273 l107 41 ZM713 533 q145 -153 215 -262 l-39 -30 q-75 121 -211 267 l35 25 ZM936 762 l0 -46 l-221 0 q-27 -75 -56 -134 l0 -651 l-47 0 l0 562 q-93 -160 -214 -260 q-10 12 -38 36 q201 154 303 447 l-271 0 l0 46 l544 0 Z" /><glyph glyph-name="" unicode="&#x73b0;" d="M481 253 l-46 0 l0 529 l425 0 l0 -529 l-47 0 l0 485 l-332 0 l0 -485 ZM397 142 l-328 -103 l-13 47 l149 43 l0 295 l-125 0 l0 45 l125 0 l0 244 l-140 0 l0 46 l317 0 l0 -46 l-131 0 l0 -244 l111 0 l0 -45 l-111 0 l0 -280 l140 43 l6 -45 ZM665 425 q0 -348 -299 -501 q-12 22 -30 36 q169 86 235 222 q49 99 49 244 l0 213 l45 0 l0 -214 ZM850 -4 q30 0 39 32 q8 30 12 143 q25 -16 42 -20 q-6 -124 -21 -156 q-16 -38 -72 -38 l-103 0 q-46 0 -64 14 q-19 16 -19 56 l0 249 l45 0 l0 -245 q0 -21 9 -28 q8 -7 32 -7 l100 0 Z" /><glyph glyph-name="" unicode="&#x7406;&#xf9e4;" d="M357 140 q-163 -55 -301 -103 l-13 49 l142 45 l0 293 l-122 0 l0 45 l122 0 l0 244 l-132 0 l0 46 l299 0 l0 -46 l-121 0 l0 -244 l109 0 l0 -45 l-109 0 l0 -277 q78 25 118 39 l8 -46 ZM454 393 l182 0 l0 154 l-182 0 l0 -154 ZM454 590 l182 0 l0 151 l-182 0 l0 -151 ZM865 741 l-186 0 l0 -151 l186 0 l0 151 ZM865 547 l-186 0 l0 -154 l186 0 l0 154 ZM961 6 l0 -45 l-649 0 l0 45 l321 0 l0 161 l-240 0 l0 45 l240 0 l0 137 l-224 0 l0 435 l502 0 l0 -435 l-230 0 l0 -137 l247 0 l0 -45 l-247 0 l0 -161 l280 0 Z" /><glyph glyph-name="" unicode="&#x2f63;&#x751f;" d="M943 8 l0 -47 l-883 0 l0 47 l417 0 l0 285 l-313 0 l0 47 l313 0 l0 245 l-253 0 q-51 -106 -112 -175 q-15 12 -43 28 q121 131 188 375 l49 -10 q-24 -84 -61 -172 l232 0 l0 202 l49 0 l0 -202 l372 0 l0 -46 l-372 0 l0 -245 l337 0 l0 -47 l-337 0 l0 -285 l417 0 Z" /><glyph glyph-name="" unicode="&#x2f64;&#x7528;" d="M829 287 l0 193 l-303 0 l0 -193 l303 0 ZM478 287 l0 193 l-269 0 l0 -82 q0 -60 -4 -111 l273 0 ZM209 714 l0 -188 l269 0 l0 188 l-269 0 ZM829 714 l-303 0 l0 -188 l303 0 l0 188 ZM877 5 q0 -52 -41 -65 q-32 -10 -183 -8 q-1 18 -17 47 q110 -3 167 0 q26 0 26 26 l0 236 l-303 0 l0 -306 l-48 0 l0 306 l-277 0 q-26 -207 -125 -320 q-13 21 -37 34 q122 137 122 443 l0 362 l716 0 l0 -755 Z" /><glyph glyph-name="" unicode="&#x7565;" d="M125 707 l0 -248 l95 0 l0 248 l-95 0 ZM352 707 l-94 0 l0 -248 l94 0 l0 248 ZM352 147 l0 271 l-94 0 l0 -271 l94 0 ZM125 147 l95 0 l0 271 l-95 0 l0 -271 ZM393 103 l-268 0 l0 -77 l-41 0 l0 725 l309 0 l0 -648 ZM556 250 l0 -221 l294 0 l0 221 l-294 0 ZM511 294 l385 0 l0 -356 l-46 0 l0 47 l-294 0 l0 -47 l-45 0 l0 356 ZM581 672 q44 -97 123 -177 q100 86 154 192 l-267 0 l-10 -15 ZM922 716 q-60 -142 -186 -252 q100 -87 231 -134 q-15 -17 -21 -43 q-135 52 -242 149 q-119 -95 -268 -150 q-5 21 -24 42 q139 49 259 139 q-74 77 -116 164 q-44 -67 -103 -124 q-13 19 -33 34 q126 114 199 301 l44 -13 q-19 -44 -46 -97 l268 0 l10 2 l28 -18 Z" /><glyph glyph-name="" unicode="&#x7684;" d="M380 629 l-239 0 l0 -239 l239 0 l0 239 ZM380 78 l0 268 l-239 0 l0 -268 l239 0 ZM306 824 q-35 -103 -54 -151 l174 0 l0 -640 l-285 0 l0 -82 l-45 0 l0 722 l111 0 q32 89 48 163 l51 -12 ZM917 645 q-22 -606 -71 -663 q-24 -28 -70 -31 q-54 -4 -144 3 q-4 30 -16 47 q79 -6 147 -6 q30 0 42 15 q45 49 65 618 l-280 0 q-46 -112 -98 -186 q-7 6 -41 26 q100 130 153 372 l47 -11 q-19 -84 -45 -156 l311 0 l0 -28 ZM722 199 q-55 104 -162 233 l39 22 q117 -143 163 -229 l-40 -26 Z" /><glyph glyph-name="" unicode="&#x2f6c;&#x76ee;" d="M777 48 l0 194 l-560 0 l0 -194 l560 0 ZM217 482 l0 -193 l560 0 l0 193 l-560 0 ZM217 719 l0 -191 l560 0 l0 191 l-560 0 ZM826 766 l0 -837 l-49 0 l0 72 l-560 0 l0 -72 l-48 0 l0 837 l657 0 Z" /><glyph glyph-name="" unicode="&#x76f8;" d="M277 615 l153 0 l0 -47 l-153 0 l0 -107 q96 -99 152 -170 l-33 -40 q-33 52 -119 153 l0 -475 l-47 0 l0 529 q-73 -221 -165 -336 q-10 20 -29 41 q124 148 188 405 l-166 0 l0 47 l172 0 l0 218 l47 0 l0 -218 ZM869 41 l0 201 l-344 0 l0 -201 l344 0 ZM525 725 l0 -193 l344 0 l0 193 l-344 0 ZM525 287 l344 0 l0 200 l-344 0 l0 -200 ZM917 771 l0 -836 l-48 0 l0 61 l-344 0 l0 -62 l-47 0 l0 837 l439 0 Z" /><glyph glyph-name="" unicode="&#x7701;" d="M512 511 l-48 0 l0 321 l48 0 l0 -321 ZM328 760 q-75 -148 -208 -252 q-19 19 -41 29 q133 92 203 236 l46 -13 ZM770 381 l-482 0 l0 -90 l482 0 l0 90 ZM770 22 l0 95 l-482 0 l0 -95 l482 0 ZM288 156 l482 0 l0 95 l-482 0 l0 -95 ZM763 628 q-111 -128 -370 -205 l425 0 l0 -490 l-48 0 l0 48 l-482 0 l0 -52 l-47 0 l0 456 q-65 -15 -163 -29 q-16 26 -31 43 q507 60 672 250 l44 -21 ZM710 778 q153 -113 228 -208 l-41 -29 q-78 103 -224 211 l37 26 Z" /><glyph glyph-name="" unicode="&#x770b;" d="M789 346 l-478 0 l0 -84 l478 0 l0 84 ZM789 9 l0 90 l-478 0 l0 -90 l478 0 ZM311 138 l478 0 l0 86 l-478 0 l0 -86 ZM369 474 q-37 -63 -54 -86 l521 0 l0 -463 l-47 0 l0 43 l-478 0 l0 -43 l-47 0 l0 397 q-85 -100 -192 -163 q-12 18 -30 36 q163 96 272 279 l-251 0 l0 42 l274 0 q23 44 44 93 l-243 0 l0 42 l258 0 q16 43 28 87 q-147 -7 -291 -9 q-4 23 -11 38 q503 8 708 55 l33 -35 q-136 -31 -386 -46 q-15 -52 -29 -90 l430 0 l0 -42 l-446 0 q-19 -49 -41 -93 l546 0 l0 -42 l-568 0 Z" /><glyph glyph-name="" unicode="&#x771f;" d="M400 62 q-117 -78 -304 -135 q-15 19 -33 35 q190 57 291 127 l46 -27 ZM635 89 q195 -67 306 -125 l-36 -34 q-125 67 -299 126 l29 33 ZM255 164 l491 0 l0 85 l-491 0 l0 -85 ZM255 582 l0 -81 l491 0 l0 81 l-491 0 ZM255 358 l0 -72 l491 0 l0 72 l-491 0 ZM746 464 l-491 0 l0 -69 l491 0 l0 69 ZM942 164 l0 -43 l-883 0 l0 43 l150 0 l0 456 l241 0 q6 33 12 75 l-373 0 l0 44 l378 0 q7 50 9 95 l51 -7 l-12 -88 l400 0 l0 -44 l-406 0 l-13 -75 l298 0 l0 -456 l148 0 Z" /><glyph glyph-name="" unicode="&#x7740;" d="M321 304 l0 -74 l460 0 l0 74 l-460 0 ZM781 9 l0 74 l-460 0 l0 -74 l460 0 ZM781 194 l-460 0 l0 -74 l460 0 l0 74 ZM368 417 q-26 -43 -48 -73 l510 0 l0 -415 l-49 0 l0 39 l-460 0 l0 -42 l-48 0 l0 355 q-92 -113 -198 -187 q-19 21 -38 35 q165 109 277 288 l-242 0 l0 42 l268 0 q30 56 44 86 l-223 0 l0 40 l241 0 q12 27 34 85 l-316 0 l0 42 l213 0 q-29 53 -77 106 l43 17 q52 -50 82 -107 l-33 -16 l269 0 q50 65 82 123 l49 -18 q-41 -59 -79 -105 l212 0 l0 -42 l-396 0 q-11 -36 -33 -85 l387 0 l0 -40 l-404 0 q-13 -30 -43 -86 l535 0 l0 -42 l-559 0 Z" /><glyph glyph-name="" unicode="&#x77e5;" d="M318 466 q0 -27 -1 -41 l202 0 l0 -46 l-204 0 q-6 -58 -12 -84 q93 -93 205 -223 l-33 -41 q-66 87 -183 215 q-53 -202 -217 -317 q-12 21 -32 36 q201 141 224 414 l-217 0 l0 46 l219 0 q1 15 1 42 l0 182 l-99 0 q-37 -101 -87 -171 l-40 28 q87 114 131 328 l47 -9 q-13 -60 -35 -130 l300 0 l0 -46 l-169 0 l0 -183 ZM852 85 l0 615 l-251 0 l0 -615 l251 0 ZM900 746 l0 -781 l-48 0 l0 74 l-251 0 l0 -83 l-47 0 l0 790 l346 0 Z" /><glyph glyph-name="" unicode="&#x7801;" d="M168 425 l0 -325 l144 0 l0 325 l-144 0 ZM56 774 l333 0 l0 -45 l-153 0 q-30 -154 -69 -260 l189 0 l0 -413 l-188 0 l0 -85 l-44 0 l0 396 q-26 -54 -60 -100 q-9 24 -28 44 q102 136 153 418 l-133 0 l0 45 ZM800 153 l-395 0 l0 45 l395 0 l0 -45 ZM933 393 l-2 -26 q-32 -358 -83 -411 q-23 -22 -62 -23 q-36 -3 -120 2 q-2 28 -13 46 q51 -6 118 -6 q27 0 38 11 q46 45 73 363 l-407 0 l0 1 l-13 0 q19 118 32 298 l44 -4 q-10 -128 -25 -251 l242 0 q22 163 37 331 l-346 0 l0 45 l355 0 l8 3 l33 -5 q-14 -171 -41 -374 l132 0 Z" /><glyph glyph-name="" unicode="&#x786e;" d="M175 425 l0 -325 l135 0 l0 325 l-135 0 ZM175 56 l0 -84 l-43 0 l0 396 q-31 -64 -59 -102 q-11 24 -29 44 q97 135 147 419 l-127 0 l0 45 l326 0 l0 -45 l-152 0 q-28 -154 -66 -260 l181 0 l0 -413 l-178 0 ZM871 218 l0 144 l-174 0 l0 -144 l174 0 ZM653 218 l0 144 l-160 0 l0 -59 q0 -41 -3 -85 l163 0 ZM558 705 q-37 -70 -76 -125 l185 0 q47 53 87 125 l-196 0 ZM493 403 l160 0 l0 134 l-160 0 l0 -134 ZM871 537 l-174 0 l0 -134 l174 0 l0 134 ZM918 -2 q0 -43 -29 -54 q-26 -9 -130 -9 q-3 22 -15 46 q83 -3 110 -1 q17 1 17 18 l0 177 l-174 0 l0 -217 l-44 0 l0 217 l-169 0 q-24 -161 -114 -250 q-13 17 -37 30 q114 111 114 348 l0 230 q-22 -29 -59 -66 q-10 16 -33 36 q136 125 212 333 l44 -12 q-14 -36 -32 -76 l202 0 l9 3 l31 -22 q-39 -77 -102 -149 l199 0 l0 -582 Z" /><glyph glyph-name="" unicode="&#x2f70;&#x793a;" d="M850 705 l-697 0 l0 47 l697 0 l0 -47 ZM304 337 q-75 -189 -217 -321 q-21 17 -44 31 q137 112 212 302 l49 -12 ZM732 345 q138 -166 190 -307 l-46 -21 q-54 149 -186 310 l42 18 ZM935 509 l0 -47 l-411 0 l0 -464 q0 -49 -38 -61 q-34 -9 -173 -9 q-6 30 -18 50 q116 -3 156 -1 q24 0 24 22 l0 463 l-412 0 l0 47 l872 0 Z" /><glyph glyph-name="" unicode="&#x7965;" d="M566 642 q-23 86 -75 169 l41 15 q54 -82 78 -168 l-44 -16 ZM234 669 q-26 64 -91 138 l36 23 q67 -69 95 -135 l-40 -26 ZM372 643 q-41 -109 -114 -212 q70 -78 122 -145 l-32 -39 q-33 49 -100 131 l0 -451 l-47 0 l0 431 q-63 -75 -130 -128 q-10 26 -28 42 q179 135 269 341 l-252 0 l0 45 l275 0 l10 2 l27 -17 ZM952 172 l-243 0 l0 -246 l-48 0 l0 246 l-262 0 l0 45 l262 0 l0 163 l-221 0 l0 45 l221 0 l0 155 l-239 0 l0 45 l319 0 q59 95 99 208 l48 -18 q-57 -120 -99 -190 l148 0 l0 -45 l-228 0 l0 -155 l205 0 l0 -45 l-205 0 l0 -163 l243 0 l0 -45 Z" /><glyph glyph-name="" unicode="&#x79cd;" d="M269 551 l139 0 l0 -46 l-139 0 l0 -25 q92 -110 139 -181 l-30 -37 q-33 57 -109 164 l0 -496 l-47 0 l0 493 q-78 -199 -167 -301 q-9 22 -28 41 q115 125 188 342 l-161 0 l0 46 l168 0 l0 175 q-57 -13 -154 -29 q-3 17 -15 39 q223 36 317 80 l33 -38 q-54 -23 -134 -41 l0 -186 ZM884 300 l0 269 l-169 0 l0 -269 l169 0 ZM668 300 l0 269 l-175 0 l0 -269 l175 0 ZM931 616 l0 -418 l-47 0 l0 56 l-169 0 l0 -326 l-47 0 l0 326 l-175 0 l0 -61 l-46 0 l0 423 l221 0 l0 215 l47 0 l0 -215 l216 0 Z" /><glyph glyph-name="" unicode="&#x79f0;" d="M375 262 q-26 43 -101 140 l0 -477 l-45 0 l0 489 q-73 -192 -159 -298 q-13 26 -27 40 q113 131 179 343 l-159 0 l0 46 l166 0 l0 188 q-53 -13 -137 -26 q-3 15 -15 37 q208 39 291 79 l33 -37 q-41 -19 -127 -42 l0 -199 l138 0 l0 -46 l-138 0 l0 -46 q90 -97 131 -153 l-30 -38 ZM577 444 q-50 -228 -133 -356 q-17 14 -42 25 q84 118 128 339 l47 -8 ZM715 649 l0 -653 q0 -45 -29 -56 q-27 -10 -124 -10 q-7 24 -18 48 q85 -2 107 0 q17 0 17 17 l0 654 l-124 0 q-44 -136 -98 -219 q-20 14 -44 25 q92 127 139 376 l47 -8 q-15 -72 -31 -129 l351 0 l8 4 l32 -12 q-31 -72 -81 -169 l-43 12 q35 66 61 120 l-170 0 ZM829 460 q82 -189 109 -347 l-45 -13 q-24 153 -105 348 l41 12 Z" /><glyph glyph-name="" unicode="&#x7a0b;" d="M841 751 l-359 0 l0 -194 l359 0 l0 194 ZM887 514 l-450 0 l0 280 l450 0 l0 -280 ZM340 254 q-24 54 -84 153 l0 -481 l-46 0 l0 468 q-66 -187 -138 -283 q-15 28 -31 44 q104 134 162 344 l-141 0 l0 46 l148 0 l0 185 q-54 -12 -115 -24 q-5 20 -15 39 q175 35 260 77 l35 -39 q-43 -20 -119 -42 l0 -196 l136 0 l0 -46 l-136 0 l0 -26 q77 -104 118 -178 l-34 -41 ZM947 0 l0 -46 l-581 0 l0 46 l277 0 l0 168 l-207 0 l0 44 l207 0 l0 156 l-230 0 l0 45 l512 0 l0 -45 l-234 0 l0 -156 l213 0 l0 -44 l-213 0 l0 -168 l256 0 Z" /><glyph glyph-name="" unicode="&#x7a7a;" d="M133 493 l-47 0 l0 213 l409 0 q-20 45 -58 117 l48 14 q45 -81 67 -131 l364 0 l0 -186 l-48 0 l0 140 l-735 0 l0 -167 ZM606 584 q182 -95 302 -181 l-29 -38 q-118 90 -301 188 l28 31 ZM96 399 q160 63 292 191 l34 -29 q-142 -134 -297 -202 l-29 40 ZM921 6 l0 -45 l-838 0 l0 45 l392 0 l0 285 l-299 0 l0 45 l653 0 l0 -45 l-305 0 l0 -285 l397 0 Z" /><glyph glyph-name="" unicode="&#x2f74;&#x7acb;" d="M490 661 q-16 77 -49 161 l45 13 q36 -92 52 -159 l-48 -15 ZM901 592 l-799 0 l0 48 l799 0 l0 -48 ZM351 74 q-25 172 -102 439 l47 10 q76 -250 104 -438 l-49 -11 ZM940 19 l0 -47 l-879 0 l0 47 l483 0 q91 207 161 505 l55 -9 q-94 -328 -165 -496 l345 0 Z" /><glyph glyph-name="" unicode="&#x7ad9;" d="M257 659 q-23 73 -72 153 l42 15 q48 -76 74 -151 l-44 -17 ZM393 545 q-44 -267 -75 -399 l123 31 l5 -44 l-380 -101 l-13 48 q114 27 222 55 q43 180 70 420 l48 -10 ZM150 540 q45 -206 55 -373 l-42 -6 q-10 173 -54 372 l41 7 ZM66 637 l380 0 l0 -45 l-380 0 l0 45 ZM859 306 l-339 0 l0 -285 l339 0 l0 285 ZM688 566 l0 -214 l219 0 l0 -420 l-48 0 l0 43 l-339 0 l0 -47 l-47 0 l0 424 l166 0 l0 481 l49 0 l0 -221 l266 0 l0 -46 l-266 0 Z" /><glyph glyph-name="" unicode="&#x7aef;" d="M915 556 l-487 0 l0 225 l45 0 l0 -181 l166 0 l0 231 l46 0 l0 -231 l183 0 l0 181 l47 0 l0 -225 ZM233 657 q-23 68 -71 151 l42 14 q53 -88 72 -148 l-43 -17 ZM390 592 l-333 0 l0 45 l333 0 l0 -45 ZM144 158 q-6 162 -51 373 l40 7 q46 -209 52 -373 l-41 -7 ZM395 166 l5 -45 l-333 -89 l-13 48 q137 33 186 46 q42 177 69 423 l44 -10 q-38 -259 -73 -402 l115 29 ZM690 424 q-10 -36 -28 -108 l265 0 l0 -340 q0 -33 -21 -42 q-19 -9 -88 -9 q-3 12 -17 40 q57 -2 70 0 q12 0 12 12 l0 295 l-116 0 l0 -331 l-41 0 l0 331 l-114 0 l0 -334 l-41 0 l0 334 l-110 0 l0 -345 l-45 0 l0 389 l200 0 q11 43 20 108 l-256 0 l0 45 l572 0 l0 -45 l-262 0 Z" /><glyph glyph-name="" unicode="&#x7b26;" d="M565 688 q-47 -90 -99 -144 q-22 18 -42 28 q102 99 148 263 l47 -10 q-15 -54 -34 -93 l339 0 l0 -44 l-223 0 q45 -64 67 -108 l-42 -18 q-24 48 -76 126 l-85 0 ZM315 530 q-27 -55 -72 -128 l0 -476 l-47 0 l0 409 q-45 -60 -108 -122 q-16 21 -36 37 q135 118 216 294 l47 -14 ZM302 688 q47 -100 57 -125 l-43 -15 q-26 63 -62 140 l-73 0 q-43 -89 -96 -151 q-19 16 -40 27 q95 104 145 271 l46 -11 q-17 -53 -34 -92 l267 0 l0 -44 l-167 0 ZM440 309 q82 -117 128 -200 l-40 -24 q-38 74 -127 205 l39 19 ZM940 375 l-149 0 l0 -375 q0 -51 -39 -62 q-33 -9 -178 -9 q-6 28 -18 48 q122 -3 163 -1 q25 1 25 24 l0 375 l-419 0 l0 45 l419 0 l0 116 l47 0 l0 -116 l149 0 l0 -45 Z" /><glyph glyph-name="" unicode="&#x7b2c;" d="M207 701 q-49 -84 -111 -143 q-10 9 -41 27 q113 95 166 251 l45 -11 q-14 -38 -36 -83 l274 0 l0 -41 l-177 0 q32 -66 42 -110 l-45 -13 q-11 49 -45 123 l-72 0 ZM211 350 q-8 -51 -19 -113 l282 0 l0 113 l-263 0 ZM522 393 l299 0 l0 112 l-299 0 l0 -112 ZM892 237 l-2 -23 q-20 -196 -55 -225 q-20 -20 -57 -20 q-51 -2 -124 2 q-2 26 -14 46 q53 -6 122 -6 q27 0 35 8 q25 21 43 175 l-318 0 l0 -267 l-48 0 l0 257 q-132 -172 -357 -261 q-17 26 -32 38 q209 74 344 233 l-292 0 q19 77 36 199 l301 0 l0 112 l-337 0 l0 43 l731 0 l0 -198 l-346 0 l0 -113 l370 0 ZM936 742 l0 -41 l-203 0 q52 -65 69 -107 l-42 -18 q-24 57 -80 125 l-86 0 q-42 -85 -87 -133 q-17 15 -41 27 q89 90 129 241 l47 -10 q-11 -43 -29 -84 l323 0 Z" /><glyph glyph-name="" unicode="&#x7b49;" d="M178 699 q-42 -75 -94 -130 q-19 16 -40 27 q93 90 148 240 l46 -12 q-22 -54 -36 -82 l286 0 l0 -43 l-200 0 q28 -65 37 -106 l-45 -14 q-10 51 -41 120 l-61 0 ZM266 167 q117 -68 182 -152 l-38 -31 q-59 83 -179 156 l35 27 ZM730 334 l0 -105 l198 0 l0 -44 l-198 0 l0 -191 q0 -47 -37 -58 q-34 -9 -170 -9 q-4 18 -20 47 q125 -3 157 0 q22 1 22 20 l0 191 l-601 0 l0 44 l601 0 l0 105 l-629 0 l0 44 l422 0 l0 109 l-325 0 l0 44 l325 0 l0 60 l-5 -5 q-22 19 -40 30 q98 82 146 220 l46 -11 q-15 -42 -37 -83 l355 0 l0 -43 l-242 0 q50 -65 65 -109 l-42 -18 q-22 56 -75 127 l-85 0 q-29 -48 -67 -89 l30 0 l0 -79 l332 0 l0 -44 l-332 0 l0 -109 l428 0 l0 -44 l-222 0 Z" /><glyph glyph-name="" unicode="&#x7b7e;" d="M549 698 q-28 -45 -67 -84 q-6 6 -39 27 q84 77 126 195 l46 -11 q-18 -49 -40 -85 l360 0 l0 -42 l-220 0 q58 -73 77 -127 l-44 -14 q-24 61 -85 141 l-114 0 ZM184 698 q-44 -90 -99 -154 q-22 19 -40 27 q95 101 147 265 l45 -12 q-16 -44 -32 -84 l269 0 l0 -42 l-175 0 q42 -79 55 -127 l-45 -12 q-14 56 -59 139 l-66 0 ZM551 615 q-10 -13 -24 -27 q167 -148 430 -221 q-14 -14 -32 -41 q-248 77 -425 236 q-169 -161 -428 -247 q-18 28 -30 39 q317 97 469 281 l40 -20 ZM701 351 l-402 0 l0 43 l402 0 l0 -43 ZM524 74 q-26 94 -93 213 l38 14 q70 -118 96 -210 l-41 -17 ZM223 273 q83 -113 120 -202 l-40 -21 q-41 100 -118 205 l38 18 ZM816 283 q-81 -163 -165 -285 l281 0 l0 -44 l-867 0 l0 44 l530 0 q95 126 177 298 l44 -13 Z" /><glyph glyph-name="" unicode="&#x7b80;" d="M205 697 q-49 -79 -103 -128 q-20 20 -40 29 q108 89 157 236 l47 -12 q-12 -35 -36 -82 l256 0 l0 -43 l-151 0 q34 -61 45 -98 l-43 -16 q-14 47 -52 114 l-80 0 ZM119 457 l47 0 l0 -529 l-47 0 l0 529 ZM205 586 q78 -78 106 -127 l-39 -25 q-32 59 -103 129 l36 23 ZM362 355 l0 -102 l278 0 l0 102 l-278 0 ZM640 103 l0 110 l-278 0 l0 -110 l278 0 ZM362 62 l0 -55 l-45 0 l0 389 l369 0 l0 -334 l-324 0 ZM879 -2 q0 -51 -38 -61 q-25 -7 -175 -7 q-6 27 -18 44 q128 -3 160 0 q24 1 24 23 l0 516 l-484 0 l0 44 l531 0 l0 -559 ZM916 741 l0 -43 l-181 0 q39 -56 56 -96 l-43 -19 q-24 59 -66 115 l-94 0 q-39 -66 -81 -107 q-18 14 -40 28 q89 81 129 214 l47 -11 q-14 -42 -32 -81 l305 0 Z" /><glyph glyph-name="" unicode="&#x7c7b;" d="M807 793 q-65 -85 -115 -135 l-40 16 q57 59 106 137 l49 -18 ZM304 652 q-36 69 -110 136 l39 20 q77 -68 113 -132 l-42 -24 ZM474 580 q-128 -170 -379 -243 q-17 26 -32 38 q238 61 365 213 l-350 0 l0 45 l396 0 l0 199 l48 0 l0 -199 l407 0 l0 -45 l-375 0 q242 -124 366 -207 l-24 -39 q-120 85 -374 219 l0 -180 l-48 0 l0 199 ZM558 190 q105 -179 397 -220 q-16 -14 -31 -45 q-309 53 -417 265 l-17 0 q-83 -206 -409 -263 q-7 22 -24 43 q302 51 380 220 l-362 0 l0 46 l379 0 q17 51 26 122 l50 0 q-9 -69 -25 -122 l424 0 l0 -46 l-371 0 Z" /><glyph glyph-name="" unicode="&#x7d20;" d="M353 110 q-104 -95 -257 -168 q-18 20 -38 32 q163 71 251 154 l44 -18 ZM677 126 q161 -75 250 -148 l-37 -31 q-87 72 -248 152 l35 27 ZM941 507 l0 -41 l-482 0 l24 -18 q-86 -58 -177 -98 l248 14 q78 40 115 62 l35 -34 q-207 -114 -433 -189 l482 26 q-47 33 -84 56 l36 24 q131 -78 200 -153 l-36 -29 q-19 22 -72 68 l-262 -15 l0 -188 q0 -42 -33 -52 q-26 -8 -145 -8 q-4 19 -19 45 q101 -3 131 -1 q19 1 19 16 l0 185 q-344 -21 -369 -29 q-1 9 -12 48 q40 1 131 34 q82 26 225 91 q-241 -14 -260 -22 q-5 25 -14 46 q24 3 65 20 q94 41 178 101 l-368 0 l0 41 l412 0 l0 81 l-304 0 l0 41 l304 0 l0 78 l-361 0 l0 41 l361 0 l0 85 l48 0 l0 -85 l371 0 l0 -41 l-371 0 l0 -78 l309 0 l0 -41 l-309 0 l0 -81 l417 0 Z" /><glyph glyph-name="" unicode="&#x7ea2;" d="M397 296 q-1 -11 2 -43 q-306 -47 -331 -60 q-7 26 -17 49 q24 4 78 66 q49 49 126 153 q-171 -21 -194 -30 q-7 26 -17 49 q20 5 61 63 q89 112 163 287 l48 -21 q-92 -188 -194 -319 l166 17 q28 38 71 108 l44 -25 q-123 -193 -259 -330 l253 36 ZM47 41 q97 18 353 70 l4 -45 l-185 -39 q-110 -23 -162 -35 l-10 49 ZM953 43 l0 -48 l-541 0 l0 48 l243 0 l0 642 l-232 0 l0 48 l508 0 l0 -48 l-226 0 l0 -642 l248 0 Z" /><glyph glyph-name="" unicode="&#x7ec4;" d="M397 307 q-2 -21 2 -41 q-305 -63 -329 -76 q-2 19 -15 47 q23 4 79 66 q48 50 130 160 q-175 -24 -199 -35 q-9 33 -16 48 q19 3 59 64 q91 124 157 291 l47 -22 q-96 -200 -189 -321 l172 19 q50 74 71 111 l43 -23 q-130 -202 -257 -335 l245 47 ZM400 85 q-81 -21 -338 -85 l-10 47 q48 10 344 79 l4 -41 ZM531 -5 l285 0 l0 223 l-285 0 l0 -223 ZM531 738 l0 -212 l285 0 l0 212 l-285 0 ZM531 262 l285 0 l0 219 l-285 0 l0 -219 ZM953 -5 l0 -45 l-578 0 l0 45 l110 0 l0 788 l378 0 l0 -788 l90 0 Z" /><glyph glyph-name="" unicode="&#x7ecf;" d="M929 382 q-116 74 -272 140 q-120 -89 -269 -146 q-13 23 -31 39 q305 107 441 317 l-375 0 l0 45 l406 0 l10 3 l34 -19 q-60 -113 -179 -210 q181 -77 262 -130 l-27 -39 ZM374 305 q-1 -18 1 -43 q-284 -57 -309 -72 q-3 14 -16 49 q23 4 75 66 q41 41 124 157 q-170 -25 -189 -34 q-7 26 -17 49 q19 3 58 64 q86 119 150 289 l47 -21 q-89 -194 -179 -320 l161 18 q43 67 69 112 l43 -25 q-118 -193 -244 -331 l226 42 ZM382 80 q-347 -87 -325 -81 l-10 48 q29 6 331 77 l4 -44 ZM687 3 l268 0 l0 -45 l-585 0 l0 45 l269 0 l0 280 l-208 0 l0 45 l478 0 l0 -45 l-222 0 l0 -280 Z" /><glyph glyph-name="" unicode="&#x7ed1;" d="M49 46 q69 21 271 95 l8 -43 l-266 -98 l-13 46 ZM232 500 q33 64 54 117 l43 -22 q-96 -205 -193 -337 l174 36 l4 -41 q-221 -49 -244 -63 q-11 35 -16 47 q18 2 63 68 q47 69 91 150 q-128 -18 -144 -27 q-6 23 -17 48 q16 3 48 64 q70 132 110 290 l48 -18 q-60 -189 -138 -325 l117 13 ZM535 415 q0 -98 -7 -156 l139 0 l0 -44 l-144 0 q-28 -185 -147 -292 q-16 20 -35 30 q109 100 137 262 l-138 0 l0 44 l144 0 q7 58 7 156 l0 12 l-113 0 l0 45 l113 0 l0 168 l-123 0 l0 45 l123 0 l0 143 l44 0 l0 -143 l119 0 l0 -45 l-119 0 l0 -168 l97 0 l0 -45 l-97 0 l0 -12 ZM947 747 q-52 -140 -120 -297 q124 -141 124 -239 q0 -89 -43 -119 q-18 -13 -55 -18 q-45 -3 -90 1 q-2 21 -16 43 q44 -5 92 -3 q26 2 40 10 q30 20 30 87 q0 88 -126 231 q54 131 106 277 l-149 0 l0 -793 l-44 0 l0 836 l213 0 l8 3 l30 -19 Z" /><glyph glyph-name="" unicode="&#x7ed3;" d="M394 306 q-1 -11 2 -43 q-309 -57 -333 -70 q-4 24 -17 49 q23 3 76 65 q41 41 122 153 q-164 -20 -187 -29 q-8 29 -16 50 q19 4 53 61 q80 114 140 280 l49 -20 q-82 -190 -168 -311 l161 14 q46 72 66 109 l44 -26 q-120 -192 -244 -324 l252 42 ZM42 41 q73 13 351 73 l4 -44 l-345 -78 l-10 49 ZM505 253 l0 -238 l340 0 l0 238 l-340 0 ZM458 298 l435 0 l0 -367 l-48 0 l0 39 l-340 0 l0 -43 l-47 0 l0 371 ZM697 646 l0 -183 l223 0 l0 -46 l-488 0 l0 46 l216 0 l0 183 l-241 0 l0 47 l241 0 l0 141 l49 0 l0 -141 l237 0 l0 -47 l-237 0 Z" /><glyph glyph-name="" unicode="&#x7ed9;" d="M370 303 q0 -32 2 -42 q-283 -59 -302 -71 q-7 26 -17 49 q22 4 74 67 q56 64 117 154 q-159 -23 -181 -32 q-5 25 -16 49 q19 5 53 64 q80 124 134 289 l49 -21 q-84 -203 -163 -322 l155 19 q43 68 67 114 l44 -25 q-124 -208 -239 -334 l223 42 ZM50 45 q49 10 152 34 l181 42 l4 -43 l-327 -81 l-10 48 ZM501 281 l0 -256 l298 0 l0 256 l-298 0 ZM454 326 l393 0 l0 -400 l-48 0 l0 55 l-298 0 l0 -58 l-47 0 l0 403 ZM807 503 l0 -45 l-309 0 l0 45 l309 0 ZM686 817 q-1 -5 -5 -14 l-5 -15 q101 -215 266 -308 q-16 -12 -36 -41 q-148 97 -251 298 q-89 -194 -250 -310 q-14 16 -37 33 q200 138 269 368 l49 -11 Z" /><glyph glyph-name="" unicode="&#x7edf;" d="M666 684 q-21 63 -63 137 l44 13 q37 -63 65 -133 l-46 -17 ZM896 333 q-16 32 -45 75 q-406 -38 -436 -49 q-3 20 -19 49 q41 10 57 28 q45 43 153 199 l-192 0 l0 45 l527 0 l0 -45 l-277 0 q-79 -116 -162 -216 l324 28 q-50 72 -79 108 l38 19 q99 -126 152 -216 l-41 -25 ZM364 306 q0 -33 3 -42 q-278 -59 -300 -74 q-5 21 -16 49 q23 5 74 68 q46 48 118 155 q-164 -25 -182 -34 q-8 34 -17 51 q18 5 59 64 q85 117 152 290 l50 -24 q-88 -189 -185 -320 l153 18 q36 53 69 113 l45 -25 q-121 -201 -240 -331 l217 42 ZM370 83 q-90 -24 -311 -86 l-11 48 q91 22 316 81 l6 -43 ZM569 354 q-6 -187 -46 -271 q-48 -99 -176 -147 q-9 22 -30 37 q120 42 163 132 q36 75 41 249 l48 0 ZM874 -7 q19 0 24 23 q6 23 8 109 q16 -13 42 -19 q-3 -95 -16 -125 q-14 -31 -53 -31 l-99 0 q-42 0 -57 14 q-15 14 -15 56 l0 336 l47 0 l0 -336 q0 -17 6 -22 q5 -5 24 -5 l89 0 Z" /><glyph glyph-name="" unicode="&#x7f16;" d="M335 300 q0 -21 4 -41 q-244 -54 -269 -69 q-10 35 -15 47 q20 3 68 67 q41 51 104 153 q-139 -20 -163 -29 q-11 36 -15 47 q16 4 53 64 q86 147 132 292 l47 -18 q-73 -188 -162 -327 l135 16 q40 72 61 118 l42 -23 q-107 -204 -215 -337 l193 40 ZM347 109 q-117 -46 -285 -108 l-12 45 q43 14 289 104 l8 -41 ZM869 678 l-402 0 l0 -130 l402 0 l0 130 ZM915 505 l-448 0 q0 -367 -104 -560 q-19 21 -38 28 q97 180 97 532 l0 216 l242 0 q-18 48 -50 103 l42 14 q40 -62 59 -117 l200 0 l0 -216 ZM879 192 l0 170 l-93 0 l0 -170 l93 0 ZM749 192 l0 170 l-89 0 l0 -170 l89 0 ZM622 192 l0 170 l-104 0 l0 -170 l104 0 ZM920 -19 q0 -31 -19 -40 q-17 -8 -75 -8 q-3 19 -14 39 q28 -1 57 -1 q10 1 10 11 l0 169 l-93 0 l0 -190 l-37 0 l0 190 l-89 0 l0 -191 l-38 0 l0 191 l-104 0 l0 -216 l-41 0 l0 470 l443 0 l0 -424 Z" /><glyph glyph-name="" unicode="&#x2f79;&#x7f51;" d="M460 157 q-40 77 -88 154 q-66 -154 -163 -255 q-22 19 -39 30 q105 96 172 271 q-84 126 -143 200 l32 24 q73 -93 129 -174 q35 106 58 234 l46 -6 q-31 -162 -73 -274 q71 -106 104 -176 l-35 -28 ZM759 124 q-35 78 -97 180 q-63 -155 -165 -254 q-31 24 -39 28 q109 99 175 272 q-72 115 -142 206 l35 23 q69 -89 126 -177 q34 104 56 236 l44 -6 q-29 -162 -70 -276 q77 -120 114 -207 l-37 -25 ZM908 1 q0 -50 -37 -63 q-31 -9 -164 -9 q-4 19 -19 47 q98 -3 147 0 q25 1 25 24 l0 724 l-716 0 l0 -795 l-48 0 l0 841 l812 0 l0 -769 Z" /><glyph glyph-name="" unicode="&#x7f6e;" d="M251 -1 l495 0 l0 74 l-495 0 l0 -74 ZM251 388 l0 -68 l495 0 l0 68 l-495 0 ZM251 108 l495 0 l0 72 l-495 0 l0 -72 ZM746 285 l-495 0 l0 -70 l495 0 l0 70 ZM404 646 l194 0 l0 108 l-194 0 l0 -108 ZM359 754 l-188 0 l0 -108 l188 0 l0 108 ZM644 646 l198 0 l0 108 l-198 0 l0 -108 ZM940 -1 l0 -41 l-877 0 l0 41 l142 0 l0 427 l223 0 q9 33 18 72 l-375 0 l0 41 l383 0 q10 46 13 67 l-342 0 l0 187 l764 0 l0 -187 l-372 0 l-15 -67 l419 0 l0 -41 l-428 0 l-18 -72 l318 0 l0 -427 l147 0 Z" /><glyph glyph-name="" unicode="&#x8005;" d="M542 501 q94 68 180 151 l-259 0 l0 -151 l79 0 ZM766 294 l-442 0 l0 -119 l442 0 l0 119 ZM766 6 l0 127 l-442 0 l0 -127 l442 0 ZM558 457 q-93 -66 -190 -120 l447 0 l0 -406 l-49 0 l0 31 l-442 0 l0 -35 l-48 0 l0 361 q-112 -56 -201 -90 q-16 23 -33 40 q239 87 438 219 l-421 0 l0 44 l356 0 l0 151 l-267 0 l0 44 l267 0 l0 136 l48 0 l0 -136 l266 0 l0 -37 q60 58 122 136 l40 -24 q-115 -145 -275 -270 l326 0 l0 -44 l-384 0 Z" /><glyph glyph-name="" unicode="&#x2f7d;&#x800c;" d="M520 723 q-35 -129 -48 -167 l417 0 l0 -554 q0 -47 -33 -59 q-31 -9 -152 -9 q-5 24 -19 48 q91 -3 135 0 q21 0 21 20 l0 508 l-199 0 l0 -550 l-48 0 l0 550 l-197 0 l0 -550 l-47 0 l0 550 l-188 0 l0 -584 l-49 0 l0 630 l310 0 q24 84 40 167 l-404 0 l0 48 l886 0 l0 -48 l-425 0 Z" /><glyph glyph-name="" unicode="&#x80fd;" d="M659 402 q-62 0 -84 16 q-22 17 -22 65 l0 350 l47 0 l0 -182 q175 55 263 100 l34 -36 q-118 -53 -297 -104 l0 -127 q0 -23 11 -30 q12 -7 49 -7 l187 0 q32 0 41 22 q10 22 13 100 q18 -12 45 -19 q-5 -90 -23 -118 q-19 -30 -73 -30 l-191 0 ZM403 180 l0 111 l-249 0 l0 -111 l249 0 ZM154 438 l0 -106 l249 0 l0 106 l-249 0 ZM450 -7 q0 -43 -29 -55 q-27 -9 -131 -9 q-3 18 -17 47 q75 -3 113 0 q17 0 17 16 l0 147 l-249 0 l0 -211 l-46 0 l0 553 l342 0 l0 -488 ZM355 774 q102 -124 136 -216 l-39 -19 q-7 16 -26 54 q-317 -22 -343 -31 q-5 25 -16 48 q18 3 44 40 q58 61 113 185 l48 -18 q-67 -122 -133 -201 l265 15 q-41 67 -87 126 l38 17 ZM853 -20 q33 0 44 25 q9 25 13 114 q19 -14 44 -18 q-5 -101 -23 -131 q-19 -33 -76 -33 l-194 0 q-64 0 -85 16 q-23 17 -23 66 l0 350 l48 0 l0 -171 q195 58 277 110 l32 -37 q-93 -55 -309 -114 l0 -139 q0 -23 11 -30 q12 -8 50 -8 l191 0 Z" /><glyph glyph-name="" unicode="&#x2f83;&#x81ea;" d="M792 30 l0 175 l-568 0 l0 -175 l568 0 ZM224 423 l0 -172 l568 0 l0 172 l-568 0 ZM224 646 l0 -177 l568 0 l0 177 l-568 0 ZM841 693 l0 -762 l-49 0 l0 54 l-568 0 l0 -61 l-48 0 l0 769 l249 0 q31 80 48 142 l51 -9 q-30 -83 -52 -133 l369 0 Z" /><glyph glyph-name="" unicode="&#x2f8a;&#x8272;" d="M333 695 q-54 -75 -121 -139 l289 0 q62 57 114 139 l-282 0 ZM807 511 l-274 0 l0 -205 l274 0 l0 205 ZM229 306 l257 0 l0 205 l-257 0 l0 -205 ZM783 -12 q73 0 97 32 q21 30 30 136 q25 -16 47 -19 q-11 -118 -42 -154 q-34 -41 -135 -41 l-411 0 q-108 0 -146 24 q-40 26 -40 100 l0 463 q-42 -40 -107 -83 q-13 29 -28 44 q214 134 316 343 l45 -15 q-22 -45 -45 -78 l284 0 l10 3 l32 -22 q-50 -85 -130 -165 l295 0 l0 -348 l-48 0 l0 51 l-578 0 l0 -195 q0 -45 26 -60 q26 -16 106 -16 l422 0 Z" /><glyph glyph-name="" unicode="&#x8282;" d="M834 141 q0 -51 -38 -62 q-32 -8 -185 -8 q-4 18 -18 49 q135 -3 169 0 q24 1 24 21 l0 295 l-359 0 l0 -508 l-49 0 l0 508 l-276 0 l0 47 l732 0 l0 -342 ZM940 711 l0 -46 l-247 0 l0 -125 l-49 0 l0 125 l-291 0 l0 -125 l-48 0 l0 125 l-245 0 l0 46 l245 0 l0 122 l48 0 l0 -122 l291 0 l0 122 l49 0 l0 -122 l247 0 Z" /><glyph glyph-name="" unicode="&#x2f8f;&#x884c;&#xfa08;" d="M920 724 l-492 0 l0 46 l492 0 l0 -46 ZM321 816 q-96 -128 -249 -240 q-19 27 -30 38 q149 103 233 220 l46 -18 ZM362 606 q-48 -76 -115 -154 l0 -529 l-47 0 l0 477 q-65 -68 -133 -122 q-19 25 -35 39 q174 126 285 305 l45 -16 ZM950 450 l-159 0 l0 -453 q0 -49 -38 -60 q-28 -7 -184 -7 q-3 19 -18 45 q135 -3 166 0 q26 1 26 22 l0 453 l-359 0 l0 46 l566 0 l0 -46 Z" /><glyph glyph-name="" unicode="&#x8865;" d="M283 669 q-34 64 -100 127 l35 25 q68 -65 101 -125 l-36 -27 ZM501 433 q-62 -69 -119 -113 q94 -100 103 -112 l-30 -37 q-66 84 -162 187 l0 -431 l-48 0 l0 422 q-90 -99 -179 -165 q-16 28 -31 41 q219 148 336 379 l-313 0 l0 45 l338 0 l10 3 l28 -20 q-48 -108 -138 -223 q36 -36 61 -62 q68 66 107 117 l37 -31 ZM671 531 q196 -123 289 -219 l-36 -37 q-92 97 -270 213 l0 -559 l-50 0 l0 903 l50 0 l0 -317 l17 16 Z" /><glyph glyph-name="" unicode="&#x8868;" d="M894 317 q-89 -81 -200 -153 q111 -111 265 -156 q-16 -16 -32 -42 q-309 104 -430 427 l-8 0 q-63 -70 -168 -138 l0 -251 l260 81 q2 -24 7 -41 q-303 -100 -325 -116 q-7 22 -22 46 q32 13 32 57 l0 193 q-98 -58 -194 -93 q-16 24 -32 40 q228 74 381 222 l-356 0 l0 44 l403 0 l0 109 l-314 0 l0 42 l314 0 l0 103 l-365 0 l0 44 l365 0 l0 98 l47 0 l0 -98 l376 0 l0 -44 l-376 0 l0 -103 l328 0 l0 -42 l-328 0 l0 -109 l406 0 l0 -44 l-383 0 q44 -114 122 -201 q114 80 187 151 l40 -26 Z" /><glyph glyph-name="" unicode="&#x88ab;" d="M226 668 q-21 56 -76 141 l37 18 q53 -75 78 -138 l-39 -21 ZM342 200 q-38 60 -102 154 l0 -426 l-45 0 l0 416 q-65 -86 -128 -145 q-12 24 -27 39 q169 150 259 367 l-257 0 l0 45 l279 0 l9 3 l26 -18 q-40 -110 -115 -224 q15 -18 36 -47 q52 52 86 98 l34 -27 q-67 -71 -99 -99 l72 -99 l-28 -37 ZM543 393 q49 -144 147 -253 q103 111 147 253 l-294 0 ZM475 633 l0 -195 l172 0 l0 195 l-172 0 ZM895 427 q-49 -189 -172 -319 q101 -95 236 -136 q-18 -15 -32 -41 q-134 47 -237 144 q-104 -96 -238 -147 q-11 23 -28 39 q133 47 235 142 q-105 114 -160 284 l-24 0 q-4 -302 -123 -458 q-13 17 -37 32 q114 146 114 453 l0 258 l218 0 l0 155 l45 0 l0 -155 l210 0 l9 2 l33 -10 q-48 -152 -65 -192 l-42 11 q20 49 46 144 l-191 0 l0 -195 l164 0 l9 2 l30 -13 Z" /><glyph glyph-name="" unicode="&#x8981;" d="M363 243 q-35 -51 -86 -115 q137 -25 246 -51 q116 62 171 166 l-331 0 ZM174 436 l180 0 l0 161 l-180 0 l0 -161 ZM400 639 l190 0 l0 102 l-190 0 l0 -102 ZM636 597 l0 -161 l195 0 l0 161 l-195 0 ZM590 436 l0 161 l-190 0 l0 -161 l190 0 ZM746 243 q-50 -113 -159 -181 q199 -48 330 -100 l-43 -37 q-143 58 -344 106 q-155 -77 -448 -102 q-6 21 -21 44 q254 17 398 75 q-122 28 -263 53 q58 65 112 142 l-247 0 l0 45 l278 0 q29 43 63 106 l-274 0 l0 245 l226 0 l0 102 l-278 0 l0 44 l850 0 l0 -44 l-290 0 l0 -102 l242 0 l0 -245 l-467 0 l39 -10 q-31 -58 -57 -96 l547 0 l0 -45 l-194 0 Z" /><glyph glyph-name="" unicode="&#x2ec5;&#x89c1;" d="M804 771 l0 -565 l-50 0 l0 517 l-513 0 l0 -517 l-48 0 l0 565 l611 0 ZM516 620 q-9 -335 -72 -460 q-87 -170 -361 -233 q-9 21 -28 42 q266 57 347 216 q57 113 65 435 l49 0 ZM576 293 l0 -265 q0 -21 12 -27 q11 -7 50 -7 l190 0 q38 0 48 27 q11 28 14 132 q20 -15 45 -21 q-5 -113 -24 -147 q-19 -36 -81 -36 l-192 0 q-65 0 -86 15 q-23 16 -23 63 l0 266 l47 0 Z" /><glyph glyph-name="" unicode="&#x89c4;" d="M529 253 l-46 0 l0 529 l397 0 l0 -529 l-48 0 l0 485 l-303 0 l0 -485 ZM391 71 q-40 66 -140 186 q-38 -208 -172 -320 q-11 18 -33 35 q158 125 174 411 l-171 0 l0 46 l173 0 q1 23 1 66 l0 119 l-151 0 l0 45 l151 0 l0 164 l46 0 l0 -164 l146 0 l0 -45 l-146 0 l0 -118 q0 -44 -1 -67 l158 0 l0 -46 l-160 0 q-1 -26 -7 -76 q109 -120 166 -197 l-34 -39 ZM706 426 q0 -346 -300 -499 q-11 22 -30 37 q170 85 236 221 q48 97 48 242 l0 211 l46 0 l0 -212 ZM862 -12 q27 0 35 31 q7 29 11 142 q22 -15 42 -20 q-5 -123 -19 -155 q-16 -38 -70 -38 l-86 0 q-43 0 -60 14 q-19 15 -19 55 l0 265 l45 0 l0 -260 q0 -20 8 -27 q7 -7 28 -7 l85 0 Z" /><glyph glyph-name="" unicode="&#x89c6;" d="M508 252 l-47 0 l0 530 l432 0 l0 -530 l-48 0 l0 486 l-337 0 l0 -486 ZM265 679 q-32 64 -96 128 l36 24 q68 -63 99 -125 l-39 -27 ZM368 234 q-31 43 -115 144 l0 -451 l-46 0 l0 421 q-66 -73 -132 -123 q-13 28 -27 42 q193 139 283 346 l-261 0 l0 45 l286 0 l10 2 l26 -18 q-41 -110 -124 -220 q71 -76 132 -150 l-32 -38 ZM864 -18 q29 0 38 32 q8 29 12 144 q15 -13 43 -21 q-7 -123 -22 -156 q-17 -38 -72 -38 l-105 0 q-46 0 -64 14 q-20 16 -20 56 l0 251 q-54 -220 -280 -338 q-9 20 -30 37 q169 87 235 226 q48 99 48 247 l0 215 l46 0 l0 -216 q0 -87 -16 -159 l43 0 l0 -258 q0 -22 8 -29 q8 -7 33 -7 l103 0 Z" /><glyph glyph-name="" unicode="&#x89e3;" d="M419 208 l0 151 l-110 0 l0 -151 l110 0 ZM270 208 l0 151 l-110 0 l0 -43 q0 -57 -4 -108 l114 0 ZM207 704 q-32 -77 -59 -122 l153 0 q30 51 56 122 l-150 0 ZM309 400 l110 0 l0 141 l-110 0 l0 -141 ZM160 400 l110 0 l0 141 l-110 0 l0 -141 ZM461 -10 q0 -38 -23 -47 q-19 -9 -103 -9 q-4 23 -15 42 q68 -2 84 0 q15 0 15 14 l0 177 l-110 0 l0 -194 l-39 0 l0 194 l-117 0 q-18 -156 -74 -243 q-15 15 -37 24 q75 119 75 368 l0 216 l-38 -50 q-16 16 -38 28 q109 119 161 323 l45 -10 q-12 -45 -24 -78 l156 0 l8 3 l30 -20 q-27 -77 -69 -146 l113 0 l0 -592 ZM710 739 q-36 -206 -185 -279 q-17 24 -31 33 q137 63 171 246 l-152 0 l0 44 l411 0 q0 -16 -1 -22 q-13 -226 -39 -254 q-17 -20 -51 -20 q-31 -3 -104 2 q-4 27 -13 41 q59 -4 102 -4 q22 0 29 9 q19 22 30 204 l-167 0 ZM953 133 l-188 0 l0 -205 l-46 0 l0 205 l-211 0 l0 44 l211 0 l0 141 l-119 0 q-27 -66 -59 -109 q-21 14 -40 22 q64 82 98 230 l44 -8 q-11 -52 -26 -92 l102 0 l0 105 l46 0 l0 -105 l161 0 l0 -43 l-161 0 l0 -141 l188 0 l0 -44 Z" /><glyph glyph-name="" unicode="&#x8ba4;" d="M302 636 q-66 73 -145 145 l34 28 q95 -82 145 -138 l-34 -35 ZM422 184 q10 -30 15 -39 q-217 -149 -228 -165 q-5 16 -29 37 q52 35 52 86 l0 366 l-180 0 l0 47 l227 0 l0 -424 l143 92 ZM681 834 q0 -203 -9 -320 q81 -426 287 -552 q-22 -13 -36 -34 q-183 116 -266 450 q-48 -319 -239 -453 q-20 22 -38 30 q168 114 221 375 q31 152 32 504 l48 0 Z" /><glyph glyph-name="" unicode="&#x8bb0;" d="M289 618 q-52 69 -149 155 l34 29 q96 -83 151 -150 l-36 -34 ZM387 141 q6 -21 16 -40 q-185 -130 -200 -149 l0 -1 q-8 15 -29 38 q46 34 46 88 l0 390 l-168 0 l0 47 l215 0 l0 -453 l120 80 ZM824 -12 q50 0 65 31 q14 30 19 142 q18 -13 47 -21 q-8 -121 -30 -158 q-25 -41 -99 -41 l-255 0 q-76 0 -102 19 q-28 19 -28 77 l0 391 l389 0 l0 284 l-408 0 l0 47 l456 0 l0 -430 l-48 0 l0 53 l-341 0 l0 -346 q0 -29 16 -38 q16 -10 66 -10 l253 0 Z" /><glyph glyph-name="" unicode="&#x8bb8;" d="M276 615 q-59 76 -148 153 l30 27 q95 -77 149 -146 l-31 -34 ZM393 150 q3 -15 16 -40 q-181 -124 -195 -143 q-6 20 -25 46 q30 19 30 62 l0 395 l-168 0 l0 47 l214 0 l0 -452 l128 85 ZM953 306 l-265 0 l0 -378 l-48 0 l0 378 l-282 0 l0 47 l282 0 l0 259 l-155 0 q-35 -89 -82 -153 q-10 6 -44 23 q98 119 142 350 l47 -6 q-21 -101 -45 -167 l413 0 l0 -47 l-228 0 l0 -259 l265 0 l0 -47 Z" /><glyph glyph-name="" unicode="&#x8bbf;" d="M650 664 q-11 50 -48 152 l45 11 q41 -110 51 -148 l-48 -15 ZM284 637 q-48 59 -137 144 l33 30 q92 -86 138 -138 l-34 -36 ZM384 177 q7 -22 16 -37 q-189 -139 -202 -158 q-8 19 -30 41 q49 32 49 84 l0 363 l-165 0 l0 47 l212 0 l0 -422 l120 82 ZM578 608 q-2 -96 -7 -171 l296 0 q0 -19 -1 -26 q-18 -407 -56 -451 q-21 -23 -62 -26 q-48 -2 -128 3 q-2 26 -14 46 q55 -5 127 -5 q24 -1 36 12 q33 33 49 401 l-251 0 q-32 -336 -192 -466 q-15 21 -37 32 q114 88 158 278 q29 128 35 373 l-153 0 l0 47 l566 0 l0 -47 l-366 0 Z" /><glyph glyph-name="" unicode="&#x8bc6;" d="M835 711 l-342 0 l0 -329 l342 0 l0 329 ZM884 336 l-439 0 l0 422 l439 0 l0 -422 ZM268 623 q-56 70 -153 149 l33 28 q100 -76 154 -144 l-34 -33 ZM373 156 q3 -13 18 -40 q-187 -138 -201 -155 q-9 16 -31 36 q52 37 52 93 l0 379 l-154 0 l0 47 l201 0 l0 -442 l115 82 ZM569 217 q-52 -177 -158 -290 q-12 11 -41 29 q101 98 150 272 l49 -11 ZM792 229 q102 -164 137 -270 l-47 -20 q-36 114 -134 274 l44 16 Z" /><glyph glyph-name="" unicode="&#x8bd1;" d="M236 614 q-42 76 -119 166 l36 24 q85 -95 122 -159 l-39 -31 ZM348 130 q8 -19 19 -39 q-162 -116 -175 -134 l-1 4 l0 -4 q-11 20 -30 37 q48 34 48 90 l0 386 l-157 0 l0 46 l203 0 l0 -450 l93 64 ZM676 148 l266 0 l0 -45 l-266 0 l0 -176 l-48 0 l0 176 l-260 0 l0 45 l260 0 l0 122 l-210 0 l0 45 l210 0 l0 94 l48 0 l0 -94 l205 0 l0 -45 l-205 0 l0 -122 ZM501 727 q56 -98 155 -172 q118 77 177 172 l-332 0 ZM904 755 q-65 -128 -207 -228 q119 -75 267 -108 q-13 -12 -31 -41 q-156 38 -277 122 q-135 -83 -288 -124 q-9 20 -28 41 q150 39 277 113 q-108 87 -165 197 l-66 0 l0 44 l477 0 l10 3 l31 -19 Z" /><glyph glyph-name="" unicode="&#x8bd5;" d="M887 650 q-38 68 -117 147 l34 23 q74 -71 119 -142 l-36 -28 ZM273 638 q-42 59 -138 143 l34 28 q83 -68 139 -137 l-35 -34 ZM372 143 q5 -22 15 -39 q-188 -130 -202 -146 q-9 20 -27 42 q45 28 45 77 l0 392 l-150 0 l0 47 l196 0 l0 -454 l123 81 ZM666 137 l6 -44 l-300 -88 l-14 46 q34 8 137 38 l0 270 l-119 0 l0 46 l269 0 l0 -46 l-105 0 l0 -257 l126 35 ZM734 569 q33 -575 143 -581 q30 -2 43 161 q14 -12 39 -25 q-22 -198 -82 -196 q-154 4 -190 641 l-343 0 l0 46 l341 0 q-4 72 -8 214 l48 0 q2 -122 7 -214 l220 0 l0 -46 l-218 0 Z" /><glyph glyph-name="" unicode="&#x8be5;" d="M821 525 q-143 -247 -428 -386 q-8 18 -28 38 q178 84 311 226 q-249 -16 -274 -26 q-5 22 -18 47 q44 14 58 29 q43 38 149 189 l-232 0 l0 46 l295 0 q-16 62 -61 135 l45 14 q46 -68 65 -139 l-27 -10 l259 0 l0 -46 l-287 0 q-76 -108 -158 -207 l224 14 q38 49 61 93 l46 -17 ZM278 626 q-56 78 -147 162 l33 28 q107 -97 149 -156 l-35 -34 ZM369 120 q6 -21 16 -40 q-171 -121 -183 -139 q-14 22 -30 38 q48 33 48 91 l0 402 l-168 0 l0 46 l215 0 l0 -467 l102 69 ZM922 363 q-69 -112 -191 -219 q144 -113 206 -173 l-36 -33 q-68 69 -206 178 q-153 -121 -342 -193 q-13 22 -30 39 q390 143 551 420 l48 -19 Z" /><glyph glyph-name="" unicode="&#x8bef;" d="M837 741 l-355 0 l0 -167 l355 0 l0 167 ZM884 530 l-448 0 l0 255 l448 0 l0 -255 ZM261 615 q-55 72 -148 153 l32 31 q107 -91 149 -147 l-33 -37 ZM377 150 q6 -21 16 -40 q-178 -123 -194 -143 q-7 17 -25 46 q29 18 29 62 l0 395 l-152 0 l0 47 l199 0 l0 -451 l127 84 ZM678 203 q74 -186 279 -239 q-19 -16 -31 -41 q-199 62 -280 246 q-57 -177 -280 -241 q-10 23 -29 38 q220 58 272 237 l-240 0 l0 44 l249 0 q11 55 16 131 l-228 0 l0 45 l509 0 l0 -45 l-235 0 q-7 -87 -16 -131 l292 0 l0 -44 l-278 0 Z" /><glyph glyph-name="" unicode="&#x8bfb;" d="M812 414 q27 47 54 126 l-495 0 l0 43 l252 0 l0 106 l-212 0 l0 43 l212 0 l0 101 l48 0 l0 -101 l215 0 l0 -43 l-215 0 l0 -106 l216 0 l8 2 l31 -10 q-44 -123 -74 -174 l-40 13 ZM596 356 q-48 51 -143 104 l26 26 q90 -44 145 -99 l-28 -31 ZM407 394 q94 -46 146 -100 l-26 -31 q-52 53 -146 104 l26 27 ZM270 621 q-52 67 -149 151 l31 31 q107 -89 150 -145 l-32 -37 ZM361 156 q14 -31 20 -39 q-177 -142 -190 -161 l0 -1 q-12 20 -28 36 q47 38 47 88 l0 390 l-163 0 l0 46 l208 0 l0 -440 l106 81 ZM676 195 q-63 -173 -309 -271 q-13 23 -29 38 q223 86 286 233 l-272 0 l0 44 l287 0 q14 50 14 127 l0 126 l47 0 l0 -127 q0 -74 -12 -126 l254 0 l0 -44 l-266 0 ZM716 143 q156 -104 231 -186 l-30 -33 q-92 98 -232 191 l31 28 Z" /><glyph glyph-name="" unicode="&#x8c03;" d="M269 624 q-50 68 -148 153 l33 29 q105 -89 149 -149 l-34 -33 ZM629 444 l0 122 l-123 0 l0 40 l123 0 l0 96 l42 0 l0 -96 l127 0 l0 -40 l-127 0 l0 -122 l155 0 l0 -40 l-344 0 l0 40 l147 0 ZM553 268 l0 -144 l186 0 l0 144 l-186 0 ZM553 84 l0 -45 l-40 0 l0 269 l267 0 l0 -224 l-227 0 ZM916 -3 q0 -45 -31 -58 q-29 -10 -136 -8 q-5 22 -18 45 q29 -1 120 -1 q21 1 21 21 l0 742 l-438 0 l0 -318 q0 -338 -113 -493 q-10 13 -36 26 q41 56 68 141 q-158 -116 -171 -134 q-8 17 -31 37 q52 34 52 93 l0 379 l-153 0 l0 47 l200 0 l0 -443 l85 60 q7 -22 18 -39 q37 124 37 326 l0 362 l526 0 l0 -785 Z" /><glyph glyph-name="" unicode="&#x8c61;" d="M413 461 q55 52 91 129 l-294 0 l0 -129 l203 0 ZM319 721 q-64 -62 -101 -91 l282 0 q38 36 73 91 l-254 0 ZM795 590 l-243 0 q-32 -75 -82 -129 l325 0 l0 129 ZM841 368 q-63 -43 -148 -90 q81 -180 249 -251 q-23 -19 -31 -40 q-169 81 -257 271 q-24 -13 -67 -33 q41 -80 34 -153 q-7 -71 -57 -104 q-39 -27 -96 -27 q-19 0 -87 2 q-2 24 -13 45 q36 -4 92 -4 q47 0 72 17 q35 23 42 74 q6 53 -21 116 q-168 -134 -426 -208 q-14 24 -31 38 q275 66 439 206 q-20 32 -46 64 q-133 -99 -347 -159 q-10 20 -29 37 q222 54 349 149 q-33 34 -80 65 q-108 -76 -278 -123 q-11 22 -26 39 q178 42 286 121 l-200 0 l0 170 q-32 -23 -72 -46 q-14 22 -32 32 q192 106 296 260 l52 -10 l-50 -63 l244 0 l8 2 l33 -21 q-33 -61 -85 -114 l284 0 l0 -210 l-413 0 l-14 -13 q98 -64 154 -151 q138 69 233 141 l39 -29 Z" /><glyph glyph-name="" unicode="&#x8d1f;" d="M340 704 q-100 -135 -236 -229 q-18 20 -36 32 q197 133 295 324 l54 -10 q-17 -31 -46 -74 l277 0 l9 2 l31 -21 q-45 -90 -119 -181 l240 0 l0 -428 l-49 0 l0 384 l-502 0 l0 -384 l-48 0 l0 428 l303 0 q60 67 108 157 l-281 0 ZM533 426 q-17 -233 -92 -331 q-92 -121 -339 -166 q-8 22 -24 40 q237 41 322 152 q68 88 83 305 l50 0 ZM557 135 q211 -90 351 -173 l-37 -34 q-139 87 -344 175 l30 32 Z" /><glyph glyph-name="" unicode="&#x8d28;" d="M595 267 q0 -104 -55 -173 q-81 -102 -295 -167 q-12 19 -30 39 q205 57 281 150 q50 60 50 152 l0 97 l49 0 l0 -98 ZM623 116 q173 -65 307 -146 l-36 -33 q-132 84 -305 150 l34 29 ZM945 616 l0 -45 l-365 0 q-5 -44 -16 -115 l294 0 l0 -342 l-49 0 l0 297 l-472 0 l0 -295 l-48 0 l0 340 l228 0 q11 72 15 115 l-331 0 l0 45 l336 0 q7 56 12 120 q-179 -15 -352 -23 l0 -236 q0 -362 -111 -538 q-18 16 -40 24 q104 166 104 514 l0 276 q483 20 694 68 l39 -39 q-106 -22 -283 -42 l-14 -124 l359 0 Z" /><glyph glyph-name="" unicode="&#x8d4b;" d="M908 658 q-29 62 -102 133 l35 18 q71 -66 104 -130 l-37 -21 ZM694 707 l-251 0 l0 43 l251 0 l0 -43 ZM134 189 l-40 0 l0 582 l268 0 l0 -581 l-40 0 l0 537 l-188 0 l0 -538 ZM251 378 q0 -312 -177 -437 q-8 15 -29 32 q164 106 164 405 l0 271 l42 0 l0 -271 ZM280 166 q64 -85 90 -147 l-36 -25 q-28 69 -90 153 l36 19 ZM620 43 q101 18 137 25 l3 -41 l-194 -38 q-115 -23 -170 -33 l-11 45 l60 10 l0 422 l41 0 l0 -415 l93 17 l0 463 l41 0 l0 -176 l108 0 l0 -43 l-108 0 l0 -236 ZM778 543 q13 -259 46 -416 q33 -156 74 -156 q24 0 30 170 q14 -14 36 -23 q-5 -109 -19 -149 q-15 -43 -52 -43 q-124 0 -158 617 l-338 0 l0 43 l336 0 q-6 154 -7 246 l45 0 q0 -151 5 -246 l176 0 l0 -43 l-174 0 Z" /><glyph glyph-name="" unicode="&#x8d85;" d="M693 744 q-22 -228 -198 -326 q-14 16 -37 32 q165 79 187 294 l-157 0 l0 44 l435 0 q0 -16 -1 -24 q-13 -249 -41 -279 q-20 -20 -53 -20 q-33 -3 -108 2 q-2 22 -13 43 q46 -5 103 -5 q25 0 32 9 q22 24 33 230 l-182 0 ZM571 138 l284 0 l0 220 l-284 0 l0 -220 ZM525 401 l377 0 l0 -306 l-377 0 l0 306 ZM299 39 q85 -39 257 -39 q362 0 407 1 q-16 -22 -22 -48 l-383 0 q-180 0 -270 39 q-97 43 -148 155 q-18 -140 -65 -222 l-38 26 q67 111 74 435 l46 -3 q-4 -95 -7 -144 q36 -119 104 -172 l0 403 l-196 0 l0 45 l186 0 l0 142 l-167 0 l0 44 l167 0 l0 132 l46 0 l0 -132 l166 0 l0 -44 l-166 0 l0 -142 l188 0 l0 -45 l-179 0 l0 -162 l171 0 l0 -45 l-171 0 l0 -224 Z" /><glyph glyph-name="" unicode="&#x8ddf;" d="M140 541 l220 0 l0 202 l-220 0 l0 -202 ZM424 124 l5 -43 l-372 -100 l-12 46 l55 13 l0 348 l43 0 l0 -338 l95 25 l0 422 l-142 0 l0 290 l309 0 l0 -290 l-122 0 l0 -159 l133 0 l0 -44 l-133 0 l0 -207 l141 37 ZM509 404 l332 0 l0 150 l-332 0 l0 -150 ZM509 742 l0 -145 l332 0 l0 145 l-332 0 ZM945 282 q-80 -66 -192 -127 q84 -128 209 -177 q-23 -25 -32 -42 q-226 102 -307 424 l-114 0 l0 -359 l199 51 q0 -24 2 -44 q-238 -67 -255 -80 q-3 9 -23 43 q31 16 31 61 l0 754 l423 0 l0 -426 l-220 0 q22 -89 66 -170 q108 64 181 124 l32 -32 Z" /><glyph glyph-name="" unicode="&#x8f6c;" d="M449 190 l-147 -31 l0 -228 l-47 0 l0 218 q-66 -15 -195 -40 l-12 48 l207 38 l0 162 l-97 0 q-56 0 -71 -13 q-11 38 -15 45 q14 3 47 81 q30 69 64 193 l-130 0 l0 46 l143 0 q19 76 27 123 l49 -11 q-17 -71 -29 -112 l170 0 l0 -46 l-183 0 q-44 -150 -96 -261 l121 0 l0 160 l47 0 l0 -160 l119 0 l0 -45 l-119 0 l0 -153 l144 28 l3 -42 ZM638 475 l-43 -138 l266 0 l8 4 l35 -18 q-63 -96 -182 -252 q77 -57 125 -105 l-32 -38 q-103 110 -266 211 l31 30 q41 -24 107 -71 q96 129 139 193 l-299 0 q32 90 61 184 l-163 0 l0 46 l177 0 q24 81 41 142 l-176 0 l0 46 l189 0 q6 20 33 123 l48 -6 l-31 -117 l209 0 l0 -46 l-222 0 l-41 -142 l301 0 l0 -46 l-315 0 Z" /><glyph glyph-name="" unicode="&#x8f83;" d="M692 691 q-20 53 -70 125 l40 20 q45 -61 73 -123 l-43 -22 ZM935 639 l-486 0 l0 45 l486 0 l0 -45 ZM801 599 q101 -117 152 -208 l-39 -25 q-49 91 -150 212 l37 21 ZM626 584 q-66 -133 -149 -225 q-20 23 -34 33 q85 88 139 206 l44 -14 ZM409 179 l-110 -23 l0 -224 l-44 0 l0 215 l-195 -39 l-12 48 l207 37 l0 164 l-100 0 q-54 0 -68 -14 q-10 37 -15 46 q13 3 44 82 q25 59 59 191 l-121 0 l0 46 l131 0 q14 64 23 123 l48 -10 q-12 -64 -25 -113 l161 0 l0 -46 l-171 0 q-39 -145 -87 -260 l121 0 l0 161 l44 0 l0 -161 l94 0 l0 -45 l-94 0 l0 -156 l108 21 l2 -43 ZM838 410 q-37 -144 -119 -258 q104 -130 234 -183 q-20 -18 -34 -39 q-126 59 -227 185 q-95 -115 -236 -189 q-14 18 -33 32 q149 76 242 193 q-80 111 -128 254 l41 12 q40 -122 114 -229 q69 103 100 233 l46 -11 Z" /><glyph glyph-name="" unicode="&#x8fb9;" d="M605 601 q-15 -187 -65 -300 q-61 -136 -188 -210 q-9 13 -35 34 q121 67 178 195 q48 106 61 281 l-212 0 l0 46 l215 0 q5 81 6 168 l49 0 q-1 -87 -6 -168 l303 0 l0 -27 q-24 -457 -68 -506 q-23 -27 -67 -28 q-38 -3 -138 3 q-4 27 -17 48 q61 -5 140 -5 q28 -1 40 12 q40 41 60 457 l-256 0 ZM250 617 q-61 80 -160 169 l35 25 q103 -87 163 -164 l-38 -30 ZM237 103 q11 -6 35 -26 q30 -24 50 -38 q77 -51 268 -51 q191 0 376 17 q-13 -30 -16 -55 q-187 -11 -360 -11 q-199 0 -285 59 l-94 66 q-41 0 -140 -135 l-37 43 q96 117 155 135 l0 336 l-141 0 l0 48 l189 0 l0 -388 Z" /><glyph glyph-name="" unicode="&#x8fc7;" d="M726 601 l-395 0 l0 47 l395 0 l0 182 l49 0 l0 -182 l148 0 l0 -47 l-148 0 l0 -435 q0 -51 -42 -64 q-34 -9 -180 -9 q-3 19 -19 50 q78 -2 166 -2 q26 3 26 25 l0 435 ZM430 501 q98 -117 142 -197 l-39 -24 q-43 84 -141 201 l38 20 ZM244 615 q-53 81 -151 167 l38 25 q103 -93 152 -165 l-39 -27 ZM253 124 q-7 3 84 -61 q75 -49 256 -49 q184 0 362 15 q-12 -22 -14 -50 q-160 -9 -348 -9 q-191 0 -271 56 q-92 62 -93 62 q-45 0 -147 -128 l-34 40 q103 112 158 126 l0 284 l-150 0 l0 46 l197 0 l0 -332 Z" /><glyph glyph-name="" unicode="&#x8fd1;" d="M472 484 q-10 -269 -110 -411 q-23 21 -40 29 q103 149 103 449 l0 221 q317 22 450 62 l40 -37 q-149 -44 -442 -63 l0 -204 l474 0 l0 -46 l-195 0 l0 -411 l-47 0 l0 411 l-233 0 ZM245 617 q-52 80 -151 170 l37 23 q105 -96 153 -165 l-39 -28 ZM253 118 q12 -5 36 -24 q31 -25 50 -37 q72 -49 256 -49 q195 0 362 16 q-12 -27 -14 -52 q-175 -10 -349 -10 q-187 0 -273 56 q-90 62 -92 62 q-45 0 -147 -128 l-33 41 q97 109 157 127 l0 302 l-150 0 l0 47 l197 0 l0 -351 Z" /><glyph glyph-name="" unicode="&#x8fd4;" d="M437 521 q-4 -279 -120 -420 q-10 13 -38 28 q110 137 110 410 l0 216 q333 18 480 56 l40 -38 q-160 -42 -472 -57 l0 -150 l406 0 l10 2 l28 -13 q-49 -158 -162 -279 q119 -98 176 -157 l-39 -35 q-64 69 -169 160 q-111 -106 -249 -161 q-13 25 -28 39 q133 50 243 151 q-85 72 -177 141 l35 27 q105 -80 173 -136 q94 99 138 216 l-385 0 ZM225 607 q-53 71 -137 160 l37 23 q97 -99 139 -155 l-39 -28 ZM236 94 q11 -5 33 -20 q28 -19 45 -29 q75 -40 258 -40 q212 0 379 15 q-11 -26 -14 -49 q-164 -10 -366 -10 q-187 0 -269 47 q-97 52 -93 52 q-42 0 -137 -108 l-30 40 q91 91 146 105 l0 309 l-135 0 l0 46 l183 0 l0 -358 Z" /><glyph glyph-name="" unicode="&#x8fd9;" d="M613 677 q-24 65 -78 146 l45 14 q60 -90 79 -143 l-46 -17 ZM860 92 q-86 86 -229 201 q-119 -128 -312 -204 q-9 20 -30 43 q188 68 305 191 q-143 112 -265 196 l34 28 q144 -99 261 -190 q90 110 138 266 l-464 0 l0 45 l645 0 l0 -45 l-130 0 q-52 -175 -151 -295 q160 -125 237 -200 l-39 -36 ZM217 605 q-45 75 -144 156 l37 25 q97 -76 147 -152 l-40 -29 ZM239 86 q12 -4 35 -19 q32 -21 49 -30 q73 -40 254 -40 q204 0 377 17 q-13 -31 -15 -56 q-168 -10 -363 -10 q-185 0 -266 45 q-89 49 -92 49 q-42 0 -138 -103 l-34 45 q89 85 147 101 l0 323 l-139 0 l0 46 l185 0 l0 -368 Z" /><glyph glyph-name="" unicode="&#x8fdb;" d="M537 452 q0 -35 -1 -54 l197 0 l0 202 l-196 0 l0 -148 ZM531 351 q-22 -182 -148 -273 q-11 21 -33 36 q114 83 134 237 l-150 0 l0 47 l155 0 q1 19 1 54 l0 148 l-151 0 l0 46 l151 0 l0 169 l47 0 l0 -169 l196 0 l0 171 l47 0 l0 -171 l138 0 l0 -46 l-138 0 l0 -202 l157 0 l0 -47 l-157 0 l0 -273 l-47 0 l0 273 l-202 0 ZM246 619 q-50 75 -152 166 l36 26 q106 -96 153 -163 l-37 -29 ZM253 113 q13 -5 36 -24 q31 -26 48 -37 q75 -49 257 -49 q193 0 360 16 q-11 -30 -13 -50 q-156 -11 -348 -11 q-187 0 -272 57 q-91 63 -92 63 q-43 0 -148 -130 l-32 40 q99 109 157 127 l0 312 l-150 0 l0 45 l197 0 l0 -359 Z" /><glyph glyph-name="" unicode="&#x8fed;" d="M865 73 q-78 121 -247 262 q-61 -174 -258 -270 q-10 17 -32 37 q215 99 257 295 l-282 0 l0 45 l290 0 q7 48 7 119 l0 59 l-169 0 q-33 -74 -74 -129 q-29 17 -44 21 q89 112 133 290 l47 -10 q-18 -64 -42 -127 l149 0 l0 167 l48 0 l0 -167 l244 0 l0 -45 l-244 0 l0 -59 q0 -70 -6 -119 l291 0 l0 -45 l-299 0 l-4 -17 q188 -150 273 -277 l-38 -30 ZM234 604 q-46 74 -146 165 l37 23 q102 -89 148 -160 l-39 -28 ZM238 102 q-4 1 89 -55 q74 -44 256 -44 q208 0 370 15 q-12 -24 -14 -49 q-152 -10 -356 -10 q-188 0 -270 50 l-92 55 q-44 0 -142 -114 l-31 38 q92 94 144 112 l0 332 l-136 0 l0 46 l182 0 l0 -376 Z" /><glyph glyph-name="" unicode="&#x9009;" d="M560 435 q-15 -138 -63 -214 q-55 -89 -175 -134 q-8 20 -30 37 q112 39 163 120 q43 67 56 191 l-189 0 l0 44 l288 0 l0 164 l-161 0 q-34 -66 -65 -104 q-26 18 -43 24 q78 88 120 240 l46 -9 q-17 -57 -38 -108 l141 0 l0 144 l49 0 l0 -144 l243 0 l0 -43 l-243 0 l0 -164 l285 0 l0 -44 l-212 0 l0 -265 q0 -17 6 -22 q6 -4 28 -4 l104 0 q21 0 27 21 q7 22 8 105 q15 -11 44 -19 q-4 -93 -18 -123 q-14 -30 -56 -30 l-113 0 q-46 0 -61 15 q-16 14 -16 57 l0 265 l-125 0 ZM231 603 q-51 80 -160 168 l37 26 q111 -87 161 -165 l-38 -29 ZM239 85 q10 -1 99 -55 q74 -42 252 -42 q211 0 371 16 q-13 -29 -15 -52 q-160 -10 -356 -10 q-185 0 -265 48 q-86 52 -90 52 q-45 0 -149 -109 l-32 41 q89 82 139 102 l0 330 l-130 0 l0 46 l176 0 l0 -367 Z" /><glyph glyph-name="" unicode="&#x9012;" d="M520 701 q-23 56 -74 113 l39 18 q54 -58 74 -109 l-39 -22 ZM420 505 l-17 -110 l201 0 l0 110 l-184 0 ZM652 547 l192 0 l0 109 l-192 0 l0 -109 ZM604 321 q-91 -118 -262 -196 q-23 23 -34 31 q183 78 265 197 l-219 0 q20 103 27 194 l223 0 l0 109 l-260 0 l0 43 l340 0 q45 59 81 133 l47 -16 q-42 -70 -78 -117 l153 0 l0 -194 l-235 0 l0 -110 l273 0 l-2 -22 q-12 -163 -36 -187 q-15 -17 -48 -18 q-29 -3 -91 2 q-2 21 -13 42 q39 -4 88 -4 q21 -1 29 7 q16 19 25 138 l-225 0 l0 -288 l-48 0 l0 256 ZM220 599 q-42 75 -125 167 l39 19 q89 -95 128 -163 l-42 -23 ZM248 122 q12 -5 35 -23 q30 -24 48 -36 q74 -48 257 -48 q176 0 368 16 q-12 -24 -14 -49 q-150 -10 -354 -10 q-191 0 -273 55 q-94 60 -91 60 q-38 0 -131 -125 l-32 39 q89 105 140 123 l0 288 l-144 0 l0 46 l191 0 l0 -336 Z" /><glyph glyph-name="" unicode="&#x9014;" d="M265 631 q-66 66 -176 129 l32 31 q119 -66 177 -124 l-33 -36 ZM241 94 q-9 3 93 -61 q80 -50 260 -50 q180 0 360 16 q-12 -27 -14 -50 q-128 -10 -347 -10 q-186 0 -276 57 q-95 60 -98 60 q-42 0 -140 -127 l-32 38 q94 108 147 126 l0 340 l-141 0 l0 46 l188 0 l0 -385 ZM592 407 l0 119 l-158 0 l0 43 l367 0 l0 -43 l-163 0 l0 -119 l292 0 l0 -43 l-292 0 l0 -260 q0 -39 -27 -49 q-23 -8 -122 -8 q-3 17 -16 42 q82 -2 102 0 q17 0 17 15 l0 260 l-272 0 l0 43 l272 0 ZM777 311 q106 -100 150 -189 l-40 -22 q-47 93 -148 193 l38 18 ZM479 297 q-60 -117 -151 -201 q-11 10 -39 26 q89 77 146 187 l44 -12 ZM645 822 l-14 -22 q125 -160 328 -230 q-22 -22 -34 -43 q-187 78 -317 240 q-122 -162 -302 -255 q-14 22 -33 38 q223 105 330 289 l42 -17 Z" /><glyph glyph-name="" unicode="&#x901a;" d="M656 542 l0 -108 l207 0 l0 108 l-207 0 ZM863 282 l0 112 l-207 0 l0 -112 l207 0 ZM611 282 l0 112 l-200 0 l0 -112 l200 0 ZM411 542 l0 -108 l200 0 l0 108 l-200 0 ZM491 711 q73 -27 152 -62 q101 42 179 102 l-461 0 l0 42 l508 0 l10 2 l31 -23 q-86 -83 -220 -144 q67 -32 90 -46 l129 0 l0 -458 q0 -40 -29 -51 q-24 -8 -136 -8 q-4 19 -15 42 q28 -1 116 -1 q18 1 18 18 l0 118 l-207 0 l0 -172 l-45 0 l0 172 l-200 0 l0 -176 l-46 0 l0 516 l321 0 q-106 55 -226 100 l31 29 ZM244 594 q-56 75 -167 170 l35 26 q114 -95 168 -166 l-36 -30 ZM246 103 q13 -5 37 -23 q34 -25 52 -36 q81 -50 262 -50 q185 0 366 16 q-10 -22 -14 -49 q-162 -10 -352 -10 q-188 0 -278 57 q-96 59 -98 59 q-43 0 -141 -126 l-31 37 q96 112 151 128 l0 311 l-150 0 l0 46 l196 0 l0 -360 Z" /><glyph glyph-name="" unicode="&#x9047;" d="M590 525 l0 101 l-170 0 l0 -101 l170 0 ZM420 664 l170 0 l0 99 l-170 0 l0 -99 ZM811 763 l-176 0 l0 -99 l176 0 l0 99 ZM811 626 l-176 0 l0 -101 l176 0 l0 101 ZM376 56 l-45 0 l0 347 l259 0 l0 82 l-215 0 l0 318 l482 0 l0 -318 l-222 0 l0 -82 l268 0 l0 -304 q0 -37 -27 -47 q-23 -7 -131 -7 q-4 18 -17 38 q92 -2 113 0 q16 1 16 15 l0 263 l-223 0 l0 -137 l110 7 q-22 49 -43 84 l35 9 q55 -87 80 -172 l-38 -12 q-8 32 -18 54 q-70 -6 -181 -14 l-156 -11 l-5 43 q31 1 172 10 l0 139 l-214 0 l0 -305 ZM257 607 q-69 68 -179 130 l33 32 q116 -66 179 -126 l-33 -36 ZM241 93 q13 -5 38 -23 q36 -25 55 -37 q79 -51 260 -51 q158 0 360 16 q-12 -27 -14 -50 q-128 -10 -347 -10 q-186 0 -276 57 q-91 60 -98 60 q-42 0 -140 -127 l-32 39 q95 107 147 125 l0 341 l-135 0 l0 46 l182 0 l0 -386 Z" /><glyph glyph-name="" unicode="&#x904d;" d="M869 288 l0 123 l-111 0 l0 -123 l111 0 ZM719 288 l0 123 l-111 0 l0 -123 l111 0 ZM570 288 l0 123 l-106 0 l0 -123 l106 0 ZM912 104 q0 -31 -21 -40 q-17 -8 -81 -8 q-3 16 -15 38 q50 -2 63 0 q11 0 11 11 l0 143 l-111 0 l0 -163 l-39 0 l0 163 l-111 0 l0 -163 l-38 0 l0 163 l-106 0 l0 -192 l-43 0 l0 395 l491 0 l0 -347 ZM401 691 l0 -112 l448 0 l0 112 l-448 0 ZM401 540 q-4 -280 -89 -433 q-12 13 -37 26 q81 152 81 431 l0 166 l257 0 l-39 90 l42 15 q32 -60 49 -105 l230 0 l0 -190 l-494 0 ZM227 611 q-42 66 -137 165 l37 23 q95 -97 139 -162 l-39 -26 ZM234 104 q12 -6 37 -26 q30 -25 51 -39 q77 -52 267 -52 q191 0 376 17 q-13 -29 -15 -54 q-175 -10 -362 -10 q-199 0 -284 59 q-96 65 -94 65 q-41 0 -140 -135 l-36 43 q100 117 154 134 l0 339 l-140 0 l0 46 l186 0 l0 -387 Z" /><glyph glyph-name="" unicode="&#x90a3;" d="M446 304 q2 110 2 194 l-173 0 q-6 -103 -21 -194 l192 0 ZM284 738 q-4 -126 -7 -195 l172 0 l1 195 l-166 0 ZM498 751 q-4 -731 -33 -777 q-22 -31 -61 -34 q-34 -4 -117 2 q-2 30 -15 49 q51 -3 115 -3 q23 -1 34 17 q19 29 24 255 l-198 0 q-42 -210 -153 -333 q-2 3 -39 36 q104 105 145 297 l-133 0 l0 44 l141 0 q15 91 21 194 l-156 0 l0 45 l157 0 q3 64 5 195 l-176 0 l0 45 l439 0 l0 -32 ZM935 756 q-71 -146 -157 -298 q147 -123 147 -245 q2 -89 -47 -118 q-25 -15 -68 -20 q-52 -5 -108 0 q-4 28 -17 47 q64 -8 110 -3 q30 2 52 12 q33 18 33 84 q0 111 -154 236 q57 98 143 279 l-228 0 l0 -802 l-46 0 l0 848 l300 0 l8 3 l32 -23 Z" /><glyph glyph-name="" unicode="&#x90e8;" d="M552 665 l-462 0 l0 45 l219 0 q-20 58 -48 113 l42 11 q38 -73 56 -124 l193 0 l0 -45 ZM223 453 q-17 85 -68 184 l43 12 q52 -92 70 -183 l-45 -13 ZM169 248 l0 -218 l307 0 l0 218 l-307 0 ZM123 293 l401 0 l0 -347 l-48 0 l0 40 l-307 0 l0 -49 l-46 0 l0 356 ZM502 639 q-56 -147 -82 -198 l155 0 l0 -46 l-517 0 l0 46 l314 0 q43 86 82 211 l48 -13 ZM935 756 q-64 -158 -130 -299 q121 -122 121 -246 q0 -90 -42 -118 q-26 -16 -59 -19 q-28 -3 -90 -1 q-4 28 -16 48 q43 -5 89 -3 q29 3 44 11 q29 19 27 85 q0 113 -125 237 q63 130 118 280 l-190 0 l0 -805 l-45 0 l0 850 l257 0 l8 3 l33 -23 Z" /><glyph glyph-name="" unicode="&#x90fd;" d="M468 326 l-262 0 l0 -118 l262 0 l0 118 ZM468 39 l0 128 l-262 0 l0 -128 l262 0 ZM572 789 q-67 -143 -170 -266 l164 0 l0 -44 l-203 0 q-55 -60 -117 -111 l269 0 l0 -421 l-47 0 l0 49 l-262 0 l0 -63 l-45 0 l0 371 q-52 -36 -99 -62 q-4 7 -33 39 q152 77 273 198 l-254 0 l0 44 l214 0 l0 143 l-167 0 l0 44 l167 0 l0 115 l46 0 l0 -115 l138 0 l0 -44 l-138 0 l0 -143 l36 0 q113 123 184 281 l44 -15 ZM955 754 q-87 -176 -160 -303 q150 -122 150 -249 q2 -89 -48 -119 q-23 -16 -65 -21 q-42 -4 -98 -1 q0 27 -16 49 q60 -6 97 -2 q28 0 51 13 q34 18 32 84 q0 117 -156 238 q74 129 146 286 l-224 0 l0 -803 l-48 0 l0 849 l297 0 l8 3 l34 -24 Z" /><glyph glyph-name="" unicode="&#x914d;" d="M326 748 l-70 0 l0 -137 l70 0 l0 137 ZM441 568 l-83 0 l0 -205 q0 -14 17 -14 l48 0 q14 0 15 3 l3 -2 l0 218 ZM441 44 l0 124 l-304 0 l0 -124 l304 0 ZM137 568 l0 -360 l304 0 l0 107 q-4 -1 -12 -1 l-56 0 q-29 0 -39 9 q-10 9 -10 40 l0 205 l-69 0 l0 -82 q0 -133 -88 -206 q-11 14 -28 23 q82 65 82 184 l0 81 l-84 0 ZM67 793 l440 0 l0 -45 l-142 0 l0 -137 l118 0 l0 -668 l-42 0 l0 59 l-304 0 l0 -73 l-41 0 l0 682 l121 0 l0 137 l-150 0 l0 45 ZM855 -18 q36 0 47 32 q10 30 15 144 q21 -16 45 -21 q-5 -123 -24 -160 q-20 -41 -82 -41 l-184 0 q-62 0 -83 17 q-22 18 -22 72 l0 443 l311 0 l0 274 l-314 0 l0 46 l361 0 l0 -439 l-47 0 l0 73 l-264 0 l0 -398 q0 -26 11 -34 q12 -8 49 -8 l181 0 Z" /><glyph glyph-name="" unicode="&#x2fa5;&#x91cc;&#xf9e9;" d="M207 398 l271 0 l0 154 l-271 0 l0 -154 ZM207 595 l271 0 l0 151 l-271 0 l0 -151 ZM805 746 l-281 0 l0 -151 l281 0 l0 151 ZM805 552 l-281 0 l0 -154 l281 0 l0 154 ZM943 1 l0 -45 l-884 0 l0 45 l417 0 l0 173 l-350 0 l0 46 l350 0 l0 134 l-317 0 l0 436 l694 0 l0 -436 l-327 0 l0 -134 l361 0 l0 -46 l-361 0 l0 -173 l417 0 Z" /><glyph glyph-name="" unicode="&#x91cd;" d="M473 274 l0 95 l-263 0 l0 -95 l263 0 ZM210 406 l263 0 l0 94 l-263 0 l0 -94 ZM521 500 l0 -94 l274 0 l0 94 l-274 0 ZM795 369 l-274 0 l0 -95 l274 0 l0 95 ZM944 3 l0 -43 l-886 0 l0 43 l415 0 l0 106 l-340 0 l0 42 l340 0 l0 84 l-309 0 l0 305 l309 0 l0 74 l-410 0 l0 42 l410 0 l0 89 q-147 -11 -324 -16 q0 14 -10 39 q471 16 669 56 l31 -37 q-120 -24 -318 -39 l0 -92 l418 0 l0 -42 l-418 0 l0 -74 l322 0 l0 -305 l-322 0 l0 -84 l360 0 l0 -42 l-360 0 l0 -106 l423 0 Z" /><glyph glyph-name="" unicode="&#x91cf;&#xf97e;" d="M771 765 l-543 0 l0 -67 l543 0 l0 67 ZM771 664 l-543 0 l0 -68 l543 0 l0 68 ZM819 560 l-638 0 l0 240 l638 0 l0 -240 ZM944 471 l-886 0 l0 40 l886 0 l0 -40 ZM475 206 l0 71 l-266 0 l0 -71 l266 0 ZM209 312 l266 0 l0 68 l-266 0 l0 -68 ZM804 380 l-282 0 l0 -68 l282 0 l0 68 ZM804 277 l-282 0 l0 -71 l282 0 l0 71 ZM951 -7 l0 -41 l-901 0 l0 41 l425 0 l0 71 l-344 0 l0 39 l344 0 l0 67 l-312 0 l0 247 l688 0 l0 -247 l-329 0 l0 -67 l353 0 l0 -39 l-353 0 l0 -71 l429 0 Z" /><glyph glyph-name="" unicode="&#x9519;" d="M161 660 q-35 -64 -83 -117 q-10 20 -29 41 q91 94 139 245 l43 -11 q-16 -50 -45 -112 l213 0 l0 -46 l-238 0 ZM263 333 l144 0 l0 -45 l-144 0 l0 -246 l121 68 q1 -18 11 -42 q-182 -107 -196 -123 q-8 19 -26 41 q45 30 45 79 l0 223 l-150 0 l0 45 l150 0 l0 158 l-110 0 l0 45 l276 0 l0 -45 l-121 0 l0 -158 ZM525 311 l0 -123 l308 0 l0 123 l-308 0 ZM833 17 l0 129 l-308 0 l0 -129 l308 0 ZM480 354 l399 0 l0 -421 l-46 0 l0 42 l-308 0 l0 -46 l-45 0 l0 425 ZM596 495 l162 0 l0 153 l-162 0 l0 -153 ZM953 495 l0 -45 l-529 0 l0 45 l127 0 l0 153 l-102 0 l0 44 l102 0 l0 141 l45 0 l0 -141 l162 0 l0 141 l45 0 l0 -141 l127 0 l0 -44 l-127 0 l0 -153 l150 0 Z" /><glyph glyph-name="" unicode="&#x952e;" d="M763 608 l99 0 l0 97 l-99 0 l0 -97 ZM862 567 l-99 0 l0 -94 l99 0 l0 94 ZM721 567 l-165 0 l0 41 l165 0 l0 97 l-126 0 l0 41 l126 0 l0 87 l42 0 l0 -87 l140 0 l0 -138 l54 0 l0 -41 l-54 0 l0 -135 l-140 0 l0 -92 l146 0 l0 -42 l-146 0 l0 -98 l165 0 l0 -42 l-165 0 l0 -138 l-42 0 l0 138 l-169 0 l0 42 l169 0 l0 98 l-139 0 l0 42 l139 0 l0 92 l-126 0 l0 41 l126 0 l0 94 ZM138 664 q-33 -76 -67 -122 q-9 20 -27 38 q67 90 104 250 l42 -10 q-13 -56 -35 -112 l178 0 l0 -44 l-195 0 ZM330 111 q11 -31 15 -37 q-173 -115 -186 -132 l0 4 q-1 -2 -1 -4 q-9 18 -27 34 q47 38 47 88 l0 225 l-123 0 l0 44 l123 0 l0 159 l-82 0 l0 44 l213 0 l0 -44 l-88 0 l0 -159 l117 0 l0 -44 l-117 0 l0 -246 l109 68 ZM959 -20 q-11 -15 -18 -43 l-116 0 q-252 0 -365 144 q-48 -97 -124 -153 q-16 22 -33 31 q79 58 129 162 q-45 73 -75 182 l37 16 q23 -85 57 -150 q39 100 56 252 l-148 0 q54 108 125 291 l-128 0 l0 43 l192 0 q-66 -168 -124 -292 l95 0 l9 1 l26 -8 q-19 -197 -73 -332 q106 -144 347 -144 l131 0 Z" /><glyph glyph-name="" unicode="&#x2ed3;&#x957f;" d="M826 790 q-143 -175 -389 -297 q-15 19 -41 37 q244 108 383 278 l47 -18 ZM539 386 q122 -297 422 -388 q-21 -18 -34 -43 q-311 104 -438 431 l-176 0 l0 -379 l256 67 q0 -26 5 -43 q-302 -85 -325 -101 q-6 27 -20 46 q35 13 35 53 l0 357 l-204 0 l0 48 l204 0 l0 392 l49 0 l0 -392 l627 0 l0 -48 l-401 0 Z" /><glyph glyph-name="" unicode="&#x95ee;" d="M105 617 l47 0 l0 -692 l-47 0 l0 692 ZM153 815 q101 -97 150 -158 l-37 -26 q-65 80 -148 162 l35 22 ZM376 488 l0 -270 l243 0 l0 270 l-243 0 ZM666 173 l-290 0 l0 -70 l-45 0 l0 430 l335 0 l0 -360 ZM895 8 q0 -51 -37 -63 q-33 -11 -158 -9 q-2 18 -16 49 q93 -3 139 0 q23 1 23 23 l0 719 l-486 0 l0 45 l535 0 l0 -764 Z" /><glyph glyph-name="" unicode="&#x95f4;" d="M104 617 l48 0 l0 -692 l-48 0 l0 692 ZM156 815 q85 -74 125 -136 l-40 -27 q-35 60 -122 141 l37 22 ZM365 146 l267 0 l0 158 l-267 0 l0 -158 ZM365 346 l267 0 l0 156 l-267 0 l0 -156 ZM320 545 l357 0 l0 -441 l-357 0 l0 441 ZM896 -5 q0 -45 -29 -57 q-23 -8 -123 -8 q-11 33 -18 47 q24 -1 104 -1 q18 1 18 18 l0 733 l-489 0 l0 45 l537 0 l0 -777 Z" /><glyph glyph-name="" unicode="&#x96f6;" d="M132 510 l-45 0 l0 169 l387 0 l0 69 l-335 0 l0 41 l723 0 l0 -41 l-341 0 l0 -69 l393 0 l0 -169 l-46 0 l0 130 l-347 0 l0 -157 l-47 0 l0 157 l-342 0 l0 -130 ZM582 476 l255 0 l0 -37 l-255 0 l0 37 ZM811 575 l0 -36 l-229 0 l0 36 l229 0 ZM168 476 l245 0 l0 -37 l-245 0 l0 37 ZM412 575 l0 -36 l-222 0 l0 36 l222 0 ZM794 214 l32 -21 q-81 -90 -250 -175 q70 -28 122 -57 l-24 -40 q-143 83 -373 151 l24 33 q90 -24 200 -66 q125 54 220 132 l-568 0 l0 40 l610 0 l7 3 ZM531 219 q-31 45 -88 88 l32 23 q61 -46 89 -86 l-33 -25 ZM559 425 q-12 -10 -32 -23 q173 -92 436 -142 q-20 -20 -30 -40 q-264 56 -443 158 q-173 -105 -417 -163 q-10 18 -27 35 q315 73 477 198 l36 -23 Z" /><glyph glyph-name="" unicode="&#x9700;" d="M132 488 l-45 0 l0 187 l387 0 l0 72 l-335 0 l0 42 l723 0 l0 -42 l-341 0 l0 -72 l393 0 l0 -187 l-47 0 l0 148 l-346 0 l0 -249 l-47 0 l0 249 l-342 0 l0 -148 ZM582 462 l254 0 l0 -38 l-254 0 l0 38 ZM810 568 l0 -39 l-228 0 l0 39 l228 0 ZM170 462 l243 0 l0 -38 l-243 0 l0 38 ZM412 568 l0 -39 l-221 0 l0 39 l221 0 ZM517 308 q-17 -51 -32 -85 l389 0 l0 -241 q0 -38 -26 -47 q-21 -9 -111 -9 q-3 18 -17 42 q75 -2 94 0 q13 1 13 14 l0 198 l-184 0 l0 -245 l-45 0 l0 245 l-180 0 l0 -245 l-45 0 l0 245 l-175 0 l0 -252 l-46 0 l0 295 l287 0 q12 32 28 85 l-395 0 l0 42 l860 0 l0 -42 l-415 0 Z" /><glyph glyph-name="" unicode="&#x9759;" d="M484 466 l-436 0 l0 41 l196 0 l0 79 l-160 0 l0 40 l160 0 l0 73 l-176 0 l0 40 l176 0 l0 94 l46 0 l0 -94 l180 0 l0 -40 l-180 0 l0 -73 l165 0 l0 -40 l-165 0 l0 -79 l194 0 l0 -41 ZM388 144 l0 88 l-234 0 l0 -88 l234 0 ZM154 357 l0 -86 l234 0 l0 86 l-234 0 ZM433 -18 q0 -37 -27 -48 q-21 -8 -120 -8 q-2 9 -17 41 q25 -1 102 -1 q17 1 17 16 l0 123 l-234 0 l0 -179 l-45 0 l0 471 l324 0 l0 -415 ZM854 352 l-138 0 l0 -133 l138 0 l0 133 ZM716 395 l138 0 l0 127 l-138 0 l0 -127 ZM623 698 q-40 -75 -87 -133 l162 0 q44 52 86 133 l-161 0 ZM964 352 l-66 0 l0 -217 l-44 0 l0 41 l-138 0 l0 -187 q0 -43 -31 -54 q-26 -9 -136 -9 q-2 14 -17 46 q29 -1 119 -1 q20 0 20 19 l0 186 l-156 0 l0 43 l156 0 l0 133 l-205 0 l0 43 l205 0 l0 127 l-151 0 l0 24 q-13 -13 -19 -20 q-14 16 -36 30 q109 108 170 277 l44 -11 q-17 -46 -35 -82 l165 0 l8 2 l29 -20 q-39 -82 -99 -157 l151 0 l0 -170 l66 0 l0 -43 Z" /><glyph glyph-name="" unicode="&#x2fae;&#x975e;" d="M371 828 l49 0 l0 -901 l-49 0 l0 252 l-307 0 l0 47 l307 0 l0 178 l-267 0 l0 46 l267 0 l0 173 l-283 0 l0 47 l283 0 l0 158 ZM951 176 l-313 0 l0 -249 l-49 0 l0 901 l49 0 l0 -159 l296 0 l0 -47 l-296 0 l0 -173 l276 0 l0 -46 l-276 0 l0 -181 l313 0 l0 -46 Z" /><glyph glyph-name="" unicode="&#x2faf;&#x9762;" d="M839 522 l-175 0 l0 -496 l175 0 l0 496 ZM160 26 l168 0 l0 496 l-168 0 l0 -496 ZM619 522 l-246 0 l0 -135 l246 0 l0 135 ZM373 26 l246 0 l0 141 l-246 0 l0 -141 ZM619 345 l-246 0 l0 -136 l246 0 l0 136 ZM519 714 q-51 -163 -45 -146 l414 0 l0 -642 l-49 0 l0 55 l-679 0 l0 -55 l-48 0 l0 642 l313 0 q20 61 38 146 l-398 0 l0 47 l873 0 l0 -47 l-419 0 Z" /><glyph glyph-name="" unicode="&#x2eda;&#x9875;" d="M478 470 l48 0 l0 -183 q0 -123 -71 -196 q-100 -105 -370 -164 q-8 18 -27 41 q259 53 354 148 q66 64 66 172 l0 182 ZM579 152 q215 -96 338 -190 l-30 -38 q-123 93 -336 196 l28 32 ZM929 774 l0 -46 l-401 0 q-38 -88 -64 -137 l357 0 l0 -466 l-50 0 l0 420 l-537 0 l0 -420 l-48 0 l0 466 l227 0 q32 59 59 137 l-393 0 l0 46 l850 0 Z" /><glyph glyph-name="" unicode="&#x987b;" d="M582 622 q13 31 36 117 l-234 0 l0 46 l535 0 l0 -46 l-245 0 q-6 -16 -21 -61 q-13 -37 -21 -56 l242 0 l0 -469 l-48 0 l0 424 l-347 0 l0 -425 l-48 0 l0 470 l151 0 ZM331 796 q-89 -125 -225 -214 q-19 21 -38 33 q137 82 219 198 l44 -17 ZM361 534 q-101 -134 -261 -227 q-19 21 -36 33 q166 92 253 213 l44 -19 ZM381 246 q-105 -181 -298 -282 q-17 23 -34 36 q192 96 288 262 l44 -16 ZM630 498 l48 0 l0 -209 q0 -117 -48 -193 q-69 -108 -248 -170 q-6 13 -29 38 q173 53 236 152 q41 65 41 174 l0 208 ZM718 138 q154 -91 235 -167 l-26 -41 q-88 84 -235 173 l26 35 Z" /><glyph glyph-name="" unicode="&#x9898;" d="M657 632 q13 38 32 110 l-187 0 l0 43 l446 0 l0 -43 l-209 0 q-26 -82 -38 -110 l193 0 l0 -419 l-45 0 l0 378 l-258 0 l0 -379 l-44 0 l0 420 l110 0 ZM912 38 q-73 81 -183 159 l30 24 q121 -84 185 -154 l-32 -29 ZM746 538 q-7 -236 -50 -335 q-54 -123 -210 -177 q-12 23 -26 33 q148 48 198 163 q39 90 45 316 l43 0 ZM402 750 l-237 0 l0 -93 l237 0 l0 93 ZM402 619 l-237 0 l0 -93 l237 0 l0 93 ZM448 487 l-328 0 l0 302 l328 0 l0 -302 ZM955 -6 q-17 -20 -20 -44 l-284 0 q-191 0 -293 31 q-128 39 -194 141 q-25 -120 -84 -192 q-18 15 -37 26 q88 97 100 348 l43 -3 q-3 -69 -12 -125 q33 -65 90 -105 l0 290 l-211 0 l0 41 l451 0 l0 -41 l-196 0 l0 -122 l178 0 l0 -41 l-178 0 l0 -153 q106 -51 344 -51 l303 0 Z" /><glyph glyph-name="" unicode="&#x989c;" d="M668 610 q25 59 44 119 l-199 0 l0 42 l429 0 l0 -42 l-188 0 q-48 -128 -44 -119 l198 0 l0 -469 l-43 0 l0 429 l-282 0 l0 -430 l-43 0 l0 470 l128 0 ZM493 689 l-422 0 l0 42 l203 0 q-13 44 -38 90 l40 13 q32 -52 46 -103 l171 0 l0 -42 ZM199 538 q-19 64 -58 125 l39 14 q37 -54 60 -123 l-41 -16 ZM140 312 q0 -251 -62 -386 q-14 14 -38 25 q55 118 55 361 l0 221 l238 0 q31 52 69 143 l44 -11 q-44 -91 -70 -132 l112 0 l0 -43 l-348 0 l0 -178 ZM462 319 q-101 -114 -283 -189 q-23 28 -32 35 q180 67 275 172 l40 -18 ZM448 453 q-93 -90 -262 -149 q-18 23 -32 33 q170 57 253 134 l41 -18 ZM484 179 q-101 -153 -326 -228 q-12 19 -31 36 q219 67 314 210 l43 -18 ZM749 517 q-3 -308 -47 -411 q-54 -128 -239 -181 q-8 19 -26 34 q179 48 228 167 q40 94 42 391 l42 0 ZM769 120 q121 -84 184 -159 l-31 -32 q-62 79 -182 163 l29 28 Z" /><glyph glyph-name="" unicode="&#x2fb8;&#x9996;" d="M284 835 q62 -62 93 -119 l-43 -23 q-32 61 -91 123 l41 19 ZM773 492 l-543 0 l0 -122 l543 0 l0 122 ZM773 34 l0 128 l-543 0 l0 -128 l543 0 ZM773 328 l-543 0 l0 -124 l543 0 l0 124 ZM528 647 q-17 -63 -33 -111 l327 0 l0 -609 l-49 0 l0 63 l-543 0 l0 -63 l-48 0 l0 609 l263 0 q12 38 29 111 l-415 0 l0 46 l560 0 q61 72 99 141 l50 -17 q-40 -61 -94 -124 l269 0 l0 -46 l-415 0 Z" /><glyph glyph-name="" unicode="&#xff08;" d="M914 -93 q-200 206 -200 473 q0 267 200 473 l39 -24 q-190 -195 -190 -449 q0 -254 190 -449 l-39 -24 Z" /><glyph glyph-name="" unicode="&#xff09;" d="M86 853 q200 -206 200 -473 q0 -267 -200 -473 l-39 24 q190 195 190 449 q0 254 -190 449 l39 24 Z" /><glyph glyph-name="" unicode="&#xff0c;" d="M119 -52 q119 55 124 164 q-10 -3 -21 -3 q-62 0 -62 61 q0 61 62 61 q72 0 72 -102 q0 -156 -158 -218 l-17 37 Z" /><glyph glyph-name="" unicode="&#xff1a;" d="M250 495 q-26 0 -44 17 q-20 18 -20 47 q0 29 20 47 q18 17 44 17 q26 0 44 -17 q20 -18 20 -47 q0 -29 -20 -47 q-18 -17 -44 -17 ZM250 -2 q-26 0 -44 17 q-20 18 -20 47 q0 29 20 47 q18 17 44 17 q26 0 44 -17 q20 -18 20 -47 q0 -29 -20 -47 q-18 -17 -44 -17 Z" /><glyph glyph-name="" unicode="&#xff1b;" d="M250 495 q-26 0 -44 17 q-20 18 -20 47 q0 29 20 47 q18 17 44 17 q26 0 44 -17 q20 -18 20 -47 q0 -29 -20 -47 q-18 -17 -44 -17 ZM153 -116 q121 59 125 180 q-10 -3 -22 -3 q-62 0 -62 61 q0 29 19 46 q17 15 43 15 q72 0 72 -105 q0 -163 -158 -230 l-17 36 Z" /><glyph glyph-name="" unicode="&#x201c;" d="M769 810 q-87 -45 -87 -128 q13 11 31 11 q58 0 58 -60 q0 -22 -15 -39 q-17 -20 -46 -20 q-31 0 -52 24 q-22 25 -22 63 q0 59 37 111 q33 46 80 67 l16 -29 ZM954 810 q-86 -45 -88 -128 q15 11 32 11 q26 0 42 -17 q16 -17 16 -43 q0 -22 -15 -39 q-18 -20 -47 -20 q-30 0 -51 24 q-22 26 -22 63 q0 60 36 111 q33 46 81 67 l16 -29 Z" /><glyph glyph-name="" unicode="&#x201d;" d="M231 601 q87 47 87 128 q-12 -10 -31 -10 q-26 0 -42 17 q-16 17 -16 42 q0 23 15 40 q17 20 46 20 q31 0 52 -24 q22 -25 22 -63 q0 -59 -37 -111 q-33 -46 -80 -68 l-16 29 ZM46 601 q86 47 88 128 q-13 -10 -32 -10 q-26 0 -42 17 q-16 17 -16 42 q0 23 15 40 q18 20 47 20 q30 0 51 -24 q22 -26 22 -63 q0 -60 -36 -111 q-33 -46 -81 -68 l-16 29 Z" /></font>
</defs>
</svg>
